<?xml version="1.0" standalone="no"?>
<!DOCTYPE svg PUBLIC "-//W3C//DTD SVG 1.1//EN" "http://www.w3.org/Graphics/SVG/1.1/DTD/svg11.dtd" >
<svg xmlns="http://www.w3.org/2000/svg">
<metadata></metadata>
<defs>
<font id="caneletter_script_personal_Rg" horiz-adv-x="1847" >
<font-face units-per-em="2048" ascent="1536" descent="-512" />
<missing-glyph horiz-adv-x="544" />
<glyph unicode="&#xfb01;" horiz-adv-x="858" d="M-64 629q-4 11 2 21t19 9q39 -5 84 -2q0 39 1.5 75.5t5.5 90.5t10 101t17 102t26 99.5t37.5 87.5t50 72.5t64.5 47t81 17.5q96 0 135 -108q35 -100 4 -226q-29 -124 -100 -169q-37 -22 -78 -18q-37 3 -47 38.5t8.5 76t54.5 55.5q55 23 80 110q24 85 0 142q-28 64 -99 24 q-3 -2 -5 -3q-38 -23 -56 -67t-30 -107q-1 -5 -5 -26t-5 -27t-4 -27.5t-3.5 -37t-2 -47t-2 -65.5t-0.5 -83t1 -109q165 1 240.5 17.5t111.5 49.5q0 11 5 56q0 4 0.5 19.5t1 21.5t3 18.5t6 19.5t10.5 14.5t17 12.5q38 18 76 -2q31 -16 31 -55q4 -74 4 -113q0 -132 -2 -200 q-4 -140 -4 -209q0 -109 4 -162q3 -29 5 -41t7.5 -34t14 -31t20.5 -9q60 0 100.5 115t40.5 301q0 27 21 32q19 5 27 -20q2 -8 2 -18q0 -98 -8 -173.5t-27.5 -144.5t-58.5 -108.5t-95 -44.5q-36 -6 -67 13.5t-52 51.5q-40 63 -65 211q-24 176 -21 357v30q-44 -21 -109 -29.5 t-141 -10t-94 -3.5l4 -221q3 -265 -20 -465q-20 -150 -55 -225q-18 -46 -58 -78q-49 -38 -78 -25q-17 6 -18 25.5t14 28.5q4 2 13.5 4t13.5 4q17 11 31 29q24 40 35 106q14 91 6 242q-3 72 -15 272.5t-14 288.5v10q-42 3 -90 12q-13 2 -17 13zM532 1182l5 12q7 30 27.5 46.5 t45 15.5t47 -11t34.5 -34t5 -54l-4 -12q-6 -29 -29 -46.5t-51 -17.5q-38 0 -63 31.5t-17 69.5z" />
<glyph unicode="&#xfb02;" horiz-adv-x="757" d="M-81.5 -380.5q-1.5 19.5 13.5 28.5q4 2 13.5 4t13.5 4q17 11 31 29q24 40 35 106q14 91 6 242q-3 74 -12.5 242.5t-12 261t5 228t31.5 247.5q10 42 19 72t24.5 74t34 74t43.5 59t58 44t71 15q84 0 106 -36q11 -19 -5 -28q-9 -5 -23 -2q-38 8 -62 6q-34 -3 -59 -22 q-66 -44 -90 -170q-17 -92 -17 -236l4 -246q30 10 50 27q6 3 39 31q2 2 9 11t13.5 15t11.5 7q26 5 62 -22.5t30 -53.5q-10 -36 -81 -64q-47 -18 -117 -28q-4 -2 -17 -2v-150q3 -265 -20 -465q-20 -150 -55 -225q-18 -46 -58 -78q-48 -38 -77 -25q-17 6 -18.5 25.5zM426 604 q-9 222 0 443q8 141 14 215q0 2 0.5 18t1 20.5t3 16.5t6.5 17t11 12t17 10q39 15 76 -4q11 -5 18 -12t9.5 -18.5t3.5 -17t0.5 -22.5t-0.5 -20v-107q-1 -66 -5.5 -197.5t-5.5 -197.5q-8 -229 -6 -342q4 -161 13 -225q1 -5 3.5 -21t4.5 -26t6 -26t9 -26.5t12 -21.5t16.5 -16.5 t21.5 -6.5q38 -3 65 41t41.5 138.5t14.5 236.5q0 26 19 32t27 -19l3 -19q14 -473 -172 -473q-49 0 -86 30q-24 19 -43 51t-28 56.5t-21 62.5q-37 143 -49 418z" />
<glyph horiz-adv-x="0" />
<glyph horiz-adv-x="682" />
<glyph unicode=" "  horiz-adv-x="544" />
<glyph unicode="&#x09;" horiz-adv-x="544" />
<glyph unicode="&#xa0;" horiz-adv-x="544" />
<glyph unicode="!" horiz-adv-x="317" d="M39 94l4 12q5 21 17.5 36t28.5 20.5t34 5.5t34 -7.5t28.5 -19.5t17.5 -31t0 -40l-4 -13q-6 -29 -28.5 -46t-51.5 -17q-38 0 -63 31t-17 69zM63 952v174v60q0 25 7 37q11 21 38 29t54 -3q10 -4 17.5 -12.5t11.5 -17t6.5 -22t3.5 -21t1.5 -22t0.5 -17.5q8 -83 2 -176 q-3 -108 -12 -220l-23 -258l-6 -51q-1 -7 -1 -19.5t-1 -22.5t-4 -19q-5 -12 -22 -17t-32 2q-18 6 -18 37l-4 66q-11 136 -14 307z" />
<glyph unicode="&#x22;" horiz-adv-x="415" d="M-25 1190q2 31 17.5 50.5t37 22.5t43 -3.5t36 -27.5t14.5 -50q6 -59 -23 -187.5t-53 -167.5q-21 -37 -43 -29.5t-16 42.5q11 63 -1.5 187.5t-11.5 162.5zM180 1190q2 31 17.5 50.5t37 22.5t43 -3.5t36 -27.5t14.5 -50q6 -59 -23 -187.5t-53 -167.5q-21 -37 -43 -29.5 t-16 42.5q11 63 -1.5 187.5t-11.5 162.5z" />
<glyph unicode="#" horiz-adv-x="880" d="M56.5 305.5q7.5 19.5 33.5 28.5q22 9 109 16l-6 250q-80 6 -103 16q-26 9 -33.5 28.5t4 34.5t33.5 15h96q-2 59 -8 135q-6 50 19 63t54.5 -7t35.5 -51q7 -34 10 -140q62 0 168 4q6 135 18 166q9 26 28.5 33.5t34.5 -4t15 -33.5v-158q55 3 84 9q62 7 67 -32q4 -31 -28 -59 q-16 -14 -35 -18q-17 -6 -88 -10q0 -84 4 -236q66 -4 84 -8q36 -7 56 -43q20 -38 -7 -57q-18 -12 -53 -8l-78 6q3 -89 11 -140q7 -62 -32 -67q-31 -4 -59 28q-14 16 -18 35q-9 29 -12 150l-168 4q-7 -156 -17 -184q-9 -26 -28 -33.5t-34 4t-15 33.5v180h-105q-22 0 -33.5 15 t-4 34.5zM299 356q53 2 162 2q0 80 4 232q-54 0 -164 4q0 -160 -2 -238z" />
<glyph unicode="$" d="M70 -193q0 -12 6 -18q3 -7 10 -10q6 -2 18 -2q9 0 13 2q1 1 4.5 2t5.5 2l8 8q0 -4 2 -6v-6h29v4q-4 4 -4 6q-2 2 -2 12v56q0 10 -2 14q-2 5 -13 12q-12 4 -26 4q-9 0 -13 -2q-10 0 -14 -2q-10 -5 -12 -12q-6 -6 -6 -21h24q0 8 8 11q3 6 13 6q16 0 16 -17q0 -6 -10 -6 l-27 -4q-10 0 -20 -10q-8 -5 -8 -23zM96 -190q0 6 4 10q8 4 13 4l12 2q8 4 10 4v-12q0 -5 -4 -13l-10 -6h-4q-2 -4 -6 -4q-1 0 -2.5 1t-4 2.5t-4.5 2.5q-4 4 -4 9zM125 565v494l268 59l-10 37l41 12l-8 39l41 8l-6 46l41 2v41h36l4 36l39 -6l9 41l43 -6l10 39l39 -10l16 37 l39 -17l23 39l34 -18l23 35l37 -25l24 33l35 -27l27 29l26 -25l27 23l27 -29l34 23l23 -37l39 20l18 -35l37 17l17 -41l43 12l12 -39l39 10l8 -43l43 4l2 -26l404 88v-496l-185 -41l4 -2l-24 -26l24 -29l-32 -27l22 -34l-37 -23l23 -37l-35 -20l14 -37l-39 -17l13 -43 l-37 -12l6 -39l-41 -8l2 -43l-39 -4v-39h-35l-6 -37l-39 2l-8 -37l-43 6l-10 -40l-39 12l-14 -39l-44 16l-18 -39l-37 21l-22 -35l-37 23l-25 -33l-30 26l-31 -26l-27 24l-26 -24l-25 31l-35 -23l-24 37l-37 -21l-19 35l-39 -16l-18 41l-39 -13l-12 37l-41 -8l-8 43l-43 -4 l-5 41h-40v35l-35 4l4 41l-41 6l8 43l-41 12l12 37l-28 12zM186 -115v-106h27v55q0 25 27 25h8v28h-6q-13 0 -15 -2l-8 -8l-6 -10h-2v18h-25zM236 76v16q0 2 2 7t2 7q3 14 14 25q4 6 22 19q15 6 33 6h6q2 0 8 -1t9 -1q7 0 14 -7q15 -9 21 -18q4 -4 8 -12l2 -11h-33q0 5 -4 9 l-10 10q-6 4 -19 4h-14l-14 -12q-11 -5 -11 -15q-4 -8 -4 -28q0 -9 4 -29q2 -9 13 -14q16 -8 20 -8h4q13 0 19 4q4 0 12 8q8 16 8 20h-37v27h66v-84h-21l-4 20q-6 -8 -14 -14q-2 -2 -19 -8q-3 0 -9 -1t-9 -1q-13 0 -25 6q-14 7 -20 16q-7 6 -16 27q-4 10 -4 33zM236 702h10 l8 5l10 10l8 10l11 10q5 10 8 13l63 86l19 30l20 31q10 12 21 31l16 33q2 4 0 6t-4 2q-8 0 -10 -2l-8 -4l-33 -41q-7 -7 -15 -19l-16 -20l-55 -80l-27 -41l-22 -43l-4 -6v-11zM262 -78v-24h29v24h-29zM262 -115v-106h29v106h-29zM276 889q0 -1 11 -12l18 -7q15 0 23 2 q4 0 4 2l2 5q0 2 -2 2h-4q-4 0 -4 -2q-15 -3 -29 2q-8 4 -10 8q0 2 -1 5t-1 5q0 6 2 12l6 15l16 18q3 3 6.5 5.5t8.5 6t8 5.5q3 1 10.5 6.5t13.5 7.5l25 12q9 0 29 8l28 4q20 5 27 5q2 0 22 -5q12 0 15 -6l10 -12v-16q0 -13 -2 -21l-10 -18q-2 -5 -8 -12.5t-7 -8.5 q-3 -4 -6 -7t-7 -6.5t-7 -6.5q-4 -7 -21 -19l-22 -14l-25 -10l-14 -6q-1 0 -5.5 -1t-6.5 -1h-4q-4 0 -7 -3q-2 0 -2 -2q-4 0 -4 -4q0 -2 2 -2h4q5 0 7 2h4l26 9l27 12l27 10l26 16l23 17l20 18l17 21q11 17 12 20q4 12 4 19q3 10 0 18l-6 14l-15 11q-16 4 -20 4q-8 2 -23 2 q-8 0 -24 -4q-14 0 -57 -13q-31 -8 -54 -22q-22 -11 -26 -14q-20 -15 -23 -19l-18 -18l-9 -21q-3 -10 0 -16zM317 -115v-106h27v61q0 5 4 17q8 8 17 8q12 0 16 -8q2 -2 2 -15v-63h29v71q0 13 -4 21q-6 8 -13 12q-12 4 -20 4q-21 0 -33 -18v16h-25zM395 57q0 21 6 29 q3 13 17 20q11 9 33 9t28 -9q13 -6 19 -22q4 -10 4 -31v-8h-78q0 -6 8 -18q7 -7 19 -7q3 0 7 1.5t5 1.5q8 8 8 10h31l-10 -21l-17 -12q-20 -4 -24 -4q-56 0 -56 61zM428 68h45q-4 12 -8 16q-8 8 -14 8q-23 0 -23 -24zM430 -166q0 -15 8 -31q5 -12 17 -20q16 -4 22 -4 q18 0 29 14v-18q0 -1 -1 -3t-1 -3q0 -4 -8 -9q-2 -2 -15 -2q-10 0 -12 2l-6 9h-27q0 -7 2 -11q0 -4 4 -8q11 -7 19 -10q3 0 9 -1t9 -1q21 0 33 6q10 5 16 14q4 16 4 27v100h-24l-2 -16q-1 3 -12 14q-12 4 -19 4q-16 0 -24 -8q-10 -6 -15 -20q-6 -24 -6 -25zM461 -168 q0 17 6 23q7 10 14 10t17 -10q8 -8 8 -23q0 -13 -7 -21t-18 -8q-4 0 -12 4q-6 6 -6 11q-2 6 -2 14zM498 717q20 0 20 -15v-49q0 -9 10 -22l17 -4q4 -2 18 -2q13 0 25 4q8 4 10 6q8 5 8 18q-3 -9 -10 -16l-12 -8h-15q-12 0 -18 2q-2 0 -10 8q-4 4 -4 14v49q0 11 4 11 q4 4 14 4h6v4h-63v-4zM510 92v21h16v28h31v-28h16v-21h-16v-61q0 -8 2 -8q4 -3 10 -3l2 3h2v-25h-16q-14 0 -20 4q-6 0 -9 8q-2 2 -2 13v69h-16zM510 821q3 -8 10 -12q9 -9 23 -6q14 0 26 6q13 2 33 14t31 23l24 20l15 15q0 2 4 6l2 4l4 6l16 16l15 21q5 3 10.5 10.5 t7.5 9.5l6 -2l4 -6l2 -6q0 -1 -1 -2.5t-2.5 -3.5t-2.5 -4l-16 -17l-14 -20l-13 -19l-4 -18q-2 -2 -2 -8v-6l4 -8h8q11 0 17 2l16 10q2 2 10 7.5t11 10.5q4 2 10 8.5t8 8.5l8 12l8 10l5 4l4 6q4 4 4 5l12 16l21 31q0 -3 1 -8t1 -7q4 -12 4 -14l4 -8q-15 -3 -25 -13l-20 -14 q-1 -1 -6.5 -7.5t-6.5 -10.5q-2 -6 -2 -17q0 -6 11 -10h18q13 0 25 8q15 7 22 17q2 1 17 16l8 18q6 9 6 19v16q0 7 -4 15l-6 16l-7 6q0 4 -4 8l-2 4v11h-8l-4 -4l-12 -9l-4 -12l-2 -2l-4 -6l-33 -45l-4 -6l-6 -11h-3v-2l-4 -2l-4 -8l-6 -8l-14 -18l-23 -21l-12 -6 q-4 -4 -12 -4v2l8 10l6 10l8 11l6 8l9 14l10 14l4 15q2 6 2 14q-2 2 -2 8l-2 4q0 5 -2 7v22l6 10q4 8 -4 13q-3 7 -17 0q-9 -2 -16 -9q-5 -3 -10 -12q-4 -4 -4 -10q0 -8 2 -12l4 -2q0 -1 4 -5l-12 -12l-23 -31l-20 -22q-4 0 -4 -4v-2l-2 -2l-2 -2l-11 -15q-26 -21 -28 -22 q-13 -13 -33 -23l-21 -8q-12 -4 -18 -2q-6 0 -6 4q-2 2 -2 6q0 3 4 11l2 8l10 16q4 -2 12 -2h19q10 3 26 12q4 1 7.5 3t8.5 6t9 6l14 16q1 2 4 5t5 5.5t2 5.5l8 13q0 12 -4 14q-4 8 -8 10h-19q-12 0 -18 -4l-21 -8q-26 -13 -45 -29q-21 -17 -29 -34q-3 -3 -12 -21 q-6 -8 -8 -18v-17zM545 -115v-20h14v-64q0 -10 2 -12q0 -3 10 -8q4 -2 17 -2h16v22h-2l-4 -2l-8 2q-2 2 -2 9v55h16v20h-16v27h-29v-27h-14zM567 870l15 23l18 20l6 9l10 8l11 10l12 4q8 3 14 0v-10l-6 -8q-6 -6 -6 -11l-10 -10q0 -2 -8 -10q-7 -7 -9 -8l-10 -8l-12 -9 q-6 -2 -12 -2q-11 0 -13 2zM580 717h10l4 -2q12 -3 12 -23v15l10 8q2 0 2 2h9v4h-47v-4zM610 -115l2 -8l37 -102q0 -4 -2 -6v-5q-4 -4 -6 -4h-16v-22h14q3 0 7.5 1t6.5 1q5 0 11 6l6 12l8 23l2 2l35 102h-31l-20 -78l-21 78h-33zM639 694q0 -2 4 -10q0 -6 6 -6l13 -6 q2 -2 20 -6l8 -2q10 -5 12 -5q5 0 9 -4l2 -2q6 -3 6 -10l-4 -8q-2 -4 -8 -6h-11q-10 0 -16 2l-16 6l-11 10q-10 10 -10 21h-2v-43h2q0 6 4 6q4 4 8 4q1 0 3 -1t4 -1q1 0 3 -1t3 -1l14 -4q4 -2 14 -2q5 0 17 4q3 0 12 6q1 1 2.5 4t3.5 4v21l-6 6q-2 5 -12 8l-17 6h-10l-2 2 q-2 1 -5.5 1.5t-5.5 1t-3 1.5q-6 0 -8 2q-3 0 -7 4l-2 6v9l4 4q1 0 9 4q1 0 4.5 1t5.5 1q6 0 14 -4q8 0 12 -4q9 -5 11 -8q2 -1 3.5 -4t3 -7t3.5 -6h2v31h-2q-2 -6 -8 -6h-8q-17 10 -31 10q-9 0 -21 -4l-12 -8q-4 -12 -4 -17zM641 92v21h14v8q0 33 35 33h15v-25h-15 q-4 0 -4 -4v-12h19v-21h-19v-94h-31v94h-14zM723 37v76h29v-70q0 -20 20 -20h10l11 10q0 1 2 5.5t2 6.5v68h26v-115h-26v16q-5 -7 -15 -12q-12 -6 -20 -6q-22 0 -29 12q-10 7 -10 29zM731 -115v-145h27v51q2 -2 2 -4q4 0 6 -2l8 -6q4 -2 14 -2q14 0 25 8q8 5 12 22 q6 12 6 13q0 2 1.5 6t1.5 6q0 12 -7 23q-3 13 -10 20q-4 4 -12 8q-6 4 -17 4q-6 0 -8 -2l-8 -6l-8 -8q-6 -2 -8 -2v16h-25zM741 627h103v39l-6 -13l-11 -14q-6 -6 -8 -6l-10 -2q-4 -2 -12 -2h-15v41h2q10 0 19 -6l4 -7q0 -1 1 -3t1 -3v-8h2v59h-2v-8l-4 -10q-10 -10 -19 -10 h-4v43h17q16 0 22 -2l8 -6l5 -11l6 -14h4v37h-103v-4h4q9 0 11 -4q6 0 6 -11v-57q0 -16 -17 -16h-4v-2zM756 -170q0 15 7 25t17 10q9 0 19 -10q4 -12 4 -23q0 -10 -4 -22q-6 -9 -19 -9q-10 0 -16 9q-8 5 -8 20zM793 868v9l4 10l6 8q8 10 18 18l23 11q0 -2 1 -6t1 -5 q-2 -4 -2 -8v-12l-4 -8l-9 -11l-8 -6q-1 0 -3.5 -1t-4.5 -1q-2 -2 -8 -2q-4 -4 -8 0q-2 0 -6 4zM844 -166q0 -57 49 -57q10 0 22 4q4 1 17 10q4 4 8 21h-27l-6 -9q-8 -4 -14 -4q-10 0 -16 6q-7 7 -7 19h72v6q0 11 -4 27q-6 15 -16 22q-8 8 -31 8q-16 0 -27 -8 q-10 -5 -16 -20q-4 -8 -4 -25zM852 -2v156h29v-156h-29zM870 -158q3 23 21 23q4 0 16 -6q6 -6 6 -17h-43zM903 -2v156h29v-156h-29zM905 674q0 -15 4 -21q1 -1 5 -6.5t8 -7.5q6 -6 18 -10q16 -4 23 -4q17 0 26 6q8 3 23 18q6 9 6 25q0 10 -4 16q-4 13 -10 17q-4 6 -19 10 q-12 6 -22 6q-21 0 -29 -8q-11 -2 -21 -17q-8 -11 -8 -24zM915 901q0 -8 5 -8l10 -8h10h12q6 1 15 4l12 4l27 14l22 21l19 16l14 21l10 16l6 18q4 11 0 15q0 7 -6 10q0 5 -10 8q-1 0 -6 1t-8 1q-7 0 -19 -4l-12 -4l-12 -4l-25 -16l-23 -19l-16 -18l-12 -19q-11 -19 -13 -26 v-23zM928 674q0 2 1 7.5t1 8.5l6 12l6 11q1 1 4.5 2t5.5 2q4 4 13 4q2 -2 6 -2l6 -4l10 -8q0 -2 2.5 -7.5t3.5 -9.5l1 -6q1 -6 1 -10q0 -13 -4 -25l-12 -18q-4 -2 -16 -2q-11 0 -13 2q-9 0 -12 10l-6 12q-4 12 -4 21zM940 895v12q4 15 10 21l15 22l10 13l24 30l19 19l8 8 l10 4q4 2 11 2q2 0 4 -2t2 -8q0 -2 -4 -10l-5 -9l-6 -10l-6 -10l-20 -31l-17 -18l-20 -21q0 -3 -10 -6q-2 -4 -13 -8h-8q-4 0 -4 2zM948 -115v-20h17v-86h26v86h19v20h-19v4l2 9q0 2 2 2h13v22h-13q-30 0 -30 -28v-9h-17zM1010 92v21h14v8q0 33 35 33h12v-25h-12q-2 0 -4 -4 v-12h20v-21h-20v-94h-31v94h-14zM1018 -193q0 -10 4 -18l14 -10q6 -2 15 -2q10 0 14 2q1 1 4.5 2t5.5 2l8 8v-6q0 -1 1 -2t1 -2v-2h31v4q-4 4 -4 6q-2 2 -2 12v56q0 10 -2 14q-3 6 -12 12q-16 4 -29 4q-10 0 -14 -2q-7 0 -11 -2q-8 -3 -14 -12q-6 -6 -6 -21h27q0 8 6 11 q3 6 12 6q14 0 14 -17q0 -6 -8 -6l-24 -4q-11 0 -21 -10q-10 -5 -10 -23zM1032 627h49v2q-6 0 -10 2h-8l-4 10q-2 2 -2 12v56l80 -82h4v65q0 9 4 21q4 4 16 4v4h-47v-4h8q0 -2 4 -2q7 -3 7 -8q4 -4 4 -15v-39l-66 68h-37v-4q8 0 10 -2q1 0 3.5 -1t3.5 -1q2 -4 2 -11v-53 q0 -6 -2 -10l-7 -8q-2 0 -6.5 -1t-5.5 -1v-2zM1047 -190q0 6 4 10t8 4l14 2l8 4v-12q0 -9 -2 -13l-10 -6h-4q-2 -4 -6 -4q-2 0 -8 6q-4 4 -4 9zM1051 905q1 0 3 -1t3 -1q4 0 8 2l8 4q0 2 4 6q1 0 2 1.5t2 1.5l4 6q0 4 5 4l16 22l20 21l17 20l22 21l29 28l10 9l10 8l13 4 q2 0 2 -2h-2l-4 -4q-2 -5 -9 -8l-4 -7l-12 -14q-3 -2 -7 -7.5t-5 -6.5l-15 -23l-14 -20l-6 -19q-3 -10 0 -16t8 -6h19q3 1 10 5.5t12 6.5l19 14l22 23q-2 -2 -2 -6q0 -7 4 -15q2 -4 10 -8q6 -2 21 2q10 2 24 13l21 14l14 14l13 13v-5q0 -1 -1.5 -3t-1.5 -3v-6q-3 -7 0 -10 q0 -1 1.5 -3t1.5 -3q0 -6 6 -6h16l6 4l8 6l13 6l32 27l17 16l-4 -12q-4 -6 -4 -19v-6l4 -2q0 -2 6 -2q4 0 8 4q9 0 12 6l11 6l12 13q2 0 10 8q3 2 19 18l18 21v4q0 2 -2 2q-4 0 -8 -4l-2 -4l-13 -15l-10 -12q-9 -6 -12 -12l-14 -12l-9 -7l-8 -2q-2 0 -2 -2q-2 0 -4 2h2l8 15 q4 8 8 12l7 12q3 2 8 11l63 92q12 11 13 16l16 16l37 43q13 13 33 41l10 19v8q-2 2 -8 2q-3 0 -11 -4l-12 -6q-4 0 -10 -6l-8 -6l-23 -19l-16 -18q-7 -7 -19 -23q-1 -2 -14 -20l-27 -41l-26 -45l-19 -33l-8 -16h-2l-14 -15q-1 -2 -19 -20l-18 -17l-10 -8l-7 -4q-2 -2 -4 -2 l-4 -4h-10l12 20l2 4q12 20 19 27l16 29l15 20l8 13l6 10l2 2q0 2 2 2q0 1 1 2t1 2q6 3 4 8q0 2 -6 2l-10 -4l-10 -6l-19 -12l-14 -13q0 7 -2 11q0 3 -6 6q-12 3 -21 0q-16 -4 -22 -8l-25 -13l-18 -16q-26 -19 -37 -39q-14 -17 -21 -37h-4l-16 -18q-22 -17 -23 -17 q-2 -5 -12 -8q-4 -4 -10 -4h-2q-2 2 0 4l6 8l6 11l12 14l21 27q15 19 18 28l8 17q4 11 2 16q0 6 -2 6q0 4 -6 4t-8 -2l-12 -4l-13 -8l-10 -8l-10 -9q-8 -8 -12 -8l-21 -22q-16 -16 -18 -19l-11 -12l-10 -10l2 4l25 35l26 37q0 1 1.5 2t1.5 2q2 2 2 4q2 2 2 6l-7 6q-1 0 -3 1 t-3 1t-4.5 -1t-5.5 -1l-10 -6l-4 -4q-2 -1 -3.5 -4t-2.5 -4l-5 -7l-77 -133zM1083 55q0 7 4 23q2 9 11 18q12 12 20 15q6 4 25 4q16 0 24 -4q1 -1 8 -4t9 -7q4 -4 12 -20q4 -12 4 -25q0 -17 -8 -30q-2 -9 -18 -21q-11 -8 -31 -8q-22 0 -35 8q-2 1 -18 23q-7 14 -7 28z M1114 55q0 -10 6 -22q4 -10 23 -10q16 0 20 10q6 6 6 22t-6 25q-7 10 -20 10q-16 0 -23 -10q-6 -18 -6 -25zM1128 -170q0 -10 5 -25q4 -13 10 -16q12 -12 35 -12q12 0 24 6q4 1 15 12q6 12 6 23h-27q0 -10 -6 -13q-4 -4 -12 -4q-9 0 -13 4l-8 11q0 2 -1 8t-1 10q0 16 8 21 q7 10 17 10q6 0 12 -6q4 -8 4 -13h31q0 3 -10 23q-7 11 -17 14q-12 4 -22 4q-26 0 -39 -16q-11 -26 -11 -41zM1167 627h107v41h-2q-2 -2 -4 -8l-2 -5q-4 -4 -4 -8l-5 -6q-8 -8 -12 -10q-1 0 -6 -1t-8 -1h-25v73q0 11 6 11q2 4 13 4h6v4h-64v-4h4q17 0 17 -15v-57 q0 -16 -17 -16h-4v-2zM1221 -2v115h28v-17q13 19 35 19q15 0 21 -4l14 -13q4 -12 4 -20v-80h-29v70q0 8 -4 16q-6 6 -16 6q-14 0 -19 -8q-4 -4 -4 -19v-65h-30zM1237 -166q0 -57 49 -57q11 0 23 4q6 2 14 10q6 4 10 21h-26l-7 -9q-8 -4 -14 -4q-10 0 -16 6t-6 19h71v6 q0 15 -6 27q-3 17 -14 22q-8 8 -29 8q-18 0 -29 -8q-10 -5 -16 -20q-4 -16 -4 -25zM1264 -158q3 23 20 23q4 0 16 -6q7 -7 7 -17h-43zM1266 963q0 2 2 2q0 2 2 4l6 10l8 10l6 12l8 11l19 24l26 33l7 8l16 13q2 2 8 2q4 2 8 2l7 -4q0 -1 1 -3.5t1 -3.5q0 -4 -2 -8q0 -1 -5 -6 l-16 -22l-12 -23l-17 -14l-16 -19l-10 -8l-13 -10l-10 -8q-2 0 -5 -2t-5 -2q-8 -4 -10 -3h-2q-2 2 -2 5zM1268 717h2q10 0 14 -2q7 -7 8 -10l29 -39v-21q0 -10 -2 -12q-8 -4 -14 -4h-7v-2h68v2h-8q-8 0 -12 4q-5 5 -5 12v23l25 34l4 7q8 4 10 4q0 2 4 2l9 2v4h-47v-4h6 q8 0 10 -2q4 -2 4 -6q0 -5 -6 -11l-19 -26l-24 30q-4 8 -4 9v2q0 2 2 2q0 2 6 2h8v4h-61v-4zM1337 92v21h19v28h26v-28h21v-21h-21v-61l2 -8q2 0 5.5 -1.5t5.5 -1.5l4 3h4v-25h-21q-14 0 -16 4q-7 0 -10 8v82h-19zM1352 -190v-31h30v31h-30zM1401 -170q0 -13 4 -25 q4 -13 10 -16q15 -12 35 -12q16 0 25 6q6 2 16 12q5 9 8 23h-31q0 -10 -6 -13q-2 -4 -12 -4q-8 0 -10 4q-3 2 -8 11q0 2 -1 8t-1 10q0 15 6 21q7 10 16 10q6 0 12 -6l6 -13h29q0 12 -8 23q-12 12 -18 14q-12 4 -23 4q-26 0 -39 -16q-10 -23 -10 -41zM1473 31q0 16 8 24 q20 10 24 11l27 4q10 0 10 8q0 14 -18 14q-9 0 -13 -4q-5 -3 -8 -14h-26q0 15 6 24q5 8 16 13q4 4 12 4h13q24 0 32 -4q12 -12 13 -15q2 -4 2 -14v-72q0 -6 8 -6v-6h-33l-2 4v2q0 2 -1 4.5t-1 3.5l-8 -8l-10 -6q-4 0 -9 -1t-8 -1t-8 1t-8 1q-1 1 -6.5 5t-7.5 7q-4 8 -4 21z M1501 31q0 -8 4 -8q5 -5 11 -5h8l4 2q9 4 10 7q4 8 4 14v14q-6 -6 -12 -6l-14 -4q-7 0 -11 -4q-4 -2 -4 -10zM1511 -168q0 -7 5 -27q6 -14 18 -20q11 -8 31 -8q16 0 28 6q14 7 17 20q6 12 6 29t-2 23q-2 2 -5 9t-5 9q-13 9 -17 10q-12 4 -22 4q-13 0 -25 -4q-10 -3 -16 -12 q-8 -7 -11 -18q-2 -8 -2 -21zM1538 -168q0 14 6 23q3 10 21 10q15 0 18 -10q6 -9 6 -23q0 -13 -6 -22q-3 -9 -18 -9q-18 0 -21 9q-6 9 -6 22zM1567 1167l28 37l13 23l26 35q0 2 2 2q0 4 4 4l2 2q0 -8 -2 -10l-8 -11l-6 -10l-6 -8l-16 -21l-19 -20l-10 -12q-5 -9 -8 -11z M1585 92v21h14v28h33v-28h19v-21h-19v-69q1 0 4.5 -1.5t5.5 -1.5l5 3h4v-25h-19q-14 0 -20 4q-5 0 -8 8q0 1 -2.5 6t-2.5 7v69h-14zM1636 -115v-106h27v63q0 23 16 23q11 0 15 -4t4 -8v-74h26v63q0 23 19 23q16 0 16 -23v-63h27v71q0 11 -4 19q-2 6 -10 14q-12 4 -23 4 q-8 0 -16 -4t-11 -12q-6 9 -12 12q-8 4 -16 4q-22 0 -31 -18v16h-27z" />
<glyph unicode="%" horiz-adv-x="862" d="M-12 887q2 74 29.5 141.5t84.5 97.5q47 27 107 19.5t96 -45.5q80 -77 80 -232q0 -181 -100 -252q-52 -34 -119.5 -26.5t-108.5 53.5q-76 91 -69 244zM16 16q14 34 260 473t318 605q15 35 35.5 45t36.5 -1t26 -33.5t6 -45.5q-43 -131 -188 -390t-271 -457.5t-151 -225.5 q-29 -32 -56 -17.5t-16 47.5zM139 831q0 -35 1 -59.5t5.5 -55.5t15 -47.5t27.5 -17.5q13 0 22 8.5t14.5 27t9 35.5t5 46t1.5 44.5v43.5v12v24.5v28v29t-1.5 30.5t-3 28t-4.5 26.5t-7 21.5t-10 17.5t-13 9.5q-23 10 -39 -16q-21 -33 -21 -111q-2 -43 -2 -125zM373 281 q2 74 29.5 141.5t84.5 97.5q47 27 107 19.5t96 -45.5q80 -77 80 -232q0 -181 -100 -252q-52 -34 -119.5 -26.5t-108.5 53.5q-76 91 -69 244zM524 225q0 -35 1 -59.5t5.5 -55.5t15 -47.5t27.5 -17.5q13 0 22 8.5t14.5 27t9 35.5t5 46t1.5 44.5v43.5v12v24.5v28v29t-1.5 30.5 t-3 28t-4.5 26.5t-7 21.5t-10 17.5t-13 9.5q-23 10 -39 -16q-21 -33 -21 -111q-2 -43 -2 -125z" />
<glyph unicode="&#x26;" horiz-adv-x="903" d="M0 301q0 107 61.5 196t161.5 126q-18 8 -41 24q-71 56 -110 141q-42 93 -21.5 203.5t99.5 177.5q67 57 170 77.5t190 -1.5q98 -23 161 -104.5t62 -184.5q-3 -103 -69 -178q-34 -39 -82.5 -58.5t-92.5 -2.5q-24 8 -25.5 33t13.5 43t46.5 45.5t43.5 40.5q45 50 49.5 120 t-34.5 125q-65 86 -203 64q-64 -9 -112 -47.5t-66 -98.5q-37 -117 14 -262q21 -65 66 -102q25 -21 51 -27q4 -1 17 -1.5t20 -2.5q12 -1 19 -12t5 -23q-3 -12 -13 -19t-22 -5q-12 0 -16 2q-68 0 -125 -68q-48 -58 -67 -168q-11 -47 -7 -97t18.5 -92.5t48.5 -77.5t83 -52 q75 -28 157 -5t125 91q63 112 57 240.5t-61 185.5q-80 7 -98 16q-22 8 -28.5 25t3.5 30t29 13q173 -4 305 14q54 6 57 -29q2 -29 -27 -52q-14 -10 -28 -13q-51 -13 -143 -10q33 -17 61 -56q71 -92 61.5 -205t-104.5 -208q-71 -71 -187 -98t-218 -1q-115 28 -184.5 118.5 t-69.5 209.5z" />
<glyph unicode="'" horiz-adv-x="190" d="M-4 1190q2 31 17.5 50.5t37 22.5t42.5 -3.5t35.5 -27.5t14.5 -50q6 -59 -22.5 -188t-52.5 -167q-21 -37 -43.5 -29.5t-16.5 42.5q11 63 -1 187.5t-11 162.5z" />
<glyph unicode="(" horiz-adv-x="446" d="M0 541q0 248 70 442q39 97 90 170q22 33 50.5 36t36.5 -21.5t-14 -67.5q-58 -125 -71 -266q-32 -409 12 -687q15 -103 84 -202q34 -47 15 -77q-15 -25 -46 -8q-11 6 -22 17q-57 64 -82 109q-123 220 -123 555z" />
<glyph unicode=")" horiz-adv-x="409" d="M44 -87q6 16 17 32q69 99 84 202q44 282 13 687q-13 138 -72 266q-22 43 -13.5 67.5t37 21.5t50.5 -36q51 -73 90 -170q69 -191 69 -442q0 -337 -122 -555q-25 -45 -82 -109q-32 -35 -59 -19q-25 15 -12 55z" />
<glyph unicode="*" horiz-adv-x="729" d="M60.5 792.5q-7.5 19.5 4 34.5t33.5 15q56 -3 138 0q-15 16 -40.5 40.5t-27.5 26.5q-20 20 -25 39.5t4 31.5t23 19t32 5t31 -13q33 -23 99 -106q61 75 92 96q22 18 52.5 11t37.5 -31.5t-25 -61.5l-53 -51q60 3 113 10q63 7 67 -32q4 -31 -28 -58q-17 -14 -35 -18 q-38 -10 -111 -13q40 -60 47 -80q15 -41 -9 -61q-19 -17 -39 5q-2 1 -3 3q-50 65 -106 129q-86 -102 -115 -139q-19 -25 -40 -9q-24 18 -12 57l1 3q7 21 59 98q-108 11 -131 21q-26 9 -33.5 28.5z" />
<glyph unicode="+" horiz-adv-x="757" d="M60.5 470.5q-7.5 19.5 4 34.5t33.5 15q72 -3 183 0q7 140 24 187q9 26 28.5 33t34.5 -4.5t15 -33.5q-3 -74 0 -178q97 3 166 13q62 7 67 -32q4 -31 -28 -59q-16 -14 -35 -18q-46 -12 -166 -12q3 -90 12 -144q7 -63 -32 -67q-31 -4 -58 28q-14 16 -18 35q-12 43 -12 152 q-148 7 -185 22q-26 9 -33.5 28.5z" />
<glyph unicode="," horiz-adv-x="286" d="M57 162q2 31 17.5 50.5t37 22.5t43 -3.5t36 -27.5t14.5 -50q6 -59 -23 -187.5t-53 -167.5q-21 -37 -43 -29.5t-16 42.5q11 63 -1.5 187.5t-11.5 162.5z" />
<glyph unicode="-" horiz-adv-x="555" d="M-41.5 470.5q-7.5 19.5 4 34.5t33.5 15q201 -4 354 17q62 7 67 -32q4 -31 -28 -59q-16 -14 -35 -18q-62 -16 -190.5 -10t-171.5 24q-26 9 -33.5 28.5z" />
<glyph unicode="." horiz-adv-x="276" d="M39 94l4 12q5 21 17.5 36t28.5 20.5t34 5.5t34 -7.5t28.5 -19.5t17.5 -31t0 -40l-4 -13q-6 -29 -28.5 -46t-51.5 -17q-38 0 -63 31t-17 69z" />
<glyph unicode="/" horiz-adv-x="641" d="M16 16q3 7 119.5 256.5t230 519t158.5 435.5q13 49 41 52t48.5 -26.5t15.5 -60.5q-37 -159 -122.5 -373t-173 -388t-157.5 -300t-88 -145q-29 -32 -56 -17.5t-16 47.5z" />
<glyph unicode="0" d="M70 -193q0 -12 6 -18q3 -7 10 -10q6 -2 18 -2q9 0 13 2q1 1 4.5 2t5.5 2l8 8q0 -4 2 -6v-6h29v4q-4 4 -4 6q-2 2 -2 12v56q0 10 -2 14q-2 5 -13 12q-12 4 -26 4q-9 0 -13 -2q-10 0 -14 -2q-10 -5 -12 -12q-6 -6 -6 -21h24q0 8 8 11q3 6 13 6q16 0 16 -17q0 -6 -10 -6 l-27 -4q-10 0 -20 -10q-8 -5 -8 -23zM96 -190q0 6 4 10q8 4 13 4l12 2q8 4 10 4v-12q0 -5 -4 -13l-10 -6h-4q-2 -4 -6 -4q-1 0 -2.5 1t-4 2.5t-4.5 2.5q-4 4 -4 9zM125 565v494l268 59l-10 37l41 12l-8 39l41 8l-6 46l41 2v41h36l4 36l39 -6l9 41l43 -6l10 39l39 -10l16 37 l39 -17l23 39l34 -18l23 35l37 -25l24 33l35 -27l27 29l26 -25l27 23l27 -29l34 23l23 -37l39 20l18 -35l37 17l17 -41l43 12l12 -39l39 10l8 -43l43 4l2 -26l404 88v-496l-185 -41l4 -2l-24 -26l24 -29l-32 -27l22 -34l-37 -23l23 -37l-35 -20l14 -37l-39 -17l13 -43 l-37 -12l6 -39l-41 -8l2 -43l-39 -4v-39h-35l-6 -37l-39 2l-8 -37l-43 6l-10 -40l-39 12l-14 -39l-44 16l-18 -39l-37 21l-22 -35l-37 23l-25 -33l-30 26l-31 -26l-27 24l-26 -24l-25 31l-35 -23l-24 37l-37 -21l-19 35l-39 -16l-18 41l-39 -13l-12 37l-41 -8l-8 43l-43 -4 l-5 41h-40v35l-35 4l4 41l-41 6l8 43l-41 12l12 37l-28 12zM186 -115v-106h27v55q0 25 27 25h8v28h-6q-13 0 -15 -2l-8 -8l-6 -10h-2v18h-25zM236 76v16q0 2 2 7t2 7q3 14 14 25q4 6 22 19q15 6 33 6h6q2 0 8 -1t9 -1q7 0 14 -7q15 -9 21 -18q4 -4 8 -12l2 -11h-33q0 5 -4 9 l-10 10q-6 4 -19 4h-14l-14 -12q-11 -5 -11 -15q-4 -8 -4 -28q0 -9 4 -29q2 -9 13 -14q16 -8 20 -8h4q13 0 19 4q4 0 12 8q8 16 8 20h-37v27h66v-84h-21l-4 20q-6 -8 -14 -14q-2 -2 -19 -8q-3 0 -9 -1t-9 -1q-13 0 -25 6q-14 7 -20 16q-7 6 -16 27q-4 10 -4 33zM236 702h10 l8 5l10 10l8 10l11 10q5 10 8 13l63 86l19 30l20 31q10 12 21 31l16 33q2 4 0 6t-4 2q-8 0 -10 -2l-8 -4l-33 -41q-7 -7 -15 -19l-16 -20l-55 -80l-27 -41l-22 -43l-4 -6v-11zM262 -78v-24h29v24h-29zM262 -115v-106h29v106h-29zM276 889q0 -1 11 -12l18 -7q15 0 23 2 q4 0 4 2l2 5q0 2 -2 2h-4q-4 0 -4 -2q-15 -3 -29 2q-8 4 -10 8q0 2 -1 5t-1 5q0 6 2 12l6 15l16 18q3 3 6.5 5.5t8.5 6t8 5.5q3 1 10.5 6.5t13.5 7.5l25 12q9 0 29 8l28 4q20 5 27 5q2 0 22 -5q12 0 15 -6l10 -12v-16q0 -13 -2 -21l-10 -18q-2 -5 -8 -12.5t-7 -8.5 q-3 -4 -6 -7t-7 -6.5t-7 -6.5q-4 -7 -21 -19l-22 -14l-25 -10l-14 -6q-1 0 -5.5 -1t-6.5 -1h-4q-4 0 -7 -3q-2 0 -2 -2q-4 0 -4 -4q0 -2 2 -2h4q5 0 7 2h4l26 9l27 12l27 10l26 16l23 17l20 18l17 21q11 17 12 20q4 12 4 19q3 10 0 18l-6 14l-15 11q-16 4 -20 4q-8 2 -23 2 q-8 0 -24 -4q-14 0 -57 -13q-31 -8 -54 -22q-22 -11 -26 -14q-20 -15 -23 -19l-18 -18l-9 -21q-3 -10 0 -16zM317 -115v-106h27v61q0 5 4 17q8 8 17 8q12 0 16 -8q2 -2 2 -15v-63h29v71q0 13 -4 21q-6 8 -13 12q-12 4 -20 4q-21 0 -33 -18v16h-25zM395 57q0 21 6 29 q3 13 17 20q11 9 33 9t28 -9q13 -6 19 -22q4 -10 4 -31v-8h-78q0 -6 8 -18q7 -7 19 -7q3 0 7 1.5t5 1.5q8 8 8 10h31l-10 -21l-17 -12q-20 -4 -24 -4q-56 0 -56 61zM428 68h45q-4 12 -8 16q-8 8 -14 8q-23 0 -23 -24zM430 -166q0 -15 8 -31q5 -12 17 -20q16 -4 22 -4 q18 0 29 14v-18q0 -1 -1 -3t-1 -3q0 -4 -8 -9q-2 -2 -15 -2q-10 0 -12 2l-6 9h-27q0 -7 2 -11q0 -4 4 -8q11 -7 19 -10q3 0 9 -1t9 -1q21 0 33 6q10 5 16 14q4 16 4 27v100h-24l-2 -16q-1 3 -12 14q-12 4 -19 4q-16 0 -24 -8q-10 -6 -15 -20q-6 -24 -6 -25zM461 -168 q0 17 6 23q7 10 14 10t17 -10q8 -8 8 -23q0 -13 -7 -21t-18 -8q-4 0 -12 4q-6 6 -6 11q-2 6 -2 14zM498 717q20 0 20 -15v-49q0 -9 10 -22l17 -4q4 -2 18 -2q13 0 25 4q8 4 10 6q8 5 8 18q-3 -9 -10 -16l-12 -8h-15q-12 0 -18 2q-2 0 -10 8q-4 4 -4 14v49q0 11 4 11 q4 4 14 4h6v4h-63v-4zM510 92v21h16v28h31v-28h16v-21h-16v-61q0 -8 2 -8q4 -3 10 -3l2 3h2v-25h-16q-14 0 -20 4q-6 0 -9 8q-2 2 -2 13v69h-16zM510 821q3 -8 10 -12q9 -9 23 -6q14 0 26 6q13 2 33 14t31 23l24 20l15 15q0 2 4 6l2 4l4 6l16 16l15 21q5 3 10.5 10.5 t7.5 9.5l6 -2l4 -6l2 -6q0 -1 -1 -2.5t-2.5 -3.5t-2.5 -4l-16 -17l-14 -20l-13 -19l-4 -18q-2 -2 -2 -8v-6l4 -8h8q11 0 17 2l16 10q2 2 10 7.5t11 10.5q4 2 10 8.5t8 8.5l8 12l8 10l5 4l4 6q4 4 4 5l12 16l21 31q0 -3 1 -8t1 -7q4 -12 4 -14l4 -8q-15 -3 -25 -13l-20 -14 q-1 -1 -6.5 -7.5t-6.5 -10.5q-2 -6 -2 -17q0 -6 11 -10h18q13 0 25 8q15 7 22 17q2 1 17 16l8 18q6 9 6 19v16q0 7 -4 15l-6 16l-7 6q0 4 -4 8l-2 4v11h-8l-4 -4l-12 -9l-4 -12l-2 -2l-4 -6l-33 -45l-4 -6l-6 -11h-3v-2l-4 -2l-4 -8l-6 -8l-14 -18l-23 -21l-12 -6 q-4 -4 -12 -4v2l8 10l6 10l8 11l6 8l9 14l10 14l4 15q2 6 2 14q-2 2 -2 8l-2 4q0 5 -2 7v22l6 10q4 8 -4 13q-3 7 -17 0q-9 -2 -16 -9q-5 -3 -10 -12q-4 -4 -4 -10q0 -8 2 -12l4 -2q0 -1 4 -5l-12 -12l-23 -31l-20 -22q-4 0 -4 -4v-2l-2 -2l-2 -2l-11 -15q-26 -21 -28 -22 q-13 -13 -33 -23l-21 -8q-12 -4 -18 -2q-6 0 -6 4q-2 2 -2 6q0 3 4 11l2 8l10 16q4 -2 12 -2h19q10 3 26 12q4 1 7.5 3t8.5 6t9 6l14 16q1 2 4 5t5 5.5t2 5.5l8 13q0 12 -4 14q-4 8 -8 10h-19q-12 0 -18 -4l-21 -8q-26 -13 -45 -29q-21 -17 -29 -34q-3 -3 -12 -21 q-6 -8 -8 -18v-17zM545 -115v-20h14v-64q0 -10 2 -12q0 -3 10 -8q4 -2 17 -2h16v22h-2l-4 -2l-8 2q-2 2 -2 9v55h16v20h-16v27h-29v-27h-14zM567 870l15 23l18 20l6 9l10 8l11 10l12 4q8 3 14 0v-10l-6 -8q-6 -6 -6 -11l-10 -10q0 -2 -8 -10q-7 -7 -9 -8l-10 -8l-12 -9 q-6 -2 -12 -2q-11 0 -13 2zM580 717h10l4 -2q12 -3 12 -23v15l10 8q2 0 2 2h9v4h-47v-4zM610 -115l2 -8l37 -102q0 -4 -2 -6v-5q-4 -4 -6 -4h-16v-22h14q3 0 7.5 1t6.5 1q5 0 11 6l6 12l8 23l2 2l35 102h-31l-20 -78l-21 78h-33zM639 694q0 -2 4 -10q0 -6 6 -6l13 -6 q2 -2 20 -6l8 -2q10 -5 12 -5q5 0 9 -4l2 -2q6 -3 6 -10l-4 -8q-2 -4 -8 -6h-11q-10 0 -16 2l-16 6l-11 10q-10 10 -10 21h-2v-43h2q0 6 4 6q4 4 8 4q1 0 3 -1t4 -1q1 0 3 -1t3 -1l14 -4q4 -2 14 -2q5 0 17 4q3 0 12 6q1 1 2.5 4t3.5 4v21l-6 6q-2 5 -12 8l-17 6h-10l-2 2 q-2 1 -5.5 1.5t-5.5 1t-3 1.5q-6 0 -8 2q-3 0 -7 4l-2 6v9l4 4q1 0 9 4q1 0 4.5 1t5.5 1q6 0 14 -4q8 0 12 -4q9 -5 11 -8q2 -1 3.5 -4t3 -7t3.5 -6h2v31h-2q-2 -6 -8 -6h-8q-17 10 -31 10q-9 0 -21 -4l-12 -8q-4 -12 -4 -17zM641 92v21h14v8q0 33 35 33h15v-25h-15 q-4 0 -4 -4v-12h19v-21h-19v-94h-31v94h-14zM723 37v76h29v-70q0 -20 20 -20h10l11 10q0 1 2 5.5t2 6.5v68h26v-115h-26v16q-5 -7 -15 -12q-12 -6 -20 -6q-22 0 -29 12q-10 7 -10 29zM731 -115v-145h27v51q2 -2 2 -4q4 0 6 -2l8 -6q4 -2 14 -2q14 0 25 8q8 5 12 22 q6 12 6 13q0 2 1.5 6t1.5 6q0 12 -7 23q-3 13 -10 20q-4 4 -12 8q-6 4 -17 4q-6 0 -8 -2l-8 -6l-8 -8q-6 -2 -8 -2v16h-25zM741 627h103v39l-6 -13l-11 -14q-6 -6 -8 -6l-10 -2q-4 -2 -12 -2h-15v41h2q10 0 19 -6l4 -7q0 -1 1 -3t1 -3v-8h2v59h-2v-8l-4 -10q-10 -10 -19 -10 h-4v43h17q16 0 22 -2l8 -6l5 -11l6 -14h4v37h-103v-4h4q9 0 11 -4q6 0 6 -11v-57q0 -16 -17 -16h-4v-2zM756 -170q0 15 7 25t17 10q9 0 19 -10q4 -12 4 -23q0 -10 -4 -22q-6 -9 -19 -9q-10 0 -16 9q-8 5 -8 20zM793 868v9l4 10l6 8q8 10 18 18l23 11q0 -2 1 -6t1 -5 q-2 -4 -2 -8v-12l-4 -8l-9 -11l-8 -6q-1 0 -3.5 -1t-4.5 -1q-2 -2 -8 -2q-4 -4 -8 0q-2 0 -6 4zM844 -166q0 -57 49 -57q10 0 22 4q4 1 17 10q4 4 8 21h-27l-6 -9q-8 -4 -14 -4q-10 0 -16 6q-7 7 -7 19h72v6q0 11 -4 27q-6 15 -16 22q-8 8 -31 8q-16 0 -27 -8 q-10 -5 -16 -20q-4 -8 -4 -25zM852 -2v156h29v-156h-29zM870 -158q3 23 21 23q4 0 16 -6q6 -6 6 -17h-43zM903 -2v156h29v-156h-29zM905 674q0 -15 4 -21q1 -1 5 -6.5t8 -7.5q6 -6 18 -10q16 -4 23 -4q17 0 26 6q8 3 23 18q6 9 6 25q0 10 -4 16q-4 13 -10 17q-4 6 -19 10 q-12 6 -22 6q-21 0 -29 -8q-11 -2 -21 -17q-8 -11 -8 -24zM915 901q0 -8 5 -8l10 -8h10h12q6 1 15 4l12 4l27 14l22 21l19 16l14 21l10 16l6 18q4 11 0 15q0 7 -6 10q0 5 -10 8q-1 0 -6 1t-8 1q-7 0 -19 -4l-12 -4l-12 -4l-25 -16l-23 -19l-16 -18l-12 -19q-11 -19 -13 -26 v-23zM928 674q0 2 1 7.5t1 8.5l6 12l6 11q1 1 4.5 2t5.5 2q4 4 13 4q2 -2 6 -2l6 -4l10 -8q0 -2 2.5 -7.5t3.5 -9.5l1 -6q1 -6 1 -10q0 -13 -4 -25l-12 -18q-4 -2 -16 -2q-11 0 -13 2q-9 0 -12 10l-6 12q-4 12 -4 21zM940 895v12q4 15 10 21l15 22l10 13l24 30l19 19l8 8 l10 4q4 2 11 2q2 0 4 -2t2 -8q0 -2 -4 -10l-5 -9l-6 -10l-6 -10l-20 -31l-17 -18l-20 -21q0 -3 -10 -6q-2 -4 -13 -8h-8q-4 0 -4 2zM948 -115v-20h17v-86h26v86h19v20h-19v4l2 9q0 2 2 2h13v22h-13q-30 0 -30 -28v-9h-17zM1010 92v21h14v8q0 33 35 33h12v-25h-12q-2 0 -4 -4 v-12h20v-21h-20v-94h-31v94h-14zM1018 -193q0 -10 4 -18l14 -10q6 -2 15 -2q10 0 14 2q1 1 4.5 2t5.5 2l8 8v-6q0 -1 1 -2t1 -2v-2h31v4q-4 4 -4 6q-2 2 -2 12v56q0 10 -2 14q-3 6 -12 12q-16 4 -29 4q-10 0 -14 -2q-7 0 -11 -2q-8 -3 -14 -12q-6 -6 -6 -21h27q0 8 6 11 q3 6 12 6q14 0 14 -17q0 -6 -8 -6l-24 -4q-11 0 -21 -10q-10 -5 -10 -23zM1032 627h49v2q-6 0 -10 2h-8l-4 10q-2 2 -2 12v56l80 -82h4v65q0 9 4 21q4 4 16 4v4h-47v-4h8q0 -2 4 -2q7 -3 7 -8q4 -4 4 -15v-39l-66 68h-37v-4q8 0 10 -2q1 0 3.5 -1t3.5 -1q2 -4 2 -11v-53 q0 -6 -2 -10l-7 -8q-2 0 -6.5 -1t-5.5 -1v-2zM1047 -190q0 6 4 10t8 4l14 2l8 4v-12q0 -9 -2 -13l-10 -6h-4q-2 -4 -6 -4q-2 0 -8 6q-4 4 -4 9zM1051 905q1 0 3 -1t3 -1q4 0 8 2l8 4q0 2 4 6q1 0 2 1.5t2 1.5l4 6q0 4 5 4l16 22l20 21l17 20l22 21l29 28l10 9l10 8l13 4 q2 0 2 -2h-2l-4 -4q-2 -5 -9 -8l-4 -7l-12 -14q-3 -2 -7 -7.5t-5 -6.5l-15 -23l-14 -20l-6 -19q-3 -10 0 -16t8 -6h19q3 1 10 5.5t12 6.5l19 14l22 23q-2 -2 -2 -6q0 -7 4 -15q2 -4 10 -8q6 -2 21 2q10 2 24 13l21 14l14 14l13 13v-5q0 -1 -1.5 -3t-1.5 -3v-6q-3 -7 0 -10 q0 -1 1.5 -3t1.5 -3q0 -6 6 -6h16l6 4l8 6l13 6l32 27l17 16l-4 -12q-4 -6 -4 -19v-6l4 -2q0 -2 6 -2q4 0 8 4q9 0 12 6l11 6l12 13q2 0 10 8q3 2 19 18l18 21v4q0 2 -2 2q-4 0 -8 -4l-2 -4l-13 -15l-10 -12q-9 -6 -12 -12l-14 -12l-9 -7l-8 -2q-2 0 -2 -2q-2 0 -4 2h2l8 15 q4 8 8 12l7 12q3 2 8 11l63 92q12 11 13 16l16 16l37 43q13 13 33 41l10 19v8q-2 2 -8 2q-3 0 -11 -4l-12 -6q-4 0 -10 -6l-8 -6l-23 -19l-16 -18q-7 -7 -19 -23q-1 -2 -14 -20l-27 -41l-26 -45l-19 -33l-8 -16h-2l-14 -15q-1 -2 -19 -20l-18 -17l-10 -8l-7 -4q-2 -2 -4 -2 l-4 -4h-10l12 20l2 4q12 20 19 27l16 29l15 20l8 13l6 10l2 2q0 2 2 2q0 1 1 2t1 2q6 3 4 8q0 2 -6 2l-10 -4l-10 -6l-19 -12l-14 -13q0 7 -2 11q0 3 -6 6q-12 3 -21 0q-16 -4 -22 -8l-25 -13l-18 -16q-26 -19 -37 -39q-14 -17 -21 -37h-4l-16 -18q-22 -17 -23 -17 q-2 -5 -12 -8q-4 -4 -10 -4h-2q-2 2 0 4l6 8l6 11l12 14l21 27q15 19 18 28l8 17q4 11 2 16q0 6 -2 6q0 4 -6 4t-8 -2l-12 -4l-13 -8l-10 -8l-10 -9q-8 -8 -12 -8l-21 -22q-16 -16 -18 -19l-11 -12l-10 -10l2 4l25 35l26 37q0 1 1.5 2t1.5 2q2 2 2 4q2 2 2 6l-7 6q-1 0 -3 1 t-3 1t-4.5 -1t-5.5 -1l-10 -6l-4 -4q-2 -1 -3.5 -4t-2.5 -4l-5 -7l-77 -133zM1083 55q0 7 4 23q2 9 11 18q12 12 20 15q6 4 25 4q16 0 24 -4q1 -1 8 -4t9 -7q4 -4 12 -20q4 -12 4 -25q0 -17 -8 -30q-2 -9 -18 -21q-11 -8 -31 -8q-22 0 -35 8q-2 1 -18 23q-7 14 -7 28z M1114 55q0 -10 6 -22q4 -10 23 -10q16 0 20 10q6 6 6 22t-6 25q-7 10 -20 10q-16 0 -23 -10q-6 -18 -6 -25zM1128 -170q0 -10 5 -25q4 -13 10 -16q12 -12 35 -12q12 0 24 6q4 1 15 12q6 12 6 23h-27q0 -10 -6 -13q-4 -4 -12 -4q-9 0 -13 4l-8 11q0 2 -1 8t-1 10q0 16 8 21 q7 10 17 10q6 0 12 -6q4 -8 4 -13h31q0 3 -10 23q-7 11 -17 14q-12 4 -22 4q-26 0 -39 -16q-11 -26 -11 -41zM1167 627h107v41h-2q-2 -2 -4 -8l-2 -5q-4 -4 -4 -8l-5 -6q-8 -8 -12 -10q-1 0 -6 -1t-8 -1h-25v73q0 11 6 11q2 4 13 4h6v4h-64v-4h4q17 0 17 -15v-57 q0 -16 -17 -16h-4v-2zM1221 -2v115h28v-17q13 19 35 19q15 0 21 -4l14 -13q4 -12 4 -20v-80h-29v70q0 8 -4 16q-6 6 -16 6q-14 0 -19 -8q-4 -4 -4 -19v-65h-30zM1237 -166q0 -57 49 -57q11 0 23 4q6 2 14 10q6 4 10 21h-26l-7 -9q-8 -4 -14 -4q-10 0 -16 6t-6 19h71v6 q0 15 -6 27q-3 17 -14 22q-8 8 -29 8q-18 0 -29 -8q-10 -5 -16 -20q-4 -16 -4 -25zM1264 -158q3 23 20 23q4 0 16 -6q7 -7 7 -17h-43zM1266 963q0 2 2 2q0 2 2 4l6 10l8 10l6 12l8 11l19 24l26 33l7 8l16 13q2 2 8 2q4 2 8 2l7 -4q0 -1 1 -3.5t1 -3.5q0 -4 -2 -8q0 -1 -5 -6 l-16 -22l-12 -23l-17 -14l-16 -19l-10 -8l-13 -10l-10 -8q-2 0 -5 -2t-5 -2q-8 -4 -10 -3h-2q-2 2 -2 5zM1268 717h2q10 0 14 -2q7 -7 8 -10l29 -39v-21q0 -10 -2 -12q-8 -4 -14 -4h-7v-2h68v2h-8q-8 0 -12 4q-5 5 -5 12v23l25 34l4 7q8 4 10 4q0 2 4 2l9 2v4h-47v-4h6 q8 0 10 -2q4 -2 4 -6q0 -5 -6 -11l-19 -26l-24 30q-4 8 -4 9v2q0 2 2 2q0 2 6 2h8v4h-61v-4zM1337 92v21h19v28h26v-28h21v-21h-21v-61l2 -8q2 0 5.5 -1.5t5.5 -1.5l4 3h4v-25h-21q-14 0 -16 4q-7 0 -10 8v82h-19zM1352 -190v-31h30v31h-30zM1401 -170q0 -13 4 -25 q4 -13 10 -16q15 -12 35 -12q16 0 25 6q6 2 16 12q5 9 8 23h-31q0 -10 -6 -13q-2 -4 -12 -4q-8 0 -10 4q-3 2 -8 11q0 2 -1 8t-1 10q0 15 6 21q7 10 16 10q6 0 12 -6l6 -13h29q0 12 -8 23q-12 12 -18 14q-12 4 -23 4q-26 0 -39 -16q-10 -23 -10 -41zM1473 31q0 16 8 24 q20 10 24 11l27 4q10 0 10 8q0 14 -18 14q-9 0 -13 -4q-5 -3 -8 -14h-26q0 15 6 24q5 8 16 13q4 4 12 4h13q24 0 32 -4q12 -12 13 -15q2 -4 2 -14v-72q0 -6 8 -6v-6h-33l-2 4v2q0 2 -1 4.5t-1 3.5l-8 -8l-10 -6q-4 0 -9 -1t-8 -1t-8 1t-8 1q-1 1 -6.5 5t-7.5 7q-4 8 -4 21z M1501 31q0 -8 4 -8q5 -5 11 -5h8l4 2q9 4 10 7q4 8 4 14v14q-6 -6 -12 -6l-14 -4q-7 0 -11 -4q-4 -2 -4 -10zM1511 -168q0 -7 5 -27q6 -14 18 -20q11 -8 31 -8q16 0 28 6q14 7 17 20q6 12 6 29t-2 23q-2 2 -5 9t-5 9q-13 9 -17 10q-12 4 -22 4q-13 0 -25 -4q-10 -3 -16 -12 q-8 -7 -11 -18q-2 -8 -2 -21zM1538 -168q0 14 6 23q3 10 21 10q15 0 18 -10q6 -9 6 -23q0 -13 -6 -22q-3 -9 -18 -9q-18 0 -21 9q-6 9 -6 22zM1567 1167l28 37l13 23l26 35q0 2 2 2q0 4 4 4l2 2q0 -8 -2 -10l-8 -11l-6 -10l-6 -8l-16 -21l-19 -20l-10 -12q-5 -9 -8 -11z M1585 92v21h14v28h33v-28h19v-21h-19v-69q1 0 4.5 -1.5t5.5 -1.5l5 3h4v-25h-19q-14 0 -20 4q-5 0 -8 8q0 1 -2.5 6t-2.5 7v69h-14zM1636 -115v-106h27v63q0 23 16 23q11 0 15 -4t4 -8v-74h26v63q0 23 19 23q16 0 16 -23v-63h27v71q0 11 -4 19q-2 6 -10 14q-12 4 -23 4 q-8 0 -16 -4t-11 -12q-6 9 -12 12q-8 4 -16 4q-22 0 -31 -18v16h-27z" />
<glyph unicode="1" d="M70 -193q0 -12 6 -18q3 -7 10 -10q6 -2 18 -2q9 0 13 2q1 1 4.5 2t5.5 2l8 8q0 -4 2 -6v-6h29v4q-4 4 -4 6q-2 2 -2 12v56q0 10 -2 14q-2 5 -13 12q-12 4 -26 4q-9 0 -13 -2q-10 0 -14 -2q-10 -5 -12 -12q-6 -6 -6 -21h24q0 8 8 11q3 6 13 6q16 0 16 -17q0 -6 -10 -6 l-27 -4q-10 0 -20 -10q-8 -5 -8 -23zM96 -190q0 6 4 10q8 4 13 4l12 2q8 4 10 4v-12q0 -5 -4 -13l-10 -6h-4q-2 -4 -6 -4q-1 0 -2.5 1t-4 2.5t-4.5 2.5q-4 4 -4 9zM125 565v494l268 59l-10 37l41 12l-8 39l41 8l-6 46l41 2v41h36l4 36l39 -6l9 41l43 -6l10 39l39 -10l16 37 l39 -17l23 39l34 -18l23 35l37 -25l24 33l35 -27l27 29l26 -25l27 23l27 -29l34 23l23 -37l39 20l18 -35l37 17l17 -41l43 12l12 -39l39 10l8 -43l43 4l2 -26l404 88v-496l-185 -41l4 -2l-24 -26l24 -29l-32 -27l22 -34l-37 -23l23 -37l-35 -20l14 -37l-39 -17l13 -43 l-37 -12l6 -39l-41 -8l2 -43l-39 -4v-39h-35l-6 -37l-39 2l-8 -37l-43 6l-10 -40l-39 12l-14 -39l-44 16l-18 -39l-37 21l-22 -35l-37 23l-25 -33l-30 26l-31 -26l-27 24l-26 -24l-25 31l-35 -23l-24 37l-37 -21l-19 35l-39 -16l-18 41l-39 -13l-12 37l-41 -8l-8 43l-43 -4 l-5 41h-40v35l-35 4l4 41l-41 6l8 43l-41 12l12 37l-28 12zM186 -115v-106h27v55q0 25 27 25h8v28h-6q-13 0 -15 -2l-8 -8l-6 -10h-2v18h-25zM236 76v16q0 2 2 7t2 7q3 14 14 25q4 6 22 19q15 6 33 6h6q2 0 8 -1t9 -1q7 0 14 -7q15 -9 21 -18q4 -4 8 -12l2 -11h-33q0 5 -4 9 l-10 10q-6 4 -19 4h-14l-14 -12q-11 -5 -11 -15q-4 -8 -4 -28q0 -9 4 -29q2 -9 13 -14q16 -8 20 -8h4q13 0 19 4q4 0 12 8q8 16 8 20h-37v27h66v-84h-21l-4 20q-6 -8 -14 -14q-2 -2 -19 -8q-3 0 -9 -1t-9 -1q-13 0 -25 6q-14 7 -20 16q-7 6 -16 27q-4 10 -4 33zM236 702h10 l8 5l10 10l8 10l11 10q5 10 8 13l63 86l19 30l20 31q10 12 21 31l16 33q2 4 0 6t-4 2q-8 0 -10 -2l-8 -4l-33 -41q-7 -7 -15 -19l-16 -20l-55 -80l-27 -41l-22 -43l-4 -6v-11zM262 -78v-24h29v24h-29zM262 -115v-106h29v106h-29zM276 889q0 -1 11 -12l18 -7q15 0 23 2 q4 0 4 2l2 5q0 2 -2 2h-4q-4 0 -4 -2q-15 -3 -29 2q-8 4 -10 8q0 2 -1 5t-1 5q0 6 2 12l6 15l16 18q3 3 6.5 5.5t8.5 6t8 5.5q3 1 10.5 6.5t13.5 7.5l25 12q9 0 29 8l28 4q20 5 27 5q2 0 22 -5q12 0 15 -6l10 -12v-16q0 -13 -2 -21l-10 -18q-2 -5 -8 -12.5t-7 -8.5 q-3 -4 -6 -7t-7 -6.5t-7 -6.5q-4 -7 -21 -19l-22 -14l-25 -10l-14 -6q-1 0 -5.5 -1t-6.5 -1h-4q-4 0 -7 -3q-2 0 -2 -2q-4 0 -4 -4q0 -2 2 -2h4q5 0 7 2h4l26 9l27 12l27 10l26 16l23 17l20 18l17 21q11 17 12 20q4 12 4 19q3 10 0 18l-6 14l-15 11q-16 4 -20 4q-8 2 -23 2 q-8 0 -24 -4q-14 0 -57 -13q-31 -8 -54 -22q-22 -11 -26 -14q-20 -15 -23 -19l-18 -18l-9 -21q-3 -10 0 -16zM317 -115v-106h27v61q0 5 4 17q8 8 17 8q12 0 16 -8q2 -2 2 -15v-63h29v71q0 13 -4 21q-6 8 -13 12q-12 4 -20 4q-21 0 -33 -18v16h-25zM395 57q0 21 6 29 q3 13 17 20q11 9 33 9t28 -9q13 -6 19 -22q4 -10 4 -31v-8h-78q0 -6 8 -18q7 -7 19 -7q3 0 7 1.5t5 1.5q8 8 8 10h31l-10 -21l-17 -12q-20 -4 -24 -4q-56 0 -56 61zM428 68h45q-4 12 -8 16q-8 8 -14 8q-23 0 -23 -24zM430 -166q0 -15 8 -31q5 -12 17 -20q16 -4 22 -4 q18 0 29 14v-18q0 -1 -1 -3t-1 -3q0 -4 -8 -9q-2 -2 -15 -2q-10 0 -12 2l-6 9h-27q0 -7 2 -11q0 -4 4 -8q11 -7 19 -10q3 0 9 -1t9 -1q21 0 33 6q10 5 16 14q4 16 4 27v100h-24l-2 -16q-1 3 -12 14q-12 4 -19 4q-16 0 -24 -8q-10 -6 -15 -20q-6 -24 -6 -25zM461 -168 q0 17 6 23q7 10 14 10t17 -10q8 -8 8 -23q0 -13 -7 -21t-18 -8q-4 0 -12 4q-6 6 -6 11q-2 6 -2 14zM498 717q20 0 20 -15v-49q0 -9 10 -22l17 -4q4 -2 18 -2q13 0 25 4q8 4 10 6q8 5 8 18q-3 -9 -10 -16l-12 -8h-15q-12 0 -18 2q-2 0 -10 8q-4 4 -4 14v49q0 11 4 11 q4 4 14 4h6v4h-63v-4zM510 92v21h16v28h31v-28h16v-21h-16v-61q0 -8 2 -8q4 -3 10 -3l2 3h2v-25h-16q-14 0 -20 4q-6 0 -9 8q-2 2 -2 13v69h-16zM510 821q3 -8 10 -12q9 -9 23 -6q14 0 26 6q13 2 33 14t31 23l24 20l15 15q0 2 4 6l2 4l4 6l16 16l15 21q5 3 10.5 10.5 t7.5 9.5l6 -2l4 -6l2 -6q0 -1 -1 -2.5t-2.5 -3.5t-2.5 -4l-16 -17l-14 -20l-13 -19l-4 -18q-2 -2 -2 -8v-6l4 -8h8q11 0 17 2l16 10q2 2 10 7.5t11 10.5q4 2 10 8.5t8 8.5l8 12l8 10l5 4l4 6q4 4 4 5l12 16l21 31q0 -3 1 -8t1 -7q4 -12 4 -14l4 -8q-15 -3 -25 -13l-20 -14 q-1 -1 -6.5 -7.5t-6.5 -10.5q-2 -6 -2 -17q0 -6 11 -10h18q13 0 25 8q15 7 22 17q2 1 17 16l8 18q6 9 6 19v16q0 7 -4 15l-6 16l-7 6q0 4 -4 8l-2 4v11h-8l-4 -4l-12 -9l-4 -12l-2 -2l-4 -6l-33 -45l-4 -6l-6 -11h-3v-2l-4 -2l-4 -8l-6 -8l-14 -18l-23 -21l-12 -6 q-4 -4 -12 -4v2l8 10l6 10l8 11l6 8l9 14l10 14l4 15q2 6 2 14q-2 2 -2 8l-2 4q0 5 -2 7v22l6 10q4 8 -4 13q-3 7 -17 0q-9 -2 -16 -9q-5 -3 -10 -12q-4 -4 -4 -10q0 -8 2 -12l4 -2q0 -1 4 -5l-12 -12l-23 -31l-20 -22q-4 0 -4 -4v-2l-2 -2l-2 -2l-11 -15q-26 -21 -28 -22 q-13 -13 -33 -23l-21 -8q-12 -4 -18 -2q-6 0 -6 4q-2 2 -2 6q0 3 4 11l2 8l10 16q4 -2 12 -2h19q10 3 26 12q4 1 7.5 3t8.5 6t9 6l14 16q1 2 4 5t5 5.5t2 5.5l8 13q0 12 -4 14q-4 8 -8 10h-19q-12 0 -18 -4l-21 -8q-26 -13 -45 -29q-21 -17 -29 -34q-3 -3 -12 -21 q-6 -8 -8 -18v-17zM545 -115v-20h14v-64q0 -10 2 -12q0 -3 10 -8q4 -2 17 -2h16v22h-2l-4 -2l-8 2q-2 2 -2 9v55h16v20h-16v27h-29v-27h-14zM567 870l15 23l18 20l6 9l10 8l11 10l12 4q8 3 14 0v-10l-6 -8q-6 -6 -6 -11l-10 -10q0 -2 -8 -10q-7 -7 -9 -8l-10 -8l-12 -9 q-6 -2 -12 -2q-11 0 -13 2zM580 717h10l4 -2q12 -3 12 -23v15l10 8q2 0 2 2h9v4h-47v-4zM610 -115l2 -8l37 -102q0 -4 -2 -6v-5q-4 -4 -6 -4h-16v-22h14q3 0 7.5 1t6.5 1q5 0 11 6l6 12l8 23l2 2l35 102h-31l-20 -78l-21 78h-33zM639 694q0 -2 4 -10q0 -6 6 -6l13 -6 q2 -2 20 -6l8 -2q10 -5 12 -5q5 0 9 -4l2 -2q6 -3 6 -10l-4 -8q-2 -4 -8 -6h-11q-10 0 -16 2l-16 6l-11 10q-10 10 -10 21h-2v-43h2q0 6 4 6q4 4 8 4q1 0 3 -1t4 -1q1 0 3 -1t3 -1l14 -4q4 -2 14 -2q5 0 17 4q3 0 12 6q1 1 2.5 4t3.5 4v21l-6 6q-2 5 -12 8l-17 6h-10l-2 2 q-2 1 -5.5 1.5t-5.5 1t-3 1.5q-6 0 -8 2q-3 0 -7 4l-2 6v9l4 4q1 0 9 4q1 0 4.5 1t5.5 1q6 0 14 -4q8 0 12 -4q9 -5 11 -8q2 -1 3.5 -4t3 -7t3.5 -6h2v31h-2q-2 -6 -8 -6h-8q-17 10 -31 10q-9 0 -21 -4l-12 -8q-4 -12 -4 -17zM641 92v21h14v8q0 33 35 33h15v-25h-15 q-4 0 -4 -4v-12h19v-21h-19v-94h-31v94h-14zM723 37v76h29v-70q0 -20 20 -20h10l11 10q0 1 2 5.5t2 6.5v68h26v-115h-26v16q-5 -7 -15 -12q-12 -6 -20 -6q-22 0 -29 12q-10 7 -10 29zM731 -115v-145h27v51q2 -2 2 -4q4 0 6 -2l8 -6q4 -2 14 -2q14 0 25 8q8 5 12 22 q6 12 6 13q0 2 1.5 6t1.5 6q0 12 -7 23q-3 13 -10 20q-4 4 -12 8q-6 4 -17 4q-6 0 -8 -2l-8 -6l-8 -8q-6 -2 -8 -2v16h-25zM741 627h103v39l-6 -13l-11 -14q-6 -6 -8 -6l-10 -2q-4 -2 -12 -2h-15v41h2q10 0 19 -6l4 -7q0 -1 1 -3t1 -3v-8h2v59h-2v-8l-4 -10q-10 -10 -19 -10 h-4v43h17q16 0 22 -2l8 -6l5 -11l6 -14h4v37h-103v-4h4q9 0 11 -4q6 0 6 -11v-57q0 -16 -17 -16h-4v-2zM756 -170q0 15 7 25t17 10q9 0 19 -10q4 -12 4 -23q0 -10 -4 -22q-6 -9 -19 -9q-10 0 -16 9q-8 5 -8 20zM793 868v9l4 10l6 8q8 10 18 18l23 11q0 -2 1 -6t1 -5 q-2 -4 -2 -8v-12l-4 -8l-9 -11l-8 -6q-1 0 -3.5 -1t-4.5 -1q-2 -2 -8 -2q-4 -4 -8 0q-2 0 -6 4zM844 -166q0 -57 49 -57q10 0 22 4q4 1 17 10q4 4 8 21h-27l-6 -9q-8 -4 -14 -4q-10 0 -16 6q-7 7 -7 19h72v6q0 11 -4 27q-6 15 -16 22q-8 8 -31 8q-16 0 -27 -8 q-10 -5 -16 -20q-4 -8 -4 -25zM852 -2v156h29v-156h-29zM870 -158q3 23 21 23q4 0 16 -6q6 -6 6 -17h-43zM903 -2v156h29v-156h-29zM905 674q0 -15 4 -21q1 -1 5 -6.5t8 -7.5q6 -6 18 -10q16 -4 23 -4q17 0 26 6q8 3 23 18q6 9 6 25q0 10 -4 16q-4 13 -10 17q-4 6 -19 10 q-12 6 -22 6q-21 0 -29 -8q-11 -2 -21 -17q-8 -11 -8 -24zM915 901q0 -8 5 -8l10 -8h10h12q6 1 15 4l12 4l27 14l22 21l19 16l14 21l10 16l6 18q4 11 0 15q0 7 -6 10q0 5 -10 8q-1 0 -6 1t-8 1q-7 0 -19 -4l-12 -4l-12 -4l-25 -16l-23 -19l-16 -18l-12 -19q-11 -19 -13 -26 v-23zM928 674q0 2 1 7.5t1 8.5l6 12l6 11q1 1 4.5 2t5.5 2q4 4 13 4q2 -2 6 -2l6 -4l10 -8q0 -2 2.5 -7.5t3.5 -9.5l1 -6q1 -6 1 -10q0 -13 -4 -25l-12 -18q-4 -2 -16 -2q-11 0 -13 2q-9 0 -12 10l-6 12q-4 12 -4 21zM940 895v12q4 15 10 21l15 22l10 13l24 30l19 19l8 8 l10 4q4 2 11 2q2 0 4 -2t2 -8q0 -2 -4 -10l-5 -9l-6 -10l-6 -10l-20 -31l-17 -18l-20 -21q0 -3 -10 -6q-2 -4 -13 -8h-8q-4 0 -4 2zM948 -115v-20h17v-86h26v86h19v20h-19v4l2 9q0 2 2 2h13v22h-13q-30 0 -30 -28v-9h-17zM1010 92v21h14v8q0 33 35 33h12v-25h-12q-2 0 -4 -4 v-12h20v-21h-20v-94h-31v94h-14zM1018 -193q0 -10 4 -18l14 -10q6 -2 15 -2q10 0 14 2q1 1 4.5 2t5.5 2l8 8v-6q0 -1 1 -2t1 -2v-2h31v4q-4 4 -4 6q-2 2 -2 12v56q0 10 -2 14q-3 6 -12 12q-16 4 -29 4q-10 0 -14 -2q-7 0 -11 -2q-8 -3 -14 -12q-6 -6 -6 -21h27q0 8 6 11 q3 6 12 6q14 0 14 -17q0 -6 -8 -6l-24 -4q-11 0 -21 -10q-10 -5 -10 -23zM1032 627h49v2q-6 0 -10 2h-8l-4 10q-2 2 -2 12v56l80 -82h4v65q0 9 4 21q4 4 16 4v4h-47v-4h8q0 -2 4 -2q7 -3 7 -8q4 -4 4 -15v-39l-66 68h-37v-4q8 0 10 -2q1 0 3.5 -1t3.5 -1q2 -4 2 -11v-53 q0 -6 -2 -10l-7 -8q-2 0 -6.5 -1t-5.5 -1v-2zM1047 -190q0 6 4 10t8 4l14 2l8 4v-12q0 -9 -2 -13l-10 -6h-4q-2 -4 -6 -4q-2 0 -8 6q-4 4 -4 9zM1051 905q1 0 3 -1t3 -1q4 0 8 2l8 4q0 2 4 6q1 0 2 1.5t2 1.5l4 6q0 4 5 4l16 22l20 21l17 20l22 21l29 28l10 9l10 8l13 4 q2 0 2 -2h-2l-4 -4q-2 -5 -9 -8l-4 -7l-12 -14q-3 -2 -7 -7.5t-5 -6.5l-15 -23l-14 -20l-6 -19q-3 -10 0 -16t8 -6h19q3 1 10 5.5t12 6.5l19 14l22 23q-2 -2 -2 -6q0 -7 4 -15q2 -4 10 -8q6 -2 21 2q10 2 24 13l21 14l14 14l13 13v-5q0 -1 -1.5 -3t-1.5 -3v-6q-3 -7 0 -10 q0 -1 1.5 -3t1.5 -3q0 -6 6 -6h16l6 4l8 6l13 6l32 27l17 16l-4 -12q-4 -6 -4 -19v-6l4 -2q0 -2 6 -2q4 0 8 4q9 0 12 6l11 6l12 13q2 0 10 8q3 2 19 18l18 21v4q0 2 -2 2q-4 0 -8 -4l-2 -4l-13 -15l-10 -12q-9 -6 -12 -12l-14 -12l-9 -7l-8 -2q-2 0 -2 -2q-2 0 -4 2h2l8 15 q4 8 8 12l7 12q3 2 8 11l63 92q12 11 13 16l16 16l37 43q13 13 33 41l10 19v8q-2 2 -8 2q-3 0 -11 -4l-12 -6q-4 0 -10 -6l-8 -6l-23 -19l-16 -18q-7 -7 -19 -23q-1 -2 -14 -20l-27 -41l-26 -45l-19 -33l-8 -16h-2l-14 -15q-1 -2 -19 -20l-18 -17l-10 -8l-7 -4q-2 -2 -4 -2 l-4 -4h-10l12 20l2 4q12 20 19 27l16 29l15 20l8 13l6 10l2 2q0 2 2 2q0 1 1 2t1 2q6 3 4 8q0 2 -6 2l-10 -4l-10 -6l-19 -12l-14 -13q0 7 -2 11q0 3 -6 6q-12 3 -21 0q-16 -4 -22 -8l-25 -13l-18 -16q-26 -19 -37 -39q-14 -17 -21 -37h-4l-16 -18q-22 -17 -23 -17 q-2 -5 -12 -8q-4 -4 -10 -4h-2q-2 2 0 4l6 8l6 11l12 14l21 27q15 19 18 28l8 17q4 11 2 16q0 6 -2 6q0 4 -6 4t-8 -2l-12 -4l-13 -8l-10 -8l-10 -9q-8 -8 -12 -8l-21 -22q-16 -16 -18 -19l-11 -12l-10 -10l2 4l25 35l26 37q0 1 1.5 2t1.5 2q2 2 2 4q2 2 2 6l-7 6q-1 0 -3 1 t-3 1t-4.5 -1t-5.5 -1l-10 -6l-4 -4q-2 -1 -3.5 -4t-2.5 -4l-5 -7l-77 -133zM1083 55q0 7 4 23q2 9 11 18q12 12 20 15q6 4 25 4q16 0 24 -4q1 -1 8 -4t9 -7q4 -4 12 -20q4 -12 4 -25q0 -17 -8 -30q-2 -9 -18 -21q-11 -8 -31 -8q-22 0 -35 8q-2 1 -18 23q-7 14 -7 28z M1114 55q0 -10 6 -22q4 -10 23 -10q16 0 20 10q6 6 6 22t-6 25q-7 10 -20 10q-16 0 -23 -10q-6 -18 -6 -25zM1128 -170q0 -10 5 -25q4 -13 10 -16q12 -12 35 -12q12 0 24 6q4 1 15 12q6 12 6 23h-27q0 -10 -6 -13q-4 -4 -12 -4q-9 0 -13 4l-8 11q0 2 -1 8t-1 10q0 16 8 21 q7 10 17 10q6 0 12 -6q4 -8 4 -13h31q0 3 -10 23q-7 11 -17 14q-12 4 -22 4q-26 0 -39 -16q-11 -26 -11 -41zM1167 627h107v41h-2q-2 -2 -4 -8l-2 -5q-4 -4 -4 -8l-5 -6q-8 -8 -12 -10q-1 0 -6 -1t-8 -1h-25v73q0 11 6 11q2 4 13 4h6v4h-64v-4h4q17 0 17 -15v-57 q0 -16 -17 -16h-4v-2zM1221 -2v115h28v-17q13 19 35 19q15 0 21 -4l14 -13q4 -12 4 -20v-80h-29v70q0 8 -4 16q-6 6 -16 6q-14 0 -19 -8q-4 -4 -4 -19v-65h-30zM1237 -166q0 -57 49 -57q11 0 23 4q6 2 14 10q6 4 10 21h-26l-7 -9q-8 -4 -14 -4q-10 0 -16 6t-6 19h71v6 q0 15 -6 27q-3 17 -14 22q-8 8 -29 8q-18 0 -29 -8q-10 -5 -16 -20q-4 -16 -4 -25zM1264 -158q3 23 20 23q4 0 16 -6q7 -7 7 -17h-43zM1266 963q0 2 2 2q0 2 2 4l6 10l8 10l6 12l8 11l19 24l26 33l7 8l16 13q2 2 8 2q4 2 8 2l7 -4q0 -1 1 -3.5t1 -3.5q0 -4 -2 -8q0 -1 -5 -6 l-16 -22l-12 -23l-17 -14l-16 -19l-10 -8l-13 -10l-10 -8q-2 0 -5 -2t-5 -2q-8 -4 -10 -3h-2q-2 2 -2 5zM1268 717h2q10 0 14 -2q7 -7 8 -10l29 -39v-21q0 -10 -2 -12q-8 -4 -14 -4h-7v-2h68v2h-8q-8 0 -12 4q-5 5 -5 12v23l25 34l4 7q8 4 10 4q0 2 4 2l9 2v4h-47v-4h6 q8 0 10 -2q4 -2 4 -6q0 -5 -6 -11l-19 -26l-24 30q-4 8 -4 9v2q0 2 2 2q0 2 6 2h8v4h-61v-4zM1337 92v21h19v28h26v-28h21v-21h-21v-61l2 -8q2 0 5.5 -1.5t5.5 -1.5l4 3h4v-25h-21q-14 0 -16 4q-7 0 -10 8v82h-19zM1352 -190v-31h30v31h-30zM1401 -170q0 -13 4 -25 q4 -13 10 -16q15 -12 35 -12q16 0 25 6q6 2 16 12q5 9 8 23h-31q0 -10 -6 -13q-2 -4 -12 -4q-8 0 -10 4q-3 2 -8 11q0 2 -1 8t-1 10q0 15 6 21q7 10 16 10q6 0 12 -6l6 -13h29q0 12 -8 23q-12 12 -18 14q-12 4 -23 4q-26 0 -39 -16q-10 -23 -10 -41zM1473 31q0 16 8 24 q20 10 24 11l27 4q10 0 10 8q0 14 -18 14q-9 0 -13 -4q-5 -3 -8 -14h-26q0 15 6 24q5 8 16 13q4 4 12 4h13q24 0 32 -4q12 -12 13 -15q2 -4 2 -14v-72q0 -6 8 -6v-6h-33l-2 4v2q0 2 -1 4.5t-1 3.5l-8 -8l-10 -6q-4 0 -9 -1t-8 -1t-8 1t-8 1q-1 1 -6.5 5t-7.5 7q-4 8 -4 21z M1501 31q0 -8 4 -8q5 -5 11 -5h8l4 2q9 4 10 7q4 8 4 14v14q-6 -6 -12 -6l-14 -4q-7 0 -11 -4q-4 -2 -4 -10zM1511 -168q0 -7 5 -27q6 -14 18 -20q11 -8 31 -8q16 0 28 6q14 7 17 20q6 12 6 29t-2 23q-2 2 -5 9t-5 9q-13 9 -17 10q-12 4 -22 4q-13 0 -25 -4q-10 -3 -16 -12 q-8 -7 -11 -18q-2 -8 -2 -21zM1538 -168q0 14 6 23q3 10 21 10q15 0 18 -10q6 -9 6 -23q0 -13 -6 -22q-3 -9 -18 -9q-18 0 -21 9q-6 9 -6 22zM1567 1167l28 37l13 23l26 35q0 2 2 2q0 4 4 4l2 2q0 -8 -2 -10l-8 -11l-6 -10l-6 -8l-16 -21l-19 -20l-10 -12q-5 -9 -8 -11z M1585 92v21h14v28h33v-28h19v-21h-19v-69q1 0 4.5 -1.5t5.5 -1.5l5 3h4v-25h-19q-14 0 -20 4q-5 0 -8 8q0 1 -2.5 6t-2.5 7v69h-14zM1636 -115v-106h27v63q0 23 16 23q11 0 15 -4t4 -8v-74h26v63q0 23 19 23q16 0 16 -23v-63h27v71q0 11 -4 19q-2 6 -10 14q-12 4 -23 4 q-8 0 -16 -4t-11 -12q-6 9 -12 12q-8 4 -16 4q-22 0 -31 -18v16h-27z" />
<glyph unicode="2" d="M70 -193q0 -12 6 -18q3 -7 10 -10q6 -2 18 -2q9 0 13 2q1 1 4.5 2t5.5 2l8 8q0 -4 2 -6v-6h29v4q-4 4 -4 6q-2 2 -2 12v56q0 10 -2 14q-2 5 -13 12q-12 4 -26 4q-9 0 -13 -2q-10 0 -14 -2q-10 -5 -12 -12q-6 -6 -6 -21h24q0 8 8 11q3 6 13 6q16 0 16 -17q0 -6 -10 -6 l-27 -4q-10 0 -20 -10q-8 -5 -8 -23zM96 -190q0 6 4 10q8 4 13 4l12 2q8 4 10 4v-12q0 -5 -4 -13l-10 -6h-4q-2 -4 -6 -4q-1 0 -2.5 1t-4 2.5t-4.5 2.5q-4 4 -4 9zM125 565v494l268 59l-10 37l41 12l-8 39l41 8l-6 46l41 2v41h36l4 36l39 -6l9 41l43 -6l10 39l39 -10l16 37 l39 -17l23 39l34 -18l23 35l37 -25l24 33l35 -27l27 29l26 -25l27 23l27 -29l34 23l23 -37l39 20l18 -35l37 17l17 -41l43 12l12 -39l39 10l8 -43l43 4l2 -26l404 88v-496l-185 -41l4 -2l-24 -26l24 -29l-32 -27l22 -34l-37 -23l23 -37l-35 -20l14 -37l-39 -17l13 -43 l-37 -12l6 -39l-41 -8l2 -43l-39 -4v-39h-35l-6 -37l-39 2l-8 -37l-43 6l-10 -40l-39 12l-14 -39l-44 16l-18 -39l-37 21l-22 -35l-37 23l-25 -33l-30 26l-31 -26l-27 24l-26 -24l-25 31l-35 -23l-24 37l-37 -21l-19 35l-39 -16l-18 41l-39 -13l-12 37l-41 -8l-8 43l-43 -4 l-5 41h-40v35l-35 4l4 41l-41 6l8 43l-41 12l12 37l-28 12zM186 -115v-106h27v55q0 25 27 25h8v28h-6q-13 0 -15 -2l-8 -8l-6 -10h-2v18h-25zM236 76v16q0 2 2 7t2 7q3 14 14 25q4 6 22 19q15 6 33 6h6q2 0 8 -1t9 -1q7 0 14 -7q15 -9 21 -18q4 -4 8 -12l2 -11h-33q0 5 -4 9 l-10 10q-6 4 -19 4h-14l-14 -12q-11 -5 -11 -15q-4 -8 -4 -28q0 -9 4 -29q2 -9 13 -14q16 -8 20 -8h4q13 0 19 4q4 0 12 8q8 16 8 20h-37v27h66v-84h-21l-4 20q-6 -8 -14 -14q-2 -2 -19 -8q-3 0 -9 -1t-9 -1q-13 0 -25 6q-14 7 -20 16q-7 6 -16 27q-4 10 -4 33zM236 702h10 l8 5l10 10l8 10l11 10q5 10 8 13l63 86l19 30l20 31q10 12 21 31l16 33q2 4 0 6t-4 2q-8 0 -10 -2l-8 -4l-33 -41q-7 -7 -15 -19l-16 -20l-55 -80l-27 -41l-22 -43l-4 -6v-11zM262 -78v-24h29v24h-29zM262 -115v-106h29v106h-29zM276 889q0 -1 11 -12l18 -7q15 0 23 2 q4 0 4 2l2 5q0 2 -2 2h-4q-4 0 -4 -2q-15 -3 -29 2q-8 4 -10 8q0 2 -1 5t-1 5q0 6 2 12l6 15l16 18q3 3 6.5 5.5t8.5 6t8 5.5q3 1 10.5 6.5t13.5 7.5l25 12q9 0 29 8l28 4q20 5 27 5q2 0 22 -5q12 0 15 -6l10 -12v-16q0 -13 -2 -21l-10 -18q-2 -5 -8 -12.5t-7 -8.5 q-3 -4 -6 -7t-7 -6.5t-7 -6.5q-4 -7 -21 -19l-22 -14l-25 -10l-14 -6q-1 0 -5.5 -1t-6.5 -1h-4q-4 0 -7 -3q-2 0 -2 -2q-4 0 -4 -4q0 -2 2 -2h4q5 0 7 2h4l26 9l27 12l27 10l26 16l23 17l20 18l17 21q11 17 12 20q4 12 4 19q3 10 0 18l-6 14l-15 11q-16 4 -20 4q-8 2 -23 2 q-8 0 -24 -4q-14 0 -57 -13q-31 -8 -54 -22q-22 -11 -26 -14q-20 -15 -23 -19l-18 -18l-9 -21q-3 -10 0 -16zM317 -115v-106h27v61q0 5 4 17q8 8 17 8q12 0 16 -8q2 -2 2 -15v-63h29v71q0 13 -4 21q-6 8 -13 12q-12 4 -20 4q-21 0 -33 -18v16h-25zM395 57q0 21 6 29 q3 13 17 20q11 9 33 9t28 -9q13 -6 19 -22q4 -10 4 -31v-8h-78q0 -6 8 -18q7 -7 19 -7q3 0 7 1.5t5 1.5q8 8 8 10h31l-10 -21l-17 -12q-20 -4 -24 -4q-56 0 -56 61zM428 68h45q-4 12 -8 16q-8 8 -14 8q-23 0 -23 -24zM430 -166q0 -15 8 -31q5 -12 17 -20q16 -4 22 -4 q18 0 29 14v-18q0 -1 -1 -3t-1 -3q0 -4 -8 -9q-2 -2 -15 -2q-10 0 -12 2l-6 9h-27q0 -7 2 -11q0 -4 4 -8q11 -7 19 -10q3 0 9 -1t9 -1q21 0 33 6q10 5 16 14q4 16 4 27v100h-24l-2 -16q-1 3 -12 14q-12 4 -19 4q-16 0 -24 -8q-10 -6 -15 -20q-6 -24 -6 -25zM461 -168 q0 17 6 23q7 10 14 10t17 -10q8 -8 8 -23q0 -13 -7 -21t-18 -8q-4 0 -12 4q-6 6 -6 11q-2 6 -2 14zM498 717q20 0 20 -15v-49q0 -9 10 -22l17 -4q4 -2 18 -2q13 0 25 4q8 4 10 6q8 5 8 18q-3 -9 -10 -16l-12 -8h-15q-12 0 -18 2q-2 0 -10 8q-4 4 -4 14v49q0 11 4 11 q4 4 14 4h6v4h-63v-4zM510 92v21h16v28h31v-28h16v-21h-16v-61q0 -8 2 -8q4 -3 10 -3l2 3h2v-25h-16q-14 0 -20 4q-6 0 -9 8q-2 2 -2 13v69h-16zM510 821q3 -8 10 -12q9 -9 23 -6q14 0 26 6q13 2 33 14t31 23l24 20l15 15q0 2 4 6l2 4l4 6l16 16l15 21q5 3 10.5 10.5 t7.5 9.5l6 -2l4 -6l2 -6q0 -1 -1 -2.5t-2.5 -3.5t-2.5 -4l-16 -17l-14 -20l-13 -19l-4 -18q-2 -2 -2 -8v-6l4 -8h8q11 0 17 2l16 10q2 2 10 7.5t11 10.5q4 2 10 8.5t8 8.5l8 12l8 10l5 4l4 6q4 4 4 5l12 16l21 31q0 -3 1 -8t1 -7q4 -12 4 -14l4 -8q-15 -3 -25 -13l-20 -14 q-1 -1 -6.5 -7.5t-6.5 -10.5q-2 -6 -2 -17q0 -6 11 -10h18q13 0 25 8q15 7 22 17q2 1 17 16l8 18q6 9 6 19v16q0 7 -4 15l-6 16l-7 6q0 4 -4 8l-2 4v11h-8l-4 -4l-12 -9l-4 -12l-2 -2l-4 -6l-33 -45l-4 -6l-6 -11h-3v-2l-4 -2l-4 -8l-6 -8l-14 -18l-23 -21l-12 -6 q-4 -4 -12 -4v2l8 10l6 10l8 11l6 8l9 14l10 14l4 15q2 6 2 14q-2 2 -2 8l-2 4q0 5 -2 7v22l6 10q4 8 -4 13q-3 7 -17 0q-9 -2 -16 -9q-5 -3 -10 -12q-4 -4 -4 -10q0 -8 2 -12l4 -2q0 -1 4 -5l-12 -12l-23 -31l-20 -22q-4 0 -4 -4v-2l-2 -2l-2 -2l-11 -15q-26 -21 -28 -22 q-13 -13 -33 -23l-21 -8q-12 -4 -18 -2q-6 0 -6 4q-2 2 -2 6q0 3 4 11l2 8l10 16q4 -2 12 -2h19q10 3 26 12q4 1 7.5 3t8.5 6t9 6l14 16q1 2 4 5t5 5.5t2 5.5l8 13q0 12 -4 14q-4 8 -8 10h-19q-12 0 -18 -4l-21 -8q-26 -13 -45 -29q-21 -17 -29 -34q-3 -3 -12 -21 q-6 -8 -8 -18v-17zM545 -115v-20h14v-64q0 -10 2 -12q0 -3 10 -8q4 -2 17 -2h16v22h-2l-4 -2l-8 2q-2 2 -2 9v55h16v20h-16v27h-29v-27h-14zM567 870l15 23l18 20l6 9l10 8l11 10l12 4q8 3 14 0v-10l-6 -8q-6 -6 -6 -11l-10 -10q0 -2 -8 -10q-7 -7 -9 -8l-10 -8l-12 -9 q-6 -2 -12 -2q-11 0 -13 2zM580 717h10l4 -2q12 -3 12 -23v15l10 8q2 0 2 2h9v4h-47v-4zM610 -115l2 -8l37 -102q0 -4 -2 -6v-5q-4 -4 -6 -4h-16v-22h14q3 0 7.5 1t6.5 1q5 0 11 6l6 12l8 23l2 2l35 102h-31l-20 -78l-21 78h-33zM639 694q0 -2 4 -10q0 -6 6 -6l13 -6 q2 -2 20 -6l8 -2q10 -5 12 -5q5 0 9 -4l2 -2q6 -3 6 -10l-4 -8q-2 -4 -8 -6h-11q-10 0 -16 2l-16 6l-11 10q-10 10 -10 21h-2v-43h2q0 6 4 6q4 4 8 4q1 0 3 -1t4 -1q1 0 3 -1t3 -1l14 -4q4 -2 14 -2q5 0 17 4q3 0 12 6q1 1 2.5 4t3.5 4v21l-6 6q-2 5 -12 8l-17 6h-10l-2 2 q-2 1 -5.5 1.5t-5.5 1t-3 1.5q-6 0 -8 2q-3 0 -7 4l-2 6v9l4 4q1 0 9 4q1 0 4.5 1t5.5 1q6 0 14 -4q8 0 12 -4q9 -5 11 -8q2 -1 3.5 -4t3 -7t3.5 -6h2v31h-2q-2 -6 -8 -6h-8q-17 10 -31 10q-9 0 -21 -4l-12 -8q-4 -12 -4 -17zM641 92v21h14v8q0 33 35 33h15v-25h-15 q-4 0 -4 -4v-12h19v-21h-19v-94h-31v94h-14zM723 37v76h29v-70q0 -20 20 -20h10l11 10q0 1 2 5.5t2 6.5v68h26v-115h-26v16q-5 -7 -15 -12q-12 -6 -20 -6q-22 0 -29 12q-10 7 -10 29zM731 -115v-145h27v51q2 -2 2 -4q4 0 6 -2l8 -6q4 -2 14 -2q14 0 25 8q8 5 12 22 q6 12 6 13q0 2 1.5 6t1.5 6q0 12 -7 23q-3 13 -10 20q-4 4 -12 8q-6 4 -17 4q-6 0 -8 -2l-8 -6l-8 -8q-6 -2 -8 -2v16h-25zM741 627h103v39l-6 -13l-11 -14q-6 -6 -8 -6l-10 -2q-4 -2 -12 -2h-15v41h2q10 0 19 -6l4 -7q0 -1 1 -3t1 -3v-8h2v59h-2v-8l-4 -10q-10 -10 -19 -10 h-4v43h17q16 0 22 -2l8 -6l5 -11l6 -14h4v37h-103v-4h4q9 0 11 -4q6 0 6 -11v-57q0 -16 -17 -16h-4v-2zM756 -170q0 15 7 25t17 10q9 0 19 -10q4 -12 4 -23q0 -10 -4 -22q-6 -9 -19 -9q-10 0 -16 9q-8 5 -8 20zM793 868v9l4 10l6 8q8 10 18 18l23 11q0 -2 1 -6t1 -5 q-2 -4 -2 -8v-12l-4 -8l-9 -11l-8 -6q-1 0 -3.5 -1t-4.5 -1q-2 -2 -8 -2q-4 -4 -8 0q-2 0 -6 4zM844 -166q0 -57 49 -57q10 0 22 4q4 1 17 10q4 4 8 21h-27l-6 -9q-8 -4 -14 -4q-10 0 -16 6q-7 7 -7 19h72v6q0 11 -4 27q-6 15 -16 22q-8 8 -31 8q-16 0 -27 -8 q-10 -5 -16 -20q-4 -8 -4 -25zM852 -2v156h29v-156h-29zM870 -158q3 23 21 23q4 0 16 -6q6 -6 6 -17h-43zM903 -2v156h29v-156h-29zM905 674q0 -15 4 -21q1 -1 5 -6.5t8 -7.5q6 -6 18 -10q16 -4 23 -4q17 0 26 6q8 3 23 18q6 9 6 25q0 10 -4 16q-4 13 -10 17q-4 6 -19 10 q-12 6 -22 6q-21 0 -29 -8q-11 -2 -21 -17q-8 -11 -8 -24zM915 901q0 -8 5 -8l10 -8h10h12q6 1 15 4l12 4l27 14l22 21l19 16l14 21l10 16l6 18q4 11 0 15q0 7 -6 10q0 5 -10 8q-1 0 -6 1t-8 1q-7 0 -19 -4l-12 -4l-12 -4l-25 -16l-23 -19l-16 -18l-12 -19q-11 -19 -13 -26 v-23zM928 674q0 2 1 7.5t1 8.5l6 12l6 11q1 1 4.5 2t5.5 2q4 4 13 4q2 -2 6 -2l6 -4l10 -8q0 -2 2.5 -7.5t3.5 -9.5l1 -6q1 -6 1 -10q0 -13 -4 -25l-12 -18q-4 -2 -16 -2q-11 0 -13 2q-9 0 -12 10l-6 12q-4 12 -4 21zM940 895v12q4 15 10 21l15 22l10 13l24 30l19 19l8 8 l10 4q4 2 11 2q2 0 4 -2t2 -8q0 -2 -4 -10l-5 -9l-6 -10l-6 -10l-20 -31l-17 -18l-20 -21q0 -3 -10 -6q-2 -4 -13 -8h-8q-4 0 -4 2zM948 -115v-20h17v-86h26v86h19v20h-19v4l2 9q0 2 2 2h13v22h-13q-30 0 -30 -28v-9h-17zM1010 92v21h14v8q0 33 35 33h12v-25h-12q-2 0 -4 -4 v-12h20v-21h-20v-94h-31v94h-14zM1018 -193q0 -10 4 -18l14 -10q6 -2 15 -2q10 0 14 2q1 1 4.5 2t5.5 2l8 8v-6q0 -1 1 -2t1 -2v-2h31v4q-4 4 -4 6q-2 2 -2 12v56q0 10 -2 14q-3 6 -12 12q-16 4 -29 4q-10 0 -14 -2q-7 0 -11 -2q-8 -3 -14 -12q-6 -6 -6 -21h27q0 8 6 11 q3 6 12 6q14 0 14 -17q0 -6 -8 -6l-24 -4q-11 0 -21 -10q-10 -5 -10 -23zM1032 627h49v2q-6 0 -10 2h-8l-4 10q-2 2 -2 12v56l80 -82h4v65q0 9 4 21q4 4 16 4v4h-47v-4h8q0 -2 4 -2q7 -3 7 -8q4 -4 4 -15v-39l-66 68h-37v-4q8 0 10 -2q1 0 3.5 -1t3.5 -1q2 -4 2 -11v-53 q0 -6 -2 -10l-7 -8q-2 0 -6.5 -1t-5.5 -1v-2zM1047 -190q0 6 4 10t8 4l14 2l8 4v-12q0 -9 -2 -13l-10 -6h-4q-2 -4 -6 -4q-2 0 -8 6q-4 4 -4 9zM1051 905q1 0 3 -1t3 -1q4 0 8 2l8 4q0 2 4 6q1 0 2 1.5t2 1.5l4 6q0 4 5 4l16 22l20 21l17 20l22 21l29 28l10 9l10 8l13 4 q2 0 2 -2h-2l-4 -4q-2 -5 -9 -8l-4 -7l-12 -14q-3 -2 -7 -7.5t-5 -6.5l-15 -23l-14 -20l-6 -19q-3 -10 0 -16t8 -6h19q3 1 10 5.5t12 6.5l19 14l22 23q-2 -2 -2 -6q0 -7 4 -15q2 -4 10 -8q6 -2 21 2q10 2 24 13l21 14l14 14l13 13v-5q0 -1 -1.5 -3t-1.5 -3v-6q-3 -7 0 -10 q0 -1 1.5 -3t1.5 -3q0 -6 6 -6h16l6 4l8 6l13 6l32 27l17 16l-4 -12q-4 -6 -4 -19v-6l4 -2q0 -2 6 -2q4 0 8 4q9 0 12 6l11 6l12 13q2 0 10 8q3 2 19 18l18 21v4q0 2 -2 2q-4 0 -8 -4l-2 -4l-13 -15l-10 -12q-9 -6 -12 -12l-14 -12l-9 -7l-8 -2q-2 0 -2 -2q-2 0 -4 2h2l8 15 q4 8 8 12l7 12q3 2 8 11l63 92q12 11 13 16l16 16l37 43q13 13 33 41l10 19v8q-2 2 -8 2q-3 0 -11 -4l-12 -6q-4 0 -10 -6l-8 -6l-23 -19l-16 -18q-7 -7 -19 -23q-1 -2 -14 -20l-27 -41l-26 -45l-19 -33l-8 -16h-2l-14 -15q-1 -2 -19 -20l-18 -17l-10 -8l-7 -4q-2 -2 -4 -2 l-4 -4h-10l12 20l2 4q12 20 19 27l16 29l15 20l8 13l6 10l2 2q0 2 2 2q0 1 1 2t1 2q6 3 4 8q0 2 -6 2l-10 -4l-10 -6l-19 -12l-14 -13q0 7 -2 11q0 3 -6 6q-12 3 -21 0q-16 -4 -22 -8l-25 -13l-18 -16q-26 -19 -37 -39q-14 -17 -21 -37h-4l-16 -18q-22 -17 -23 -17 q-2 -5 -12 -8q-4 -4 -10 -4h-2q-2 2 0 4l6 8l6 11l12 14l21 27q15 19 18 28l8 17q4 11 2 16q0 6 -2 6q0 4 -6 4t-8 -2l-12 -4l-13 -8l-10 -8l-10 -9q-8 -8 -12 -8l-21 -22q-16 -16 -18 -19l-11 -12l-10 -10l2 4l25 35l26 37q0 1 1.5 2t1.5 2q2 2 2 4q2 2 2 6l-7 6q-1 0 -3 1 t-3 1t-4.5 -1t-5.5 -1l-10 -6l-4 -4q-2 -1 -3.5 -4t-2.5 -4l-5 -7l-77 -133zM1083 55q0 7 4 23q2 9 11 18q12 12 20 15q6 4 25 4q16 0 24 -4q1 -1 8 -4t9 -7q4 -4 12 -20q4 -12 4 -25q0 -17 -8 -30q-2 -9 -18 -21q-11 -8 -31 -8q-22 0 -35 8q-2 1 -18 23q-7 14 -7 28z M1114 55q0 -10 6 -22q4 -10 23 -10q16 0 20 10q6 6 6 22t-6 25q-7 10 -20 10q-16 0 -23 -10q-6 -18 -6 -25zM1128 -170q0 -10 5 -25q4 -13 10 -16q12 -12 35 -12q12 0 24 6q4 1 15 12q6 12 6 23h-27q0 -10 -6 -13q-4 -4 -12 -4q-9 0 -13 4l-8 11q0 2 -1 8t-1 10q0 16 8 21 q7 10 17 10q6 0 12 -6q4 -8 4 -13h31q0 3 -10 23q-7 11 -17 14q-12 4 -22 4q-26 0 -39 -16q-11 -26 -11 -41zM1167 627h107v41h-2q-2 -2 -4 -8l-2 -5q-4 -4 -4 -8l-5 -6q-8 -8 -12 -10q-1 0 -6 -1t-8 -1h-25v73q0 11 6 11q2 4 13 4h6v4h-64v-4h4q17 0 17 -15v-57 q0 -16 -17 -16h-4v-2zM1221 -2v115h28v-17q13 19 35 19q15 0 21 -4l14 -13q4 -12 4 -20v-80h-29v70q0 8 -4 16q-6 6 -16 6q-14 0 -19 -8q-4 -4 -4 -19v-65h-30zM1237 -166q0 -57 49 -57q11 0 23 4q6 2 14 10q6 4 10 21h-26l-7 -9q-8 -4 -14 -4q-10 0 -16 6t-6 19h71v6 q0 15 -6 27q-3 17 -14 22q-8 8 -29 8q-18 0 -29 -8q-10 -5 -16 -20q-4 -16 -4 -25zM1264 -158q3 23 20 23q4 0 16 -6q7 -7 7 -17h-43zM1266 963q0 2 2 2q0 2 2 4l6 10l8 10l6 12l8 11l19 24l26 33l7 8l16 13q2 2 8 2q4 2 8 2l7 -4q0 -1 1 -3.5t1 -3.5q0 -4 -2 -8q0 -1 -5 -6 l-16 -22l-12 -23l-17 -14l-16 -19l-10 -8l-13 -10l-10 -8q-2 0 -5 -2t-5 -2q-8 -4 -10 -3h-2q-2 2 -2 5zM1268 717h2q10 0 14 -2q7 -7 8 -10l29 -39v-21q0 -10 -2 -12q-8 -4 -14 -4h-7v-2h68v2h-8q-8 0 -12 4q-5 5 -5 12v23l25 34l4 7q8 4 10 4q0 2 4 2l9 2v4h-47v-4h6 q8 0 10 -2q4 -2 4 -6q0 -5 -6 -11l-19 -26l-24 30q-4 8 -4 9v2q0 2 2 2q0 2 6 2h8v4h-61v-4zM1337 92v21h19v28h26v-28h21v-21h-21v-61l2 -8q2 0 5.5 -1.5t5.5 -1.5l4 3h4v-25h-21q-14 0 -16 4q-7 0 -10 8v82h-19zM1352 -190v-31h30v31h-30zM1401 -170q0 -13 4 -25 q4 -13 10 -16q15 -12 35 -12q16 0 25 6q6 2 16 12q5 9 8 23h-31q0 -10 -6 -13q-2 -4 -12 -4q-8 0 -10 4q-3 2 -8 11q0 2 -1 8t-1 10q0 15 6 21q7 10 16 10q6 0 12 -6l6 -13h29q0 12 -8 23q-12 12 -18 14q-12 4 -23 4q-26 0 -39 -16q-10 -23 -10 -41zM1473 31q0 16 8 24 q20 10 24 11l27 4q10 0 10 8q0 14 -18 14q-9 0 -13 -4q-5 -3 -8 -14h-26q0 15 6 24q5 8 16 13q4 4 12 4h13q24 0 32 -4q12 -12 13 -15q2 -4 2 -14v-72q0 -6 8 -6v-6h-33l-2 4v2q0 2 -1 4.5t-1 3.5l-8 -8l-10 -6q-4 0 -9 -1t-8 -1t-8 1t-8 1q-1 1 -6.5 5t-7.5 7q-4 8 -4 21z M1501 31q0 -8 4 -8q5 -5 11 -5h8l4 2q9 4 10 7q4 8 4 14v14q-6 -6 -12 -6l-14 -4q-7 0 -11 -4q-4 -2 -4 -10zM1511 -168q0 -7 5 -27q6 -14 18 -20q11 -8 31 -8q16 0 28 6q14 7 17 20q6 12 6 29t-2 23q-2 2 -5 9t-5 9q-13 9 -17 10q-12 4 -22 4q-13 0 -25 -4q-10 -3 -16 -12 q-8 -7 -11 -18q-2 -8 -2 -21zM1538 -168q0 14 6 23q3 10 21 10q15 0 18 -10q6 -9 6 -23q0 -13 -6 -22q-3 -9 -18 -9q-18 0 -21 9q-6 9 -6 22zM1567 1167l28 37l13 23l26 35q0 2 2 2q0 4 4 4l2 2q0 -8 -2 -10l-8 -11l-6 -10l-6 -8l-16 -21l-19 -20l-10 -12q-5 -9 -8 -11z M1585 92v21h14v28h33v-28h19v-21h-19v-69q1 0 4.5 -1.5t5.5 -1.5l5 3h4v-25h-19q-14 0 -20 4q-5 0 -8 8q0 1 -2.5 6t-2.5 7v69h-14zM1636 -115v-106h27v63q0 23 16 23q11 0 15 -4t4 -8v-74h26v63q0 23 19 23q16 0 16 -23v-63h27v71q0 11 -4 19q-2 6 -10 14q-12 4 -23 4 q-8 0 -16 -4t-11 -12q-6 9 -12 12q-8 4 -16 4q-22 0 -31 -18v16h-27z" />
<glyph unicode="3" d="M70 -193q0 -12 6 -18q3 -7 10 -10q6 -2 18 -2q9 0 13 2q1 1 4.5 2t5.5 2l8 8q0 -4 2 -6v-6h29v4q-4 4 -4 6q-2 2 -2 12v56q0 10 -2 14q-2 5 -13 12q-12 4 -26 4q-9 0 -13 -2q-10 0 -14 -2q-10 -5 -12 -12q-6 -6 -6 -21h24q0 8 8 11q3 6 13 6q16 0 16 -17q0 -6 -10 -6 l-27 -4q-10 0 -20 -10q-8 -5 -8 -23zM96 -190q0 6 4 10q8 4 13 4l12 2q8 4 10 4v-12q0 -5 -4 -13l-10 -6h-4q-2 -4 -6 -4q-1 0 -2.5 1t-4 2.5t-4.5 2.5q-4 4 -4 9zM125 565v494l268 59l-10 37l41 12l-8 39l41 8l-6 46l41 2v41h36l4 36l39 -6l9 41l43 -6l10 39l39 -10l16 37 l39 -17l23 39l34 -18l23 35l37 -25l24 33l35 -27l27 29l26 -25l27 23l27 -29l34 23l23 -37l39 20l18 -35l37 17l17 -41l43 12l12 -39l39 10l8 -43l43 4l2 -26l404 88v-496l-185 -41l4 -2l-24 -26l24 -29l-32 -27l22 -34l-37 -23l23 -37l-35 -20l14 -37l-39 -17l13 -43 l-37 -12l6 -39l-41 -8l2 -43l-39 -4v-39h-35l-6 -37l-39 2l-8 -37l-43 6l-10 -40l-39 12l-14 -39l-44 16l-18 -39l-37 21l-22 -35l-37 23l-25 -33l-30 26l-31 -26l-27 24l-26 -24l-25 31l-35 -23l-24 37l-37 -21l-19 35l-39 -16l-18 41l-39 -13l-12 37l-41 -8l-8 43l-43 -4 l-5 41h-40v35l-35 4l4 41l-41 6l8 43l-41 12l12 37l-28 12zM186 -115v-106h27v55q0 25 27 25h8v28h-6q-13 0 -15 -2l-8 -8l-6 -10h-2v18h-25zM236 76v16q0 2 2 7t2 7q3 14 14 25q4 6 22 19q15 6 33 6h6q2 0 8 -1t9 -1q7 0 14 -7q15 -9 21 -18q4 -4 8 -12l2 -11h-33q0 5 -4 9 l-10 10q-6 4 -19 4h-14l-14 -12q-11 -5 -11 -15q-4 -8 -4 -28q0 -9 4 -29q2 -9 13 -14q16 -8 20 -8h4q13 0 19 4q4 0 12 8q8 16 8 20h-37v27h66v-84h-21l-4 20q-6 -8 -14 -14q-2 -2 -19 -8q-3 0 -9 -1t-9 -1q-13 0 -25 6q-14 7 -20 16q-7 6 -16 27q-4 10 -4 33zM236 702h10 l8 5l10 10l8 10l11 10q5 10 8 13l63 86l19 30l20 31q10 12 21 31l16 33q2 4 0 6t-4 2q-8 0 -10 -2l-8 -4l-33 -41q-7 -7 -15 -19l-16 -20l-55 -80l-27 -41l-22 -43l-4 -6v-11zM262 -78v-24h29v24h-29zM262 -115v-106h29v106h-29zM276 889q0 -1 11 -12l18 -7q15 0 23 2 q4 0 4 2l2 5q0 2 -2 2h-4q-4 0 -4 -2q-15 -3 -29 2q-8 4 -10 8q0 2 -1 5t-1 5q0 6 2 12l6 15l16 18q3 3 6.5 5.5t8.5 6t8 5.5q3 1 10.5 6.5t13.5 7.5l25 12q9 0 29 8l28 4q20 5 27 5q2 0 22 -5q12 0 15 -6l10 -12v-16q0 -13 -2 -21l-10 -18q-2 -5 -8 -12.5t-7 -8.5 q-3 -4 -6 -7t-7 -6.5t-7 -6.5q-4 -7 -21 -19l-22 -14l-25 -10l-14 -6q-1 0 -5.5 -1t-6.5 -1h-4q-4 0 -7 -3q-2 0 -2 -2q-4 0 -4 -4q0 -2 2 -2h4q5 0 7 2h4l26 9l27 12l27 10l26 16l23 17l20 18l17 21q11 17 12 20q4 12 4 19q3 10 0 18l-6 14l-15 11q-16 4 -20 4q-8 2 -23 2 q-8 0 -24 -4q-14 0 -57 -13q-31 -8 -54 -22q-22 -11 -26 -14q-20 -15 -23 -19l-18 -18l-9 -21q-3 -10 0 -16zM317 -115v-106h27v61q0 5 4 17q8 8 17 8q12 0 16 -8q2 -2 2 -15v-63h29v71q0 13 -4 21q-6 8 -13 12q-12 4 -20 4q-21 0 -33 -18v16h-25zM395 57q0 21 6 29 q3 13 17 20q11 9 33 9t28 -9q13 -6 19 -22q4 -10 4 -31v-8h-78q0 -6 8 -18q7 -7 19 -7q3 0 7 1.5t5 1.5q8 8 8 10h31l-10 -21l-17 -12q-20 -4 -24 -4q-56 0 -56 61zM428 68h45q-4 12 -8 16q-8 8 -14 8q-23 0 -23 -24zM430 -166q0 -15 8 -31q5 -12 17 -20q16 -4 22 -4 q18 0 29 14v-18q0 -1 -1 -3t-1 -3q0 -4 -8 -9q-2 -2 -15 -2q-10 0 -12 2l-6 9h-27q0 -7 2 -11q0 -4 4 -8q11 -7 19 -10q3 0 9 -1t9 -1q21 0 33 6q10 5 16 14q4 16 4 27v100h-24l-2 -16q-1 3 -12 14q-12 4 -19 4q-16 0 -24 -8q-10 -6 -15 -20q-6 -24 -6 -25zM461 -168 q0 17 6 23q7 10 14 10t17 -10q8 -8 8 -23q0 -13 -7 -21t-18 -8q-4 0 -12 4q-6 6 -6 11q-2 6 -2 14zM498 717q20 0 20 -15v-49q0 -9 10 -22l17 -4q4 -2 18 -2q13 0 25 4q8 4 10 6q8 5 8 18q-3 -9 -10 -16l-12 -8h-15q-12 0 -18 2q-2 0 -10 8q-4 4 -4 14v49q0 11 4 11 q4 4 14 4h6v4h-63v-4zM510 92v21h16v28h31v-28h16v-21h-16v-61q0 -8 2 -8q4 -3 10 -3l2 3h2v-25h-16q-14 0 -20 4q-6 0 -9 8q-2 2 -2 13v69h-16zM510 821q3 -8 10 -12q9 -9 23 -6q14 0 26 6q13 2 33 14t31 23l24 20l15 15q0 2 4 6l2 4l4 6l16 16l15 21q5 3 10.5 10.5 t7.5 9.5l6 -2l4 -6l2 -6q0 -1 -1 -2.5t-2.5 -3.5t-2.5 -4l-16 -17l-14 -20l-13 -19l-4 -18q-2 -2 -2 -8v-6l4 -8h8q11 0 17 2l16 10q2 2 10 7.5t11 10.5q4 2 10 8.5t8 8.5l8 12l8 10l5 4l4 6q4 4 4 5l12 16l21 31q0 -3 1 -8t1 -7q4 -12 4 -14l4 -8q-15 -3 -25 -13l-20 -14 q-1 -1 -6.5 -7.5t-6.5 -10.5q-2 -6 -2 -17q0 -6 11 -10h18q13 0 25 8q15 7 22 17q2 1 17 16l8 18q6 9 6 19v16q0 7 -4 15l-6 16l-7 6q0 4 -4 8l-2 4v11h-8l-4 -4l-12 -9l-4 -12l-2 -2l-4 -6l-33 -45l-4 -6l-6 -11h-3v-2l-4 -2l-4 -8l-6 -8l-14 -18l-23 -21l-12 -6 q-4 -4 -12 -4v2l8 10l6 10l8 11l6 8l9 14l10 14l4 15q2 6 2 14q-2 2 -2 8l-2 4q0 5 -2 7v22l6 10q4 8 -4 13q-3 7 -17 0q-9 -2 -16 -9q-5 -3 -10 -12q-4 -4 -4 -10q0 -8 2 -12l4 -2q0 -1 4 -5l-12 -12l-23 -31l-20 -22q-4 0 -4 -4v-2l-2 -2l-2 -2l-11 -15q-26 -21 -28 -22 q-13 -13 -33 -23l-21 -8q-12 -4 -18 -2q-6 0 -6 4q-2 2 -2 6q0 3 4 11l2 8l10 16q4 -2 12 -2h19q10 3 26 12q4 1 7.5 3t8.5 6t9 6l14 16q1 2 4 5t5 5.5t2 5.5l8 13q0 12 -4 14q-4 8 -8 10h-19q-12 0 -18 -4l-21 -8q-26 -13 -45 -29q-21 -17 -29 -34q-3 -3 -12 -21 q-6 -8 -8 -18v-17zM545 -115v-20h14v-64q0 -10 2 -12q0 -3 10 -8q4 -2 17 -2h16v22h-2l-4 -2l-8 2q-2 2 -2 9v55h16v20h-16v27h-29v-27h-14zM567 870l15 23l18 20l6 9l10 8l11 10l12 4q8 3 14 0v-10l-6 -8q-6 -6 -6 -11l-10 -10q0 -2 -8 -10q-7 -7 -9 -8l-10 -8l-12 -9 q-6 -2 -12 -2q-11 0 -13 2zM580 717h10l4 -2q12 -3 12 -23v15l10 8q2 0 2 2h9v4h-47v-4zM610 -115l2 -8l37 -102q0 -4 -2 -6v-5q-4 -4 -6 -4h-16v-22h14q3 0 7.5 1t6.5 1q5 0 11 6l6 12l8 23l2 2l35 102h-31l-20 -78l-21 78h-33zM639 694q0 -2 4 -10q0 -6 6 -6l13 -6 q2 -2 20 -6l8 -2q10 -5 12 -5q5 0 9 -4l2 -2q6 -3 6 -10l-4 -8q-2 -4 -8 -6h-11q-10 0 -16 2l-16 6l-11 10q-10 10 -10 21h-2v-43h2q0 6 4 6q4 4 8 4q1 0 3 -1t4 -1q1 0 3 -1t3 -1l14 -4q4 -2 14 -2q5 0 17 4q3 0 12 6q1 1 2.5 4t3.5 4v21l-6 6q-2 5 -12 8l-17 6h-10l-2 2 q-2 1 -5.5 1.5t-5.5 1t-3 1.5q-6 0 -8 2q-3 0 -7 4l-2 6v9l4 4q1 0 9 4q1 0 4.5 1t5.5 1q6 0 14 -4q8 0 12 -4q9 -5 11 -8q2 -1 3.5 -4t3 -7t3.5 -6h2v31h-2q-2 -6 -8 -6h-8q-17 10 -31 10q-9 0 -21 -4l-12 -8q-4 -12 -4 -17zM641 92v21h14v8q0 33 35 33h15v-25h-15 q-4 0 -4 -4v-12h19v-21h-19v-94h-31v94h-14zM723 37v76h29v-70q0 -20 20 -20h10l11 10q0 1 2 5.5t2 6.5v68h26v-115h-26v16q-5 -7 -15 -12q-12 -6 -20 -6q-22 0 -29 12q-10 7 -10 29zM731 -115v-145h27v51q2 -2 2 -4q4 0 6 -2l8 -6q4 -2 14 -2q14 0 25 8q8 5 12 22 q6 12 6 13q0 2 1.5 6t1.5 6q0 12 -7 23q-3 13 -10 20q-4 4 -12 8q-6 4 -17 4q-6 0 -8 -2l-8 -6l-8 -8q-6 -2 -8 -2v16h-25zM741 627h103v39l-6 -13l-11 -14q-6 -6 -8 -6l-10 -2q-4 -2 -12 -2h-15v41h2q10 0 19 -6l4 -7q0 -1 1 -3t1 -3v-8h2v59h-2v-8l-4 -10q-10 -10 -19 -10 h-4v43h17q16 0 22 -2l8 -6l5 -11l6 -14h4v37h-103v-4h4q9 0 11 -4q6 0 6 -11v-57q0 -16 -17 -16h-4v-2zM756 -170q0 15 7 25t17 10q9 0 19 -10q4 -12 4 -23q0 -10 -4 -22q-6 -9 -19 -9q-10 0 -16 9q-8 5 -8 20zM793 868v9l4 10l6 8q8 10 18 18l23 11q0 -2 1 -6t1 -5 q-2 -4 -2 -8v-12l-4 -8l-9 -11l-8 -6q-1 0 -3.5 -1t-4.5 -1q-2 -2 -8 -2q-4 -4 -8 0q-2 0 -6 4zM844 -166q0 -57 49 -57q10 0 22 4q4 1 17 10q4 4 8 21h-27l-6 -9q-8 -4 -14 -4q-10 0 -16 6q-7 7 -7 19h72v6q0 11 -4 27q-6 15 -16 22q-8 8 -31 8q-16 0 -27 -8 q-10 -5 -16 -20q-4 -8 -4 -25zM852 -2v156h29v-156h-29zM870 -158q3 23 21 23q4 0 16 -6q6 -6 6 -17h-43zM903 -2v156h29v-156h-29zM905 674q0 -15 4 -21q1 -1 5 -6.5t8 -7.5q6 -6 18 -10q16 -4 23 -4q17 0 26 6q8 3 23 18q6 9 6 25q0 10 -4 16q-4 13 -10 17q-4 6 -19 10 q-12 6 -22 6q-21 0 -29 -8q-11 -2 -21 -17q-8 -11 -8 -24zM915 901q0 -8 5 -8l10 -8h10h12q6 1 15 4l12 4l27 14l22 21l19 16l14 21l10 16l6 18q4 11 0 15q0 7 -6 10q0 5 -10 8q-1 0 -6 1t-8 1q-7 0 -19 -4l-12 -4l-12 -4l-25 -16l-23 -19l-16 -18l-12 -19q-11 -19 -13 -26 v-23zM928 674q0 2 1 7.5t1 8.5l6 12l6 11q1 1 4.5 2t5.5 2q4 4 13 4q2 -2 6 -2l6 -4l10 -8q0 -2 2.5 -7.5t3.5 -9.5l1 -6q1 -6 1 -10q0 -13 -4 -25l-12 -18q-4 -2 -16 -2q-11 0 -13 2q-9 0 -12 10l-6 12q-4 12 -4 21zM940 895v12q4 15 10 21l15 22l10 13l24 30l19 19l8 8 l10 4q4 2 11 2q2 0 4 -2t2 -8q0 -2 -4 -10l-5 -9l-6 -10l-6 -10l-20 -31l-17 -18l-20 -21q0 -3 -10 -6q-2 -4 -13 -8h-8q-4 0 -4 2zM948 -115v-20h17v-86h26v86h19v20h-19v4l2 9q0 2 2 2h13v22h-13q-30 0 -30 -28v-9h-17zM1010 92v21h14v8q0 33 35 33h12v-25h-12q-2 0 -4 -4 v-12h20v-21h-20v-94h-31v94h-14zM1018 -193q0 -10 4 -18l14 -10q6 -2 15 -2q10 0 14 2q1 1 4.5 2t5.5 2l8 8v-6q0 -1 1 -2t1 -2v-2h31v4q-4 4 -4 6q-2 2 -2 12v56q0 10 -2 14q-3 6 -12 12q-16 4 -29 4q-10 0 -14 -2q-7 0 -11 -2q-8 -3 -14 -12q-6 -6 -6 -21h27q0 8 6 11 q3 6 12 6q14 0 14 -17q0 -6 -8 -6l-24 -4q-11 0 -21 -10q-10 -5 -10 -23zM1032 627h49v2q-6 0 -10 2h-8l-4 10q-2 2 -2 12v56l80 -82h4v65q0 9 4 21q4 4 16 4v4h-47v-4h8q0 -2 4 -2q7 -3 7 -8q4 -4 4 -15v-39l-66 68h-37v-4q8 0 10 -2q1 0 3.5 -1t3.5 -1q2 -4 2 -11v-53 q0 -6 -2 -10l-7 -8q-2 0 -6.5 -1t-5.5 -1v-2zM1047 -190q0 6 4 10t8 4l14 2l8 4v-12q0 -9 -2 -13l-10 -6h-4q-2 -4 -6 -4q-2 0 -8 6q-4 4 -4 9zM1051 905q1 0 3 -1t3 -1q4 0 8 2l8 4q0 2 4 6q1 0 2 1.5t2 1.5l4 6q0 4 5 4l16 22l20 21l17 20l22 21l29 28l10 9l10 8l13 4 q2 0 2 -2h-2l-4 -4q-2 -5 -9 -8l-4 -7l-12 -14q-3 -2 -7 -7.5t-5 -6.5l-15 -23l-14 -20l-6 -19q-3 -10 0 -16t8 -6h19q3 1 10 5.5t12 6.5l19 14l22 23q-2 -2 -2 -6q0 -7 4 -15q2 -4 10 -8q6 -2 21 2q10 2 24 13l21 14l14 14l13 13v-5q0 -1 -1.5 -3t-1.5 -3v-6q-3 -7 0 -10 q0 -1 1.5 -3t1.5 -3q0 -6 6 -6h16l6 4l8 6l13 6l32 27l17 16l-4 -12q-4 -6 -4 -19v-6l4 -2q0 -2 6 -2q4 0 8 4q9 0 12 6l11 6l12 13q2 0 10 8q3 2 19 18l18 21v4q0 2 -2 2q-4 0 -8 -4l-2 -4l-13 -15l-10 -12q-9 -6 -12 -12l-14 -12l-9 -7l-8 -2q-2 0 -2 -2q-2 0 -4 2h2l8 15 q4 8 8 12l7 12q3 2 8 11l63 92q12 11 13 16l16 16l37 43q13 13 33 41l10 19v8q-2 2 -8 2q-3 0 -11 -4l-12 -6q-4 0 -10 -6l-8 -6l-23 -19l-16 -18q-7 -7 -19 -23q-1 -2 -14 -20l-27 -41l-26 -45l-19 -33l-8 -16h-2l-14 -15q-1 -2 -19 -20l-18 -17l-10 -8l-7 -4q-2 -2 -4 -2 l-4 -4h-10l12 20l2 4q12 20 19 27l16 29l15 20l8 13l6 10l2 2q0 2 2 2q0 1 1 2t1 2q6 3 4 8q0 2 -6 2l-10 -4l-10 -6l-19 -12l-14 -13q0 7 -2 11q0 3 -6 6q-12 3 -21 0q-16 -4 -22 -8l-25 -13l-18 -16q-26 -19 -37 -39q-14 -17 -21 -37h-4l-16 -18q-22 -17 -23 -17 q-2 -5 -12 -8q-4 -4 -10 -4h-2q-2 2 0 4l6 8l6 11l12 14l21 27q15 19 18 28l8 17q4 11 2 16q0 6 -2 6q0 4 -6 4t-8 -2l-12 -4l-13 -8l-10 -8l-10 -9q-8 -8 -12 -8l-21 -22q-16 -16 -18 -19l-11 -12l-10 -10l2 4l25 35l26 37q0 1 1.5 2t1.5 2q2 2 2 4q2 2 2 6l-7 6q-1 0 -3 1 t-3 1t-4.5 -1t-5.5 -1l-10 -6l-4 -4q-2 -1 -3.5 -4t-2.5 -4l-5 -7l-77 -133zM1083 55q0 7 4 23q2 9 11 18q12 12 20 15q6 4 25 4q16 0 24 -4q1 -1 8 -4t9 -7q4 -4 12 -20q4 -12 4 -25q0 -17 -8 -30q-2 -9 -18 -21q-11 -8 -31 -8q-22 0 -35 8q-2 1 -18 23q-7 14 -7 28z M1114 55q0 -10 6 -22q4 -10 23 -10q16 0 20 10q6 6 6 22t-6 25q-7 10 -20 10q-16 0 -23 -10q-6 -18 -6 -25zM1128 -170q0 -10 5 -25q4 -13 10 -16q12 -12 35 -12q12 0 24 6q4 1 15 12q6 12 6 23h-27q0 -10 -6 -13q-4 -4 -12 -4q-9 0 -13 4l-8 11q0 2 -1 8t-1 10q0 16 8 21 q7 10 17 10q6 0 12 -6q4 -8 4 -13h31q0 3 -10 23q-7 11 -17 14q-12 4 -22 4q-26 0 -39 -16q-11 -26 -11 -41zM1167 627h107v41h-2q-2 -2 -4 -8l-2 -5q-4 -4 -4 -8l-5 -6q-8 -8 -12 -10q-1 0 -6 -1t-8 -1h-25v73q0 11 6 11q2 4 13 4h6v4h-64v-4h4q17 0 17 -15v-57 q0 -16 -17 -16h-4v-2zM1221 -2v115h28v-17q13 19 35 19q15 0 21 -4l14 -13q4 -12 4 -20v-80h-29v70q0 8 -4 16q-6 6 -16 6q-14 0 -19 -8q-4 -4 -4 -19v-65h-30zM1237 -166q0 -57 49 -57q11 0 23 4q6 2 14 10q6 4 10 21h-26l-7 -9q-8 -4 -14 -4q-10 0 -16 6t-6 19h71v6 q0 15 -6 27q-3 17 -14 22q-8 8 -29 8q-18 0 -29 -8q-10 -5 -16 -20q-4 -16 -4 -25zM1264 -158q3 23 20 23q4 0 16 -6q7 -7 7 -17h-43zM1266 963q0 2 2 2q0 2 2 4l6 10l8 10l6 12l8 11l19 24l26 33l7 8l16 13q2 2 8 2q4 2 8 2l7 -4q0 -1 1 -3.5t1 -3.5q0 -4 -2 -8q0 -1 -5 -6 l-16 -22l-12 -23l-17 -14l-16 -19l-10 -8l-13 -10l-10 -8q-2 0 -5 -2t-5 -2q-8 -4 -10 -3h-2q-2 2 -2 5zM1268 717h2q10 0 14 -2q7 -7 8 -10l29 -39v-21q0 -10 -2 -12q-8 -4 -14 -4h-7v-2h68v2h-8q-8 0 -12 4q-5 5 -5 12v23l25 34l4 7q8 4 10 4q0 2 4 2l9 2v4h-47v-4h6 q8 0 10 -2q4 -2 4 -6q0 -5 -6 -11l-19 -26l-24 30q-4 8 -4 9v2q0 2 2 2q0 2 6 2h8v4h-61v-4zM1337 92v21h19v28h26v-28h21v-21h-21v-61l2 -8q2 0 5.5 -1.5t5.5 -1.5l4 3h4v-25h-21q-14 0 -16 4q-7 0 -10 8v82h-19zM1352 -190v-31h30v31h-30zM1401 -170q0 -13 4 -25 q4 -13 10 -16q15 -12 35 -12q16 0 25 6q6 2 16 12q5 9 8 23h-31q0 -10 -6 -13q-2 -4 -12 -4q-8 0 -10 4q-3 2 -8 11q0 2 -1 8t-1 10q0 15 6 21q7 10 16 10q6 0 12 -6l6 -13h29q0 12 -8 23q-12 12 -18 14q-12 4 -23 4q-26 0 -39 -16q-10 -23 -10 -41zM1473 31q0 16 8 24 q20 10 24 11l27 4q10 0 10 8q0 14 -18 14q-9 0 -13 -4q-5 -3 -8 -14h-26q0 15 6 24q5 8 16 13q4 4 12 4h13q24 0 32 -4q12 -12 13 -15q2 -4 2 -14v-72q0 -6 8 -6v-6h-33l-2 4v2q0 2 -1 4.5t-1 3.5l-8 -8l-10 -6q-4 0 -9 -1t-8 -1t-8 1t-8 1q-1 1 -6.5 5t-7.5 7q-4 8 -4 21z M1501 31q0 -8 4 -8q5 -5 11 -5h8l4 2q9 4 10 7q4 8 4 14v14q-6 -6 -12 -6l-14 -4q-7 0 -11 -4q-4 -2 -4 -10zM1511 -168q0 -7 5 -27q6 -14 18 -20q11 -8 31 -8q16 0 28 6q14 7 17 20q6 12 6 29t-2 23q-2 2 -5 9t-5 9q-13 9 -17 10q-12 4 -22 4q-13 0 -25 -4q-10 -3 -16 -12 q-8 -7 -11 -18q-2 -8 -2 -21zM1538 -168q0 14 6 23q3 10 21 10q15 0 18 -10q6 -9 6 -23q0 -13 -6 -22q-3 -9 -18 -9q-18 0 -21 9q-6 9 -6 22zM1567 1167l28 37l13 23l26 35q0 2 2 2q0 4 4 4l2 2q0 -8 -2 -10l-8 -11l-6 -10l-6 -8l-16 -21l-19 -20l-10 -12q-5 -9 -8 -11z M1585 92v21h14v28h33v-28h19v-21h-19v-69q1 0 4.5 -1.5t5.5 -1.5l5 3h4v-25h-19q-14 0 -20 4q-5 0 -8 8q0 1 -2.5 6t-2.5 7v69h-14zM1636 -115v-106h27v63q0 23 16 23q11 0 15 -4t4 -8v-74h26v63q0 23 19 23q16 0 16 -23v-63h27v71q0 11 -4 19q-2 6 -10 14q-12 4 -23 4 q-8 0 -16 -4t-11 -12q-6 9 -12 12q-8 4 -16 4q-22 0 -31 -18v16h-27z" />
<glyph unicode="4" d="M70 -193q0 -12 6 -18q3 -7 10 -10q6 -2 18 -2q9 0 13 2q1 1 4.5 2t5.5 2l8 8q0 -4 2 -6v-6h29v4q-4 4 -4 6q-2 2 -2 12v56q0 10 -2 14q-2 5 -13 12q-12 4 -26 4q-9 0 -13 -2q-10 0 -14 -2q-10 -5 -12 -12q-6 -6 -6 -21h24q0 8 8 11q3 6 13 6q16 0 16 -17q0 -6 -10 -6 l-27 -4q-10 0 -20 -10q-8 -5 -8 -23zM96 -190q0 6 4 10q8 4 13 4l12 2q8 4 10 4v-12q0 -5 -4 -13l-10 -6h-4q-2 -4 -6 -4q-1 0 -2.5 1t-4 2.5t-4.5 2.5q-4 4 -4 9zM125 565v494l268 59l-10 37l41 12l-8 39l41 8l-6 46l41 2v41h36l4 36l39 -6l9 41l43 -6l10 39l39 -10l16 37 l39 -17l23 39l34 -18l23 35l37 -25l24 33l35 -27l27 29l26 -25l27 23l27 -29l34 23l23 -37l39 20l18 -35l37 17l17 -41l43 12l12 -39l39 10l8 -43l43 4l2 -26l404 88v-496l-185 -41l4 -2l-24 -26l24 -29l-32 -27l22 -34l-37 -23l23 -37l-35 -20l14 -37l-39 -17l13 -43 l-37 -12l6 -39l-41 -8l2 -43l-39 -4v-39h-35l-6 -37l-39 2l-8 -37l-43 6l-10 -40l-39 12l-14 -39l-44 16l-18 -39l-37 21l-22 -35l-37 23l-25 -33l-30 26l-31 -26l-27 24l-26 -24l-25 31l-35 -23l-24 37l-37 -21l-19 35l-39 -16l-18 41l-39 -13l-12 37l-41 -8l-8 43l-43 -4 l-5 41h-40v35l-35 4l4 41l-41 6l8 43l-41 12l12 37l-28 12zM186 -115v-106h27v55q0 25 27 25h8v28h-6q-13 0 -15 -2l-8 -8l-6 -10h-2v18h-25zM236 76v16q0 2 2 7t2 7q3 14 14 25q4 6 22 19q15 6 33 6h6q2 0 8 -1t9 -1q7 0 14 -7q15 -9 21 -18q4 -4 8 -12l2 -11h-33q0 5 -4 9 l-10 10q-6 4 -19 4h-14l-14 -12q-11 -5 -11 -15q-4 -8 -4 -28q0 -9 4 -29q2 -9 13 -14q16 -8 20 -8h4q13 0 19 4q4 0 12 8q8 16 8 20h-37v27h66v-84h-21l-4 20q-6 -8 -14 -14q-2 -2 -19 -8q-3 0 -9 -1t-9 -1q-13 0 -25 6q-14 7 -20 16q-7 6 -16 27q-4 10 -4 33zM236 702h10 l8 5l10 10l8 10l11 10q5 10 8 13l63 86l19 30l20 31q10 12 21 31l16 33q2 4 0 6t-4 2q-8 0 -10 -2l-8 -4l-33 -41q-7 -7 -15 -19l-16 -20l-55 -80l-27 -41l-22 -43l-4 -6v-11zM262 -78v-24h29v24h-29zM262 -115v-106h29v106h-29zM276 889q0 -1 11 -12l18 -7q15 0 23 2 q4 0 4 2l2 5q0 2 -2 2h-4q-4 0 -4 -2q-15 -3 -29 2q-8 4 -10 8q0 2 -1 5t-1 5q0 6 2 12l6 15l16 18q3 3 6.5 5.5t8.5 6t8 5.5q3 1 10.5 6.5t13.5 7.5l25 12q9 0 29 8l28 4q20 5 27 5q2 0 22 -5q12 0 15 -6l10 -12v-16q0 -13 -2 -21l-10 -18q-2 -5 -8 -12.5t-7 -8.5 q-3 -4 -6 -7t-7 -6.5t-7 -6.5q-4 -7 -21 -19l-22 -14l-25 -10l-14 -6q-1 0 -5.5 -1t-6.5 -1h-4q-4 0 -7 -3q-2 0 -2 -2q-4 0 -4 -4q0 -2 2 -2h4q5 0 7 2h4l26 9l27 12l27 10l26 16l23 17l20 18l17 21q11 17 12 20q4 12 4 19q3 10 0 18l-6 14l-15 11q-16 4 -20 4q-8 2 -23 2 q-8 0 -24 -4q-14 0 -57 -13q-31 -8 -54 -22q-22 -11 -26 -14q-20 -15 -23 -19l-18 -18l-9 -21q-3 -10 0 -16zM317 -115v-106h27v61q0 5 4 17q8 8 17 8q12 0 16 -8q2 -2 2 -15v-63h29v71q0 13 -4 21q-6 8 -13 12q-12 4 -20 4q-21 0 -33 -18v16h-25zM395 57q0 21 6 29 q3 13 17 20q11 9 33 9t28 -9q13 -6 19 -22q4 -10 4 -31v-8h-78q0 -6 8 -18q7 -7 19 -7q3 0 7 1.5t5 1.5q8 8 8 10h31l-10 -21l-17 -12q-20 -4 -24 -4q-56 0 -56 61zM428 68h45q-4 12 -8 16q-8 8 -14 8q-23 0 -23 -24zM430 -166q0 -15 8 -31q5 -12 17 -20q16 -4 22 -4 q18 0 29 14v-18q0 -1 -1 -3t-1 -3q0 -4 -8 -9q-2 -2 -15 -2q-10 0 -12 2l-6 9h-27q0 -7 2 -11q0 -4 4 -8q11 -7 19 -10q3 0 9 -1t9 -1q21 0 33 6q10 5 16 14q4 16 4 27v100h-24l-2 -16q-1 3 -12 14q-12 4 -19 4q-16 0 -24 -8q-10 -6 -15 -20q-6 -24 -6 -25zM461 -168 q0 17 6 23q7 10 14 10t17 -10q8 -8 8 -23q0 -13 -7 -21t-18 -8q-4 0 -12 4q-6 6 -6 11q-2 6 -2 14zM498 717q20 0 20 -15v-49q0 -9 10 -22l17 -4q4 -2 18 -2q13 0 25 4q8 4 10 6q8 5 8 18q-3 -9 -10 -16l-12 -8h-15q-12 0 -18 2q-2 0 -10 8q-4 4 -4 14v49q0 11 4 11 q4 4 14 4h6v4h-63v-4zM510 92v21h16v28h31v-28h16v-21h-16v-61q0 -8 2 -8q4 -3 10 -3l2 3h2v-25h-16q-14 0 -20 4q-6 0 -9 8q-2 2 -2 13v69h-16zM510 821q3 -8 10 -12q9 -9 23 -6q14 0 26 6q13 2 33 14t31 23l24 20l15 15q0 2 4 6l2 4l4 6l16 16l15 21q5 3 10.5 10.5 t7.5 9.5l6 -2l4 -6l2 -6q0 -1 -1 -2.5t-2.5 -3.5t-2.5 -4l-16 -17l-14 -20l-13 -19l-4 -18q-2 -2 -2 -8v-6l4 -8h8q11 0 17 2l16 10q2 2 10 7.5t11 10.5q4 2 10 8.5t8 8.5l8 12l8 10l5 4l4 6q4 4 4 5l12 16l21 31q0 -3 1 -8t1 -7q4 -12 4 -14l4 -8q-15 -3 -25 -13l-20 -14 q-1 -1 -6.5 -7.5t-6.5 -10.5q-2 -6 -2 -17q0 -6 11 -10h18q13 0 25 8q15 7 22 17q2 1 17 16l8 18q6 9 6 19v16q0 7 -4 15l-6 16l-7 6q0 4 -4 8l-2 4v11h-8l-4 -4l-12 -9l-4 -12l-2 -2l-4 -6l-33 -45l-4 -6l-6 -11h-3v-2l-4 -2l-4 -8l-6 -8l-14 -18l-23 -21l-12 -6 q-4 -4 -12 -4v2l8 10l6 10l8 11l6 8l9 14l10 14l4 15q2 6 2 14q-2 2 -2 8l-2 4q0 5 -2 7v22l6 10q4 8 -4 13q-3 7 -17 0q-9 -2 -16 -9q-5 -3 -10 -12q-4 -4 -4 -10q0 -8 2 -12l4 -2q0 -1 4 -5l-12 -12l-23 -31l-20 -22q-4 0 -4 -4v-2l-2 -2l-2 -2l-11 -15q-26 -21 -28 -22 q-13 -13 -33 -23l-21 -8q-12 -4 -18 -2q-6 0 -6 4q-2 2 -2 6q0 3 4 11l2 8l10 16q4 -2 12 -2h19q10 3 26 12q4 1 7.5 3t8.5 6t9 6l14 16q1 2 4 5t5 5.5t2 5.5l8 13q0 12 -4 14q-4 8 -8 10h-19q-12 0 -18 -4l-21 -8q-26 -13 -45 -29q-21 -17 -29 -34q-3 -3 -12 -21 q-6 -8 -8 -18v-17zM545 -115v-20h14v-64q0 -10 2 -12q0 -3 10 -8q4 -2 17 -2h16v22h-2l-4 -2l-8 2q-2 2 -2 9v55h16v20h-16v27h-29v-27h-14zM567 870l15 23l18 20l6 9l10 8l11 10l12 4q8 3 14 0v-10l-6 -8q-6 -6 -6 -11l-10 -10q0 -2 -8 -10q-7 -7 -9 -8l-10 -8l-12 -9 q-6 -2 -12 -2q-11 0 -13 2zM580 717h10l4 -2q12 -3 12 -23v15l10 8q2 0 2 2h9v4h-47v-4zM610 -115l2 -8l37 -102q0 -4 -2 -6v-5q-4 -4 -6 -4h-16v-22h14q3 0 7.5 1t6.5 1q5 0 11 6l6 12l8 23l2 2l35 102h-31l-20 -78l-21 78h-33zM639 694q0 -2 4 -10q0 -6 6 -6l13 -6 q2 -2 20 -6l8 -2q10 -5 12 -5q5 0 9 -4l2 -2q6 -3 6 -10l-4 -8q-2 -4 -8 -6h-11q-10 0 -16 2l-16 6l-11 10q-10 10 -10 21h-2v-43h2q0 6 4 6q4 4 8 4q1 0 3 -1t4 -1q1 0 3 -1t3 -1l14 -4q4 -2 14 -2q5 0 17 4q3 0 12 6q1 1 2.5 4t3.5 4v21l-6 6q-2 5 -12 8l-17 6h-10l-2 2 q-2 1 -5.5 1.5t-5.5 1t-3 1.5q-6 0 -8 2q-3 0 -7 4l-2 6v9l4 4q1 0 9 4q1 0 4.5 1t5.5 1q6 0 14 -4q8 0 12 -4q9 -5 11 -8q2 -1 3.5 -4t3 -7t3.5 -6h2v31h-2q-2 -6 -8 -6h-8q-17 10 -31 10q-9 0 -21 -4l-12 -8q-4 -12 -4 -17zM641 92v21h14v8q0 33 35 33h15v-25h-15 q-4 0 -4 -4v-12h19v-21h-19v-94h-31v94h-14zM723 37v76h29v-70q0 -20 20 -20h10l11 10q0 1 2 5.5t2 6.5v68h26v-115h-26v16q-5 -7 -15 -12q-12 -6 -20 -6q-22 0 -29 12q-10 7 -10 29zM731 -115v-145h27v51q2 -2 2 -4q4 0 6 -2l8 -6q4 -2 14 -2q14 0 25 8q8 5 12 22 q6 12 6 13q0 2 1.5 6t1.5 6q0 12 -7 23q-3 13 -10 20q-4 4 -12 8q-6 4 -17 4q-6 0 -8 -2l-8 -6l-8 -8q-6 -2 -8 -2v16h-25zM741 627h103v39l-6 -13l-11 -14q-6 -6 -8 -6l-10 -2q-4 -2 -12 -2h-15v41h2q10 0 19 -6l4 -7q0 -1 1 -3t1 -3v-8h2v59h-2v-8l-4 -10q-10 -10 -19 -10 h-4v43h17q16 0 22 -2l8 -6l5 -11l6 -14h4v37h-103v-4h4q9 0 11 -4q6 0 6 -11v-57q0 -16 -17 -16h-4v-2zM756 -170q0 15 7 25t17 10q9 0 19 -10q4 -12 4 -23q0 -10 -4 -22q-6 -9 -19 -9q-10 0 -16 9q-8 5 -8 20zM793 868v9l4 10l6 8q8 10 18 18l23 11q0 -2 1 -6t1 -5 q-2 -4 -2 -8v-12l-4 -8l-9 -11l-8 -6q-1 0 -3.5 -1t-4.5 -1q-2 -2 -8 -2q-4 -4 -8 0q-2 0 -6 4zM844 -166q0 -57 49 -57q10 0 22 4q4 1 17 10q4 4 8 21h-27l-6 -9q-8 -4 -14 -4q-10 0 -16 6q-7 7 -7 19h72v6q0 11 -4 27q-6 15 -16 22q-8 8 -31 8q-16 0 -27 -8 q-10 -5 -16 -20q-4 -8 -4 -25zM852 -2v156h29v-156h-29zM870 -158q3 23 21 23q4 0 16 -6q6 -6 6 -17h-43zM903 -2v156h29v-156h-29zM905 674q0 -15 4 -21q1 -1 5 -6.5t8 -7.5q6 -6 18 -10q16 -4 23 -4q17 0 26 6q8 3 23 18q6 9 6 25q0 10 -4 16q-4 13 -10 17q-4 6 -19 10 q-12 6 -22 6q-21 0 -29 -8q-11 -2 -21 -17q-8 -11 -8 -24zM915 901q0 -8 5 -8l10 -8h10h12q6 1 15 4l12 4l27 14l22 21l19 16l14 21l10 16l6 18q4 11 0 15q0 7 -6 10q0 5 -10 8q-1 0 -6 1t-8 1q-7 0 -19 -4l-12 -4l-12 -4l-25 -16l-23 -19l-16 -18l-12 -19q-11 -19 -13 -26 v-23zM928 674q0 2 1 7.5t1 8.5l6 12l6 11q1 1 4.5 2t5.5 2q4 4 13 4q2 -2 6 -2l6 -4l10 -8q0 -2 2.5 -7.5t3.5 -9.5l1 -6q1 -6 1 -10q0 -13 -4 -25l-12 -18q-4 -2 -16 -2q-11 0 -13 2q-9 0 -12 10l-6 12q-4 12 -4 21zM940 895v12q4 15 10 21l15 22l10 13l24 30l19 19l8 8 l10 4q4 2 11 2q2 0 4 -2t2 -8q0 -2 -4 -10l-5 -9l-6 -10l-6 -10l-20 -31l-17 -18l-20 -21q0 -3 -10 -6q-2 -4 -13 -8h-8q-4 0 -4 2zM948 -115v-20h17v-86h26v86h19v20h-19v4l2 9q0 2 2 2h13v22h-13q-30 0 -30 -28v-9h-17zM1010 92v21h14v8q0 33 35 33h12v-25h-12q-2 0 -4 -4 v-12h20v-21h-20v-94h-31v94h-14zM1018 -193q0 -10 4 -18l14 -10q6 -2 15 -2q10 0 14 2q1 1 4.5 2t5.5 2l8 8v-6q0 -1 1 -2t1 -2v-2h31v4q-4 4 -4 6q-2 2 -2 12v56q0 10 -2 14q-3 6 -12 12q-16 4 -29 4q-10 0 -14 -2q-7 0 -11 -2q-8 -3 -14 -12q-6 -6 -6 -21h27q0 8 6 11 q3 6 12 6q14 0 14 -17q0 -6 -8 -6l-24 -4q-11 0 -21 -10q-10 -5 -10 -23zM1032 627h49v2q-6 0 -10 2h-8l-4 10q-2 2 -2 12v56l80 -82h4v65q0 9 4 21q4 4 16 4v4h-47v-4h8q0 -2 4 -2q7 -3 7 -8q4 -4 4 -15v-39l-66 68h-37v-4q8 0 10 -2q1 0 3.5 -1t3.5 -1q2 -4 2 -11v-53 q0 -6 -2 -10l-7 -8q-2 0 -6.5 -1t-5.5 -1v-2zM1047 -190q0 6 4 10t8 4l14 2l8 4v-12q0 -9 -2 -13l-10 -6h-4q-2 -4 -6 -4q-2 0 -8 6q-4 4 -4 9zM1051 905q1 0 3 -1t3 -1q4 0 8 2l8 4q0 2 4 6q1 0 2 1.5t2 1.5l4 6q0 4 5 4l16 22l20 21l17 20l22 21l29 28l10 9l10 8l13 4 q2 0 2 -2h-2l-4 -4q-2 -5 -9 -8l-4 -7l-12 -14q-3 -2 -7 -7.5t-5 -6.5l-15 -23l-14 -20l-6 -19q-3 -10 0 -16t8 -6h19q3 1 10 5.5t12 6.5l19 14l22 23q-2 -2 -2 -6q0 -7 4 -15q2 -4 10 -8q6 -2 21 2q10 2 24 13l21 14l14 14l13 13v-5q0 -1 -1.5 -3t-1.5 -3v-6q-3 -7 0 -10 q0 -1 1.5 -3t1.5 -3q0 -6 6 -6h16l6 4l8 6l13 6l32 27l17 16l-4 -12q-4 -6 -4 -19v-6l4 -2q0 -2 6 -2q4 0 8 4q9 0 12 6l11 6l12 13q2 0 10 8q3 2 19 18l18 21v4q0 2 -2 2q-4 0 -8 -4l-2 -4l-13 -15l-10 -12q-9 -6 -12 -12l-14 -12l-9 -7l-8 -2q-2 0 -2 -2q-2 0 -4 2h2l8 15 q4 8 8 12l7 12q3 2 8 11l63 92q12 11 13 16l16 16l37 43q13 13 33 41l10 19v8q-2 2 -8 2q-3 0 -11 -4l-12 -6q-4 0 -10 -6l-8 -6l-23 -19l-16 -18q-7 -7 -19 -23q-1 -2 -14 -20l-27 -41l-26 -45l-19 -33l-8 -16h-2l-14 -15q-1 -2 -19 -20l-18 -17l-10 -8l-7 -4q-2 -2 -4 -2 l-4 -4h-10l12 20l2 4q12 20 19 27l16 29l15 20l8 13l6 10l2 2q0 2 2 2q0 1 1 2t1 2q6 3 4 8q0 2 -6 2l-10 -4l-10 -6l-19 -12l-14 -13q0 7 -2 11q0 3 -6 6q-12 3 -21 0q-16 -4 -22 -8l-25 -13l-18 -16q-26 -19 -37 -39q-14 -17 -21 -37h-4l-16 -18q-22 -17 -23 -17 q-2 -5 -12 -8q-4 -4 -10 -4h-2q-2 2 0 4l6 8l6 11l12 14l21 27q15 19 18 28l8 17q4 11 2 16q0 6 -2 6q0 4 -6 4t-8 -2l-12 -4l-13 -8l-10 -8l-10 -9q-8 -8 -12 -8l-21 -22q-16 -16 -18 -19l-11 -12l-10 -10l2 4l25 35l26 37q0 1 1.5 2t1.5 2q2 2 2 4q2 2 2 6l-7 6q-1 0 -3 1 t-3 1t-4.5 -1t-5.5 -1l-10 -6l-4 -4q-2 -1 -3.5 -4t-2.5 -4l-5 -7l-77 -133zM1083 55q0 7 4 23q2 9 11 18q12 12 20 15q6 4 25 4q16 0 24 -4q1 -1 8 -4t9 -7q4 -4 12 -20q4 -12 4 -25q0 -17 -8 -30q-2 -9 -18 -21q-11 -8 -31 -8q-22 0 -35 8q-2 1 -18 23q-7 14 -7 28z M1114 55q0 -10 6 -22q4 -10 23 -10q16 0 20 10q6 6 6 22t-6 25q-7 10 -20 10q-16 0 -23 -10q-6 -18 -6 -25zM1128 -170q0 -10 5 -25q4 -13 10 -16q12 -12 35 -12q12 0 24 6q4 1 15 12q6 12 6 23h-27q0 -10 -6 -13q-4 -4 -12 -4q-9 0 -13 4l-8 11q0 2 -1 8t-1 10q0 16 8 21 q7 10 17 10q6 0 12 -6q4 -8 4 -13h31q0 3 -10 23q-7 11 -17 14q-12 4 -22 4q-26 0 -39 -16q-11 -26 -11 -41zM1167 627h107v41h-2q-2 -2 -4 -8l-2 -5q-4 -4 -4 -8l-5 -6q-8 -8 -12 -10q-1 0 -6 -1t-8 -1h-25v73q0 11 6 11q2 4 13 4h6v4h-64v-4h4q17 0 17 -15v-57 q0 -16 -17 -16h-4v-2zM1221 -2v115h28v-17q13 19 35 19q15 0 21 -4l14 -13q4 -12 4 -20v-80h-29v70q0 8 -4 16q-6 6 -16 6q-14 0 -19 -8q-4 -4 -4 -19v-65h-30zM1237 -166q0 -57 49 -57q11 0 23 4q6 2 14 10q6 4 10 21h-26l-7 -9q-8 -4 -14 -4q-10 0 -16 6t-6 19h71v6 q0 15 -6 27q-3 17 -14 22q-8 8 -29 8q-18 0 -29 -8q-10 -5 -16 -20q-4 -16 -4 -25zM1264 -158q3 23 20 23q4 0 16 -6q7 -7 7 -17h-43zM1266 963q0 2 2 2q0 2 2 4l6 10l8 10l6 12l8 11l19 24l26 33l7 8l16 13q2 2 8 2q4 2 8 2l7 -4q0 -1 1 -3.5t1 -3.5q0 -4 -2 -8q0 -1 -5 -6 l-16 -22l-12 -23l-17 -14l-16 -19l-10 -8l-13 -10l-10 -8q-2 0 -5 -2t-5 -2q-8 -4 -10 -3h-2q-2 2 -2 5zM1268 717h2q10 0 14 -2q7 -7 8 -10l29 -39v-21q0 -10 -2 -12q-8 -4 -14 -4h-7v-2h68v2h-8q-8 0 -12 4q-5 5 -5 12v23l25 34l4 7q8 4 10 4q0 2 4 2l9 2v4h-47v-4h6 q8 0 10 -2q4 -2 4 -6q0 -5 -6 -11l-19 -26l-24 30q-4 8 -4 9v2q0 2 2 2q0 2 6 2h8v4h-61v-4zM1337 92v21h19v28h26v-28h21v-21h-21v-61l2 -8q2 0 5.5 -1.5t5.5 -1.5l4 3h4v-25h-21q-14 0 -16 4q-7 0 -10 8v82h-19zM1352 -190v-31h30v31h-30zM1401 -170q0 -13 4 -25 q4 -13 10 -16q15 -12 35 -12q16 0 25 6q6 2 16 12q5 9 8 23h-31q0 -10 -6 -13q-2 -4 -12 -4q-8 0 -10 4q-3 2 -8 11q0 2 -1 8t-1 10q0 15 6 21q7 10 16 10q6 0 12 -6l6 -13h29q0 12 -8 23q-12 12 -18 14q-12 4 -23 4q-26 0 -39 -16q-10 -23 -10 -41zM1473 31q0 16 8 24 q20 10 24 11l27 4q10 0 10 8q0 14 -18 14q-9 0 -13 -4q-5 -3 -8 -14h-26q0 15 6 24q5 8 16 13q4 4 12 4h13q24 0 32 -4q12 -12 13 -15q2 -4 2 -14v-72q0 -6 8 -6v-6h-33l-2 4v2q0 2 -1 4.5t-1 3.5l-8 -8l-10 -6q-4 0 -9 -1t-8 -1t-8 1t-8 1q-1 1 -6.5 5t-7.5 7q-4 8 -4 21z M1501 31q0 -8 4 -8q5 -5 11 -5h8l4 2q9 4 10 7q4 8 4 14v14q-6 -6 -12 -6l-14 -4q-7 0 -11 -4q-4 -2 -4 -10zM1511 -168q0 -7 5 -27q6 -14 18 -20q11 -8 31 -8q16 0 28 6q14 7 17 20q6 12 6 29t-2 23q-2 2 -5 9t-5 9q-13 9 -17 10q-12 4 -22 4q-13 0 -25 -4q-10 -3 -16 -12 q-8 -7 -11 -18q-2 -8 -2 -21zM1538 -168q0 14 6 23q3 10 21 10q15 0 18 -10q6 -9 6 -23q0 -13 -6 -22q-3 -9 -18 -9q-18 0 -21 9q-6 9 -6 22zM1567 1167l28 37l13 23l26 35q0 2 2 2q0 4 4 4l2 2q0 -8 -2 -10l-8 -11l-6 -10l-6 -8l-16 -21l-19 -20l-10 -12q-5 -9 -8 -11z M1585 92v21h14v28h33v-28h19v-21h-19v-69q1 0 4.5 -1.5t5.5 -1.5l5 3h4v-25h-19q-14 0 -20 4q-5 0 -8 8q0 1 -2.5 6t-2.5 7v69h-14zM1636 -115v-106h27v63q0 23 16 23q11 0 15 -4t4 -8v-74h26v63q0 23 19 23q16 0 16 -23v-63h27v71q0 11 -4 19q-2 6 -10 14q-12 4 -23 4 q-8 0 -16 -4t-11 -12q-6 9 -12 12q-8 4 -16 4q-22 0 -31 -18v16h-27z" />
<glyph unicode="5" d="M70 -193q0 -12 6 -18q3 -7 10 -10q6 -2 18 -2q9 0 13 2q1 1 4.5 2t5.5 2l8 8q0 -4 2 -6v-6h29v4q-4 4 -4 6q-2 2 -2 12v56q0 10 -2 14q-2 5 -13 12q-12 4 -26 4q-9 0 -13 -2q-10 0 -14 -2q-10 -5 -12 -12q-6 -6 -6 -21h24q0 8 8 11q3 6 13 6q16 0 16 -17q0 -6 -10 -6 l-27 -4q-10 0 -20 -10q-8 -5 -8 -23zM96 -190q0 6 4 10q8 4 13 4l12 2q8 4 10 4v-12q0 -5 -4 -13l-10 -6h-4q-2 -4 -6 -4q-1 0 -2.5 1t-4 2.5t-4.5 2.5q-4 4 -4 9zM125 565v494l268 59l-10 37l41 12l-8 39l41 8l-6 46l41 2v41h36l4 36l39 -6l9 41l43 -6l10 39l39 -10l16 37 l39 -17l23 39l34 -18l23 35l37 -25l24 33l35 -27l27 29l26 -25l27 23l27 -29l34 23l23 -37l39 20l18 -35l37 17l17 -41l43 12l12 -39l39 10l8 -43l43 4l2 -26l404 88v-496l-185 -41l4 -2l-24 -26l24 -29l-32 -27l22 -34l-37 -23l23 -37l-35 -20l14 -37l-39 -17l13 -43 l-37 -12l6 -39l-41 -8l2 -43l-39 -4v-39h-35l-6 -37l-39 2l-8 -37l-43 6l-10 -40l-39 12l-14 -39l-44 16l-18 -39l-37 21l-22 -35l-37 23l-25 -33l-30 26l-31 -26l-27 24l-26 -24l-25 31l-35 -23l-24 37l-37 -21l-19 35l-39 -16l-18 41l-39 -13l-12 37l-41 -8l-8 43l-43 -4 l-5 41h-40v35l-35 4l4 41l-41 6l8 43l-41 12l12 37l-28 12zM186 -115v-106h27v55q0 25 27 25h8v28h-6q-13 0 -15 -2l-8 -8l-6 -10h-2v18h-25zM236 76v16q0 2 2 7t2 7q3 14 14 25q4 6 22 19q15 6 33 6h6q2 0 8 -1t9 -1q7 0 14 -7q15 -9 21 -18q4 -4 8 -12l2 -11h-33q0 5 -4 9 l-10 10q-6 4 -19 4h-14l-14 -12q-11 -5 -11 -15q-4 -8 -4 -28q0 -9 4 -29q2 -9 13 -14q16 -8 20 -8h4q13 0 19 4q4 0 12 8q8 16 8 20h-37v27h66v-84h-21l-4 20q-6 -8 -14 -14q-2 -2 -19 -8q-3 0 -9 -1t-9 -1q-13 0 -25 6q-14 7 -20 16q-7 6 -16 27q-4 10 -4 33zM236 702h10 l8 5l10 10l8 10l11 10q5 10 8 13l63 86l19 30l20 31q10 12 21 31l16 33q2 4 0 6t-4 2q-8 0 -10 -2l-8 -4l-33 -41q-7 -7 -15 -19l-16 -20l-55 -80l-27 -41l-22 -43l-4 -6v-11zM262 -78v-24h29v24h-29zM262 -115v-106h29v106h-29zM276 889q0 -1 11 -12l18 -7q15 0 23 2 q4 0 4 2l2 5q0 2 -2 2h-4q-4 0 -4 -2q-15 -3 -29 2q-8 4 -10 8q0 2 -1 5t-1 5q0 6 2 12l6 15l16 18q3 3 6.5 5.5t8.5 6t8 5.5q3 1 10.5 6.5t13.5 7.5l25 12q9 0 29 8l28 4q20 5 27 5q2 0 22 -5q12 0 15 -6l10 -12v-16q0 -13 -2 -21l-10 -18q-2 -5 -8 -12.5t-7 -8.5 q-3 -4 -6 -7t-7 -6.5t-7 -6.5q-4 -7 -21 -19l-22 -14l-25 -10l-14 -6q-1 0 -5.5 -1t-6.5 -1h-4q-4 0 -7 -3q-2 0 -2 -2q-4 0 -4 -4q0 -2 2 -2h4q5 0 7 2h4l26 9l27 12l27 10l26 16l23 17l20 18l17 21q11 17 12 20q4 12 4 19q3 10 0 18l-6 14l-15 11q-16 4 -20 4q-8 2 -23 2 q-8 0 -24 -4q-14 0 -57 -13q-31 -8 -54 -22q-22 -11 -26 -14q-20 -15 -23 -19l-18 -18l-9 -21q-3 -10 0 -16zM317 -115v-106h27v61q0 5 4 17q8 8 17 8q12 0 16 -8q2 -2 2 -15v-63h29v71q0 13 -4 21q-6 8 -13 12q-12 4 -20 4q-21 0 -33 -18v16h-25zM395 57q0 21 6 29 q3 13 17 20q11 9 33 9t28 -9q13 -6 19 -22q4 -10 4 -31v-8h-78q0 -6 8 -18q7 -7 19 -7q3 0 7 1.5t5 1.5q8 8 8 10h31l-10 -21l-17 -12q-20 -4 -24 -4q-56 0 -56 61zM428 68h45q-4 12 -8 16q-8 8 -14 8q-23 0 -23 -24zM430 -166q0 -15 8 -31q5 -12 17 -20q16 -4 22 -4 q18 0 29 14v-18q0 -1 -1 -3t-1 -3q0 -4 -8 -9q-2 -2 -15 -2q-10 0 -12 2l-6 9h-27q0 -7 2 -11q0 -4 4 -8q11 -7 19 -10q3 0 9 -1t9 -1q21 0 33 6q10 5 16 14q4 16 4 27v100h-24l-2 -16q-1 3 -12 14q-12 4 -19 4q-16 0 -24 -8q-10 -6 -15 -20q-6 -24 -6 -25zM461 -168 q0 17 6 23q7 10 14 10t17 -10q8 -8 8 -23q0 -13 -7 -21t-18 -8q-4 0 -12 4q-6 6 -6 11q-2 6 -2 14zM498 717q20 0 20 -15v-49q0 -9 10 -22l17 -4q4 -2 18 -2q13 0 25 4q8 4 10 6q8 5 8 18q-3 -9 -10 -16l-12 -8h-15q-12 0 -18 2q-2 0 -10 8q-4 4 -4 14v49q0 11 4 11 q4 4 14 4h6v4h-63v-4zM510 92v21h16v28h31v-28h16v-21h-16v-61q0 -8 2 -8q4 -3 10 -3l2 3h2v-25h-16q-14 0 -20 4q-6 0 -9 8q-2 2 -2 13v69h-16zM510 821q3 -8 10 -12q9 -9 23 -6q14 0 26 6q13 2 33 14t31 23l24 20l15 15q0 2 4 6l2 4l4 6l16 16l15 21q5 3 10.5 10.5 t7.5 9.5l6 -2l4 -6l2 -6q0 -1 -1 -2.5t-2.5 -3.5t-2.5 -4l-16 -17l-14 -20l-13 -19l-4 -18q-2 -2 -2 -8v-6l4 -8h8q11 0 17 2l16 10q2 2 10 7.5t11 10.5q4 2 10 8.5t8 8.5l8 12l8 10l5 4l4 6q4 4 4 5l12 16l21 31q0 -3 1 -8t1 -7q4 -12 4 -14l4 -8q-15 -3 -25 -13l-20 -14 q-1 -1 -6.5 -7.5t-6.5 -10.5q-2 -6 -2 -17q0 -6 11 -10h18q13 0 25 8q15 7 22 17q2 1 17 16l8 18q6 9 6 19v16q0 7 -4 15l-6 16l-7 6q0 4 -4 8l-2 4v11h-8l-4 -4l-12 -9l-4 -12l-2 -2l-4 -6l-33 -45l-4 -6l-6 -11h-3v-2l-4 -2l-4 -8l-6 -8l-14 -18l-23 -21l-12 -6 q-4 -4 -12 -4v2l8 10l6 10l8 11l6 8l9 14l10 14l4 15q2 6 2 14q-2 2 -2 8l-2 4q0 5 -2 7v22l6 10q4 8 -4 13q-3 7 -17 0q-9 -2 -16 -9q-5 -3 -10 -12q-4 -4 -4 -10q0 -8 2 -12l4 -2q0 -1 4 -5l-12 -12l-23 -31l-20 -22q-4 0 -4 -4v-2l-2 -2l-2 -2l-11 -15q-26 -21 -28 -22 q-13 -13 -33 -23l-21 -8q-12 -4 -18 -2q-6 0 -6 4q-2 2 -2 6q0 3 4 11l2 8l10 16q4 -2 12 -2h19q10 3 26 12q4 1 7.5 3t8.5 6t9 6l14 16q1 2 4 5t5 5.5t2 5.5l8 13q0 12 -4 14q-4 8 -8 10h-19q-12 0 -18 -4l-21 -8q-26 -13 -45 -29q-21 -17 -29 -34q-3 -3 -12 -21 q-6 -8 -8 -18v-17zM545 -115v-20h14v-64q0 -10 2 -12q0 -3 10 -8q4 -2 17 -2h16v22h-2l-4 -2l-8 2q-2 2 -2 9v55h16v20h-16v27h-29v-27h-14zM567 870l15 23l18 20l6 9l10 8l11 10l12 4q8 3 14 0v-10l-6 -8q-6 -6 -6 -11l-10 -10q0 -2 -8 -10q-7 -7 -9 -8l-10 -8l-12 -9 q-6 -2 -12 -2q-11 0 -13 2zM580 717h10l4 -2q12 -3 12 -23v15l10 8q2 0 2 2h9v4h-47v-4zM610 -115l2 -8l37 -102q0 -4 -2 -6v-5q-4 -4 -6 -4h-16v-22h14q3 0 7.5 1t6.5 1q5 0 11 6l6 12l8 23l2 2l35 102h-31l-20 -78l-21 78h-33zM639 694q0 -2 4 -10q0 -6 6 -6l13 -6 q2 -2 20 -6l8 -2q10 -5 12 -5q5 0 9 -4l2 -2q6 -3 6 -10l-4 -8q-2 -4 -8 -6h-11q-10 0 -16 2l-16 6l-11 10q-10 10 -10 21h-2v-43h2q0 6 4 6q4 4 8 4q1 0 3 -1t4 -1q1 0 3 -1t3 -1l14 -4q4 -2 14 -2q5 0 17 4q3 0 12 6q1 1 2.5 4t3.5 4v21l-6 6q-2 5 -12 8l-17 6h-10l-2 2 q-2 1 -5.5 1.5t-5.5 1t-3 1.5q-6 0 -8 2q-3 0 -7 4l-2 6v9l4 4q1 0 9 4q1 0 4.5 1t5.5 1q6 0 14 -4q8 0 12 -4q9 -5 11 -8q2 -1 3.5 -4t3 -7t3.5 -6h2v31h-2q-2 -6 -8 -6h-8q-17 10 -31 10q-9 0 -21 -4l-12 -8q-4 -12 -4 -17zM641 92v21h14v8q0 33 35 33h15v-25h-15 q-4 0 -4 -4v-12h19v-21h-19v-94h-31v94h-14zM723 37v76h29v-70q0 -20 20 -20h10l11 10q0 1 2 5.5t2 6.5v68h26v-115h-26v16q-5 -7 -15 -12q-12 -6 -20 -6q-22 0 -29 12q-10 7 -10 29zM731 -115v-145h27v51q2 -2 2 -4q4 0 6 -2l8 -6q4 -2 14 -2q14 0 25 8q8 5 12 22 q6 12 6 13q0 2 1.5 6t1.5 6q0 12 -7 23q-3 13 -10 20q-4 4 -12 8q-6 4 -17 4q-6 0 -8 -2l-8 -6l-8 -8q-6 -2 -8 -2v16h-25zM741 627h103v39l-6 -13l-11 -14q-6 -6 -8 -6l-10 -2q-4 -2 -12 -2h-15v41h2q10 0 19 -6l4 -7q0 -1 1 -3t1 -3v-8h2v59h-2v-8l-4 -10q-10 -10 -19 -10 h-4v43h17q16 0 22 -2l8 -6l5 -11l6 -14h4v37h-103v-4h4q9 0 11 -4q6 0 6 -11v-57q0 -16 -17 -16h-4v-2zM756 -170q0 15 7 25t17 10q9 0 19 -10q4 -12 4 -23q0 -10 -4 -22q-6 -9 -19 -9q-10 0 -16 9q-8 5 -8 20zM793 868v9l4 10l6 8q8 10 18 18l23 11q0 -2 1 -6t1 -5 q-2 -4 -2 -8v-12l-4 -8l-9 -11l-8 -6q-1 0 -3.5 -1t-4.5 -1q-2 -2 -8 -2q-4 -4 -8 0q-2 0 -6 4zM844 -166q0 -57 49 -57q10 0 22 4q4 1 17 10q4 4 8 21h-27l-6 -9q-8 -4 -14 -4q-10 0 -16 6q-7 7 -7 19h72v6q0 11 -4 27q-6 15 -16 22q-8 8 -31 8q-16 0 -27 -8 q-10 -5 -16 -20q-4 -8 -4 -25zM852 -2v156h29v-156h-29zM870 -158q3 23 21 23q4 0 16 -6q6 -6 6 -17h-43zM903 -2v156h29v-156h-29zM905 674q0 -15 4 -21q1 -1 5 -6.5t8 -7.5q6 -6 18 -10q16 -4 23 -4q17 0 26 6q8 3 23 18q6 9 6 25q0 10 -4 16q-4 13 -10 17q-4 6 -19 10 q-12 6 -22 6q-21 0 -29 -8q-11 -2 -21 -17q-8 -11 -8 -24zM915 901q0 -8 5 -8l10 -8h10h12q6 1 15 4l12 4l27 14l22 21l19 16l14 21l10 16l6 18q4 11 0 15q0 7 -6 10q0 5 -10 8q-1 0 -6 1t-8 1q-7 0 -19 -4l-12 -4l-12 -4l-25 -16l-23 -19l-16 -18l-12 -19q-11 -19 -13 -26 v-23zM928 674q0 2 1 7.5t1 8.5l6 12l6 11q1 1 4.5 2t5.5 2q4 4 13 4q2 -2 6 -2l6 -4l10 -8q0 -2 2.5 -7.5t3.5 -9.5l1 -6q1 -6 1 -10q0 -13 -4 -25l-12 -18q-4 -2 -16 -2q-11 0 -13 2q-9 0 -12 10l-6 12q-4 12 -4 21zM940 895v12q4 15 10 21l15 22l10 13l24 30l19 19l8 8 l10 4q4 2 11 2q2 0 4 -2t2 -8q0 -2 -4 -10l-5 -9l-6 -10l-6 -10l-20 -31l-17 -18l-20 -21q0 -3 -10 -6q-2 -4 -13 -8h-8q-4 0 -4 2zM948 -115v-20h17v-86h26v86h19v20h-19v4l2 9q0 2 2 2h13v22h-13q-30 0 -30 -28v-9h-17zM1010 92v21h14v8q0 33 35 33h12v-25h-12q-2 0 -4 -4 v-12h20v-21h-20v-94h-31v94h-14zM1018 -193q0 -10 4 -18l14 -10q6 -2 15 -2q10 0 14 2q1 1 4.5 2t5.5 2l8 8v-6q0 -1 1 -2t1 -2v-2h31v4q-4 4 -4 6q-2 2 -2 12v56q0 10 -2 14q-3 6 -12 12q-16 4 -29 4q-10 0 -14 -2q-7 0 -11 -2q-8 -3 -14 -12q-6 -6 -6 -21h27q0 8 6 11 q3 6 12 6q14 0 14 -17q0 -6 -8 -6l-24 -4q-11 0 -21 -10q-10 -5 -10 -23zM1032 627h49v2q-6 0 -10 2h-8l-4 10q-2 2 -2 12v56l80 -82h4v65q0 9 4 21q4 4 16 4v4h-47v-4h8q0 -2 4 -2q7 -3 7 -8q4 -4 4 -15v-39l-66 68h-37v-4q8 0 10 -2q1 0 3.5 -1t3.5 -1q2 -4 2 -11v-53 q0 -6 -2 -10l-7 -8q-2 0 -6.5 -1t-5.5 -1v-2zM1047 -190q0 6 4 10t8 4l14 2l8 4v-12q0 -9 -2 -13l-10 -6h-4q-2 -4 -6 -4q-2 0 -8 6q-4 4 -4 9zM1051 905q1 0 3 -1t3 -1q4 0 8 2l8 4q0 2 4 6q1 0 2 1.5t2 1.5l4 6q0 4 5 4l16 22l20 21l17 20l22 21l29 28l10 9l10 8l13 4 q2 0 2 -2h-2l-4 -4q-2 -5 -9 -8l-4 -7l-12 -14q-3 -2 -7 -7.5t-5 -6.5l-15 -23l-14 -20l-6 -19q-3 -10 0 -16t8 -6h19q3 1 10 5.5t12 6.5l19 14l22 23q-2 -2 -2 -6q0 -7 4 -15q2 -4 10 -8q6 -2 21 2q10 2 24 13l21 14l14 14l13 13v-5q0 -1 -1.5 -3t-1.5 -3v-6q-3 -7 0 -10 q0 -1 1.5 -3t1.5 -3q0 -6 6 -6h16l6 4l8 6l13 6l32 27l17 16l-4 -12q-4 -6 -4 -19v-6l4 -2q0 -2 6 -2q4 0 8 4q9 0 12 6l11 6l12 13q2 0 10 8q3 2 19 18l18 21v4q0 2 -2 2q-4 0 -8 -4l-2 -4l-13 -15l-10 -12q-9 -6 -12 -12l-14 -12l-9 -7l-8 -2q-2 0 -2 -2q-2 0 -4 2h2l8 15 q4 8 8 12l7 12q3 2 8 11l63 92q12 11 13 16l16 16l37 43q13 13 33 41l10 19v8q-2 2 -8 2q-3 0 -11 -4l-12 -6q-4 0 -10 -6l-8 -6l-23 -19l-16 -18q-7 -7 -19 -23q-1 -2 -14 -20l-27 -41l-26 -45l-19 -33l-8 -16h-2l-14 -15q-1 -2 -19 -20l-18 -17l-10 -8l-7 -4q-2 -2 -4 -2 l-4 -4h-10l12 20l2 4q12 20 19 27l16 29l15 20l8 13l6 10l2 2q0 2 2 2q0 1 1 2t1 2q6 3 4 8q0 2 -6 2l-10 -4l-10 -6l-19 -12l-14 -13q0 7 -2 11q0 3 -6 6q-12 3 -21 0q-16 -4 -22 -8l-25 -13l-18 -16q-26 -19 -37 -39q-14 -17 -21 -37h-4l-16 -18q-22 -17 -23 -17 q-2 -5 -12 -8q-4 -4 -10 -4h-2q-2 2 0 4l6 8l6 11l12 14l21 27q15 19 18 28l8 17q4 11 2 16q0 6 -2 6q0 4 -6 4t-8 -2l-12 -4l-13 -8l-10 -8l-10 -9q-8 -8 -12 -8l-21 -22q-16 -16 -18 -19l-11 -12l-10 -10l2 4l25 35l26 37q0 1 1.5 2t1.5 2q2 2 2 4q2 2 2 6l-7 6q-1 0 -3 1 t-3 1t-4.5 -1t-5.5 -1l-10 -6l-4 -4q-2 -1 -3.5 -4t-2.5 -4l-5 -7l-77 -133zM1083 55q0 7 4 23q2 9 11 18q12 12 20 15q6 4 25 4q16 0 24 -4q1 -1 8 -4t9 -7q4 -4 12 -20q4 -12 4 -25q0 -17 -8 -30q-2 -9 -18 -21q-11 -8 -31 -8q-22 0 -35 8q-2 1 -18 23q-7 14 -7 28z M1114 55q0 -10 6 -22q4 -10 23 -10q16 0 20 10q6 6 6 22t-6 25q-7 10 -20 10q-16 0 -23 -10q-6 -18 -6 -25zM1128 -170q0 -10 5 -25q4 -13 10 -16q12 -12 35 -12q12 0 24 6q4 1 15 12q6 12 6 23h-27q0 -10 -6 -13q-4 -4 -12 -4q-9 0 -13 4l-8 11q0 2 -1 8t-1 10q0 16 8 21 q7 10 17 10q6 0 12 -6q4 -8 4 -13h31q0 3 -10 23q-7 11 -17 14q-12 4 -22 4q-26 0 -39 -16q-11 -26 -11 -41zM1167 627h107v41h-2q-2 -2 -4 -8l-2 -5q-4 -4 -4 -8l-5 -6q-8 -8 -12 -10q-1 0 -6 -1t-8 -1h-25v73q0 11 6 11q2 4 13 4h6v4h-64v-4h4q17 0 17 -15v-57 q0 -16 -17 -16h-4v-2zM1221 -2v115h28v-17q13 19 35 19q15 0 21 -4l14 -13q4 -12 4 -20v-80h-29v70q0 8 -4 16q-6 6 -16 6q-14 0 -19 -8q-4 -4 -4 -19v-65h-30zM1237 -166q0 -57 49 -57q11 0 23 4q6 2 14 10q6 4 10 21h-26l-7 -9q-8 -4 -14 -4q-10 0 -16 6t-6 19h71v6 q0 15 -6 27q-3 17 -14 22q-8 8 -29 8q-18 0 -29 -8q-10 -5 -16 -20q-4 -16 -4 -25zM1264 -158q3 23 20 23q4 0 16 -6q7 -7 7 -17h-43zM1266 963q0 2 2 2q0 2 2 4l6 10l8 10l6 12l8 11l19 24l26 33l7 8l16 13q2 2 8 2q4 2 8 2l7 -4q0 -1 1 -3.5t1 -3.5q0 -4 -2 -8q0 -1 -5 -6 l-16 -22l-12 -23l-17 -14l-16 -19l-10 -8l-13 -10l-10 -8q-2 0 -5 -2t-5 -2q-8 -4 -10 -3h-2q-2 2 -2 5zM1268 717h2q10 0 14 -2q7 -7 8 -10l29 -39v-21q0 -10 -2 -12q-8 -4 -14 -4h-7v-2h68v2h-8q-8 0 -12 4q-5 5 -5 12v23l25 34l4 7q8 4 10 4q0 2 4 2l9 2v4h-47v-4h6 q8 0 10 -2q4 -2 4 -6q0 -5 -6 -11l-19 -26l-24 30q-4 8 -4 9v2q0 2 2 2q0 2 6 2h8v4h-61v-4zM1337 92v21h19v28h26v-28h21v-21h-21v-61l2 -8q2 0 5.5 -1.5t5.5 -1.5l4 3h4v-25h-21q-14 0 -16 4q-7 0 -10 8v82h-19zM1352 -190v-31h30v31h-30zM1401 -170q0 -13 4 -25 q4 -13 10 -16q15 -12 35 -12q16 0 25 6q6 2 16 12q5 9 8 23h-31q0 -10 -6 -13q-2 -4 -12 -4q-8 0 -10 4q-3 2 -8 11q0 2 -1 8t-1 10q0 15 6 21q7 10 16 10q6 0 12 -6l6 -13h29q0 12 -8 23q-12 12 -18 14q-12 4 -23 4q-26 0 -39 -16q-10 -23 -10 -41zM1473 31q0 16 8 24 q20 10 24 11l27 4q10 0 10 8q0 14 -18 14q-9 0 -13 -4q-5 -3 -8 -14h-26q0 15 6 24q5 8 16 13q4 4 12 4h13q24 0 32 -4q12 -12 13 -15q2 -4 2 -14v-72q0 -6 8 -6v-6h-33l-2 4v2q0 2 -1 4.5t-1 3.5l-8 -8l-10 -6q-4 0 -9 -1t-8 -1t-8 1t-8 1q-1 1 -6.5 5t-7.5 7q-4 8 -4 21z M1501 31q0 -8 4 -8q5 -5 11 -5h8l4 2q9 4 10 7q4 8 4 14v14q-6 -6 -12 -6l-14 -4q-7 0 -11 -4q-4 -2 -4 -10zM1511 -168q0 -7 5 -27q6 -14 18 -20q11 -8 31 -8q16 0 28 6q14 7 17 20q6 12 6 29t-2 23q-2 2 -5 9t-5 9q-13 9 -17 10q-12 4 -22 4q-13 0 -25 -4q-10 -3 -16 -12 q-8 -7 -11 -18q-2 -8 -2 -21zM1538 -168q0 14 6 23q3 10 21 10q15 0 18 -10q6 -9 6 -23q0 -13 -6 -22q-3 -9 -18 -9q-18 0 -21 9q-6 9 -6 22zM1567 1167l28 37l13 23l26 35q0 2 2 2q0 4 4 4l2 2q0 -8 -2 -10l-8 -11l-6 -10l-6 -8l-16 -21l-19 -20l-10 -12q-5 -9 -8 -11z M1585 92v21h14v28h33v-28h19v-21h-19v-69q1 0 4.5 -1.5t5.5 -1.5l5 3h4v-25h-19q-14 0 -20 4q-5 0 -8 8q0 1 -2.5 6t-2.5 7v69h-14zM1636 -115v-106h27v63q0 23 16 23q11 0 15 -4t4 -8v-74h26v63q0 23 19 23q16 0 16 -23v-63h27v71q0 11 -4 19q-2 6 -10 14q-12 4 -23 4 q-8 0 -16 -4t-11 -12q-6 9 -12 12q-8 4 -16 4q-22 0 -31 -18v16h-27z" />
<glyph unicode="6" d="M70 -193q0 -12 6 -18q3 -7 10 -10q6 -2 18 -2q9 0 13 2q1 1 4.5 2t5.5 2l8 8q0 -4 2 -6v-6h29v4q-4 4 -4 6q-2 2 -2 12v56q0 10 -2 14q-2 5 -13 12q-12 4 -26 4q-9 0 -13 -2q-10 0 -14 -2q-10 -5 -12 -12q-6 -6 -6 -21h24q0 8 8 11q3 6 13 6q16 0 16 -17q0 -6 -10 -6 l-27 -4q-10 0 -20 -10q-8 -5 -8 -23zM96 -190q0 6 4 10q8 4 13 4l12 2q8 4 10 4v-12q0 -5 -4 -13l-10 -6h-4q-2 -4 -6 -4q-1 0 -2.5 1t-4 2.5t-4.5 2.5q-4 4 -4 9zM125 565v494l268 59l-10 37l41 12l-8 39l41 8l-6 46l41 2v41h36l4 36l39 -6l9 41l43 -6l10 39l39 -10l16 37 l39 -17l23 39l34 -18l23 35l37 -25l24 33l35 -27l27 29l26 -25l27 23l27 -29l34 23l23 -37l39 20l18 -35l37 17l17 -41l43 12l12 -39l39 10l8 -43l43 4l2 -26l404 88v-496l-185 -41l4 -2l-24 -26l24 -29l-32 -27l22 -34l-37 -23l23 -37l-35 -20l14 -37l-39 -17l13 -43 l-37 -12l6 -39l-41 -8l2 -43l-39 -4v-39h-35l-6 -37l-39 2l-8 -37l-43 6l-10 -40l-39 12l-14 -39l-44 16l-18 -39l-37 21l-22 -35l-37 23l-25 -33l-30 26l-31 -26l-27 24l-26 -24l-25 31l-35 -23l-24 37l-37 -21l-19 35l-39 -16l-18 41l-39 -13l-12 37l-41 -8l-8 43l-43 -4 l-5 41h-40v35l-35 4l4 41l-41 6l8 43l-41 12l12 37l-28 12zM186 -115v-106h27v55q0 25 27 25h8v28h-6q-13 0 -15 -2l-8 -8l-6 -10h-2v18h-25zM236 76v16q0 2 2 7t2 7q3 14 14 25q4 6 22 19q15 6 33 6h6q2 0 8 -1t9 -1q7 0 14 -7q15 -9 21 -18q4 -4 8 -12l2 -11h-33q0 5 -4 9 l-10 10q-6 4 -19 4h-14l-14 -12q-11 -5 -11 -15q-4 -8 -4 -28q0 -9 4 -29q2 -9 13 -14q16 -8 20 -8h4q13 0 19 4q4 0 12 8q8 16 8 20h-37v27h66v-84h-21l-4 20q-6 -8 -14 -14q-2 -2 -19 -8q-3 0 -9 -1t-9 -1q-13 0 -25 6q-14 7 -20 16q-7 6 -16 27q-4 10 -4 33zM236 702h10 l8 5l10 10l8 10l11 10q5 10 8 13l63 86l19 30l20 31q10 12 21 31l16 33q2 4 0 6t-4 2q-8 0 -10 -2l-8 -4l-33 -41q-7 -7 -15 -19l-16 -20l-55 -80l-27 -41l-22 -43l-4 -6v-11zM262 -78v-24h29v24h-29zM262 -115v-106h29v106h-29zM276 889q0 -1 11 -12l18 -7q15 0 23 2 q4 0 4 2l2 5q0 2 -2 2h-4q-4 0 -4 -2q-15 -3 -29 2q-8 4 -10 8q0 2 -1 5t-1 5q0 6 2 12l6 15l16 18q3 3 6.5 5.5t8.5 6t8 5.5q3 1 10.5 6.5t13.5 7.5l25 12q9 0 29 8l28 4q20 5 27 5q2 0 22 -5q12 0 15 -6l10 -12v-16q0 -13 -2 -21l-10 -18q-2 -5 -8 -12.5t-7 -8.5 q-3 -4 -6 -7t-7 -6.5t-7 -6.5q-4 -7 -21 -19l-22 -14l-25 -10l-14 -6q-1 0 -5.5 -1t-6.5 -1h-4q-4 0 -7 -3q-2 0 -2 -2q-4 0 -4 -4q0 -2 2 -2h4q5 0 7 2h4l26 9l27 12l27 10l26 16l23 17l20 18l17 21q11 17 12 20q4 12 4 19q3 10 0 18l-6 14l-15 11q-16 4 -20 4q-8 2 -23 2 q-8 0 -24 -4q-14 0 -57 -13q-31 -8 -54 -22q-22 -11 -26 -14q-20 -15 -23 -19l-18 -18l-9 -21q-3 -10 0 -16zM317 -115v-106h27v61q0 5 4 17q8 8 17 8q12 0 16 -8q2 -2 2 -15v-63h29v71q0 13 -4 21q-6 8 -13 12q-12 4 -20 4q-21 0 -33 -18v16h-25zM395 57q0 21 6 29 q3 13 17 20q11 9 33 9t28 -9q13 -6 19 -22q4 -10 4 -31v-8h-78q0 -6 8 -18q7 -7 19 -7q3 0 7 1.5t5 1.5q8 8 8 10h31l-10 -21l-17 -12q-20 -4 -24 -4q-56 0 -56 61zM428 68h45q-4 12 -8 16q-8 8 -14 8q-23 0 -23 -24zM430 -166q0 -15 8 -31q5 -12 17 -20q16 -4 22 -4 q18 0 29 14v-18q0 -1 -1 -3t-1 -3q0 -4 -8 -9q-2 -2 -15 -2q-10 0 -12 2l-6 9h-27q0 -7 2 -11q0 -4 4 -8q11 -7 19 -10q3 0 9 -1t9 -1q21 0 33 6q10 5 16 14q4 16 4 27v100h-24l-2 -16q-1 3 -12 14q-12 4 -19 4q-16 0 -24 -8q-10 -6 -15 -20q-6 -24 -6 -25zM461 -168 q0 17 6 23q7 10 14 10t17 -10q8 -8 8 -23q0 -13 -7 -21t-18 -8q-4 0 -12 4q-6 6 -6 11q-2 6 -2 14zM498 717q20 0 20 -15v-49q0 -9 10 -22l17 -4q4 -2 18 -2q13 0 25 4q8 4 10 6q8 5 8 18q-3 -9 -10 -16l-12 -8h-15q-12 0 -18 2q-2 0 -10 8q-4 4 -4 14v49q0 11 4 11 q4 4 14 4h6v4h-63v-4zM510 92v21h16v28h31v-28h16v-21h-16v-61q0 -8 2 -8q4 -3 10 -3l2 3h2v-25h-16q-14 0 -20 4q-6 0 -9 8q-2 2 -2 13v69h-16zM510 821q3 -8 10 -12q9 -9 23 -6q14 0 26 6q13 2 33 14t31 23l24 20l15 15q0 2 4 6l2 4l4 6l16 16l15 21q5 3 10.5 10.5 t7.5 9.5l6 -2l4 -6l2 -6q0 -1 -1 -2.5t-2.5 -3.5t-2.5 -4l-16 -17l-14 -20l-13 -19l-4 -18q-2 -2 -2 -8v-6l4 -8h8q11 0 17 2l16 10q2 2 10 7.5t11 10.5q4 2 10 8.5t8 8.5l8 12l8 10l5 4l4 6q4 4 4 5l12 16l21 31q0 -3 1 -8t1 -7q4 -12 4 -14l4 -8q-15 -3 -25 -13l-20 -14 q-1 -1 -6.5 -7.5t-6.5 -10.5q-2 -6 -2 -17q0 -6 11 -10h18q13 0 25 8q15 7 22 17q2 1 17 16l8 18q6 9 6 19v16q0 7 -4 15l-6 16l-7 6q0 4 -4 8l-2 4v11h-8l-4 -4l-12 -9l-4 -12l-2 -2l-4 -6l-33 -45l-4 -6l-6 -11h-3v-2l-4 -2l-4 -8l-6 -8l-14 -18l-23 -21l-12 -6 q-4 -4 -12 -4v2l8 10l6 10l8 11l6 8l9 14l10 14l4 15q2 6 2 14q-2 2 -2 8l-2 4q0 5 -2 7v22l6 10q4 8 -4 13q-3 7 -17 0q-9 -2 -16 -9q-5 -3 -10 -12q-4 -4 -4 -10q0 -8 2 -12l4 -2q0 -1 4 -5l-12 -12l-23 -31l-20 -22q-4 0 -4 -4v-2l-2 -2l-2 -2l-11 -15q-26 -21 -28 -22 q-13 -13 -33 -23l-21 -8q-12 -4 -18 -2q-6 0 -6 4q-2 2 -2 6q0 3 4 11l2 8l10 16q4 -2 12 -2h19q10 3 26 12q4 1 7.5 3t8.5 6t9 6l14 16q1 2 4 5t5 5.5t2 5.5l8 13q0 12 -4 14q-4 8 -8 10h-19q-12 0 -18 -4l-21 -8q-26 -13 -45 -29q-21 -17 -29 -34q-3 -3 -12 -21 q-6 -8 -8 -18v-17zM545 -115v-20h14v-64q0 -10 2 -12q0 -3 10 -8q4 -2 17 -2h16v22h-2l-4 -2l-8 2q-2 2 -2 9v55h16v20h-16v27h-29v-27h-14zM567 870l15 23l18 20l6 9l10 8l11 10l12 4q8 3 14 0v-10l-6 -8q-6 -6 -6 -11l-10 -10q0 -2 -8 -10q-7 -7 -9 -8l-10 -8l-12 -9 q-6 -2 -12 -2q-11 0 -13 2zM580 717h10l4 -2q12 -3 12 -23v15l10 8q2 0 2 2h9v4h-47v-4zM610 -115l2 -8l37 -102q0 -4 -2 -6v-5q-4 -4 -6 -4h-16v-22h14q3 0 7.5 1t6.5 1q5 0 11 6l6 12l8 23l2 2l35 102h-31l-20 -78l-21 78h-33zM639 694q0 -2 4 -10q0 -6 6 -6l13 -6 q2 -2 20 -6l8 -2q10 -5 12 -5q5 0 9 -4l2 -2q6 -3 6 -10l-4 -8q-2 -4 -8 -6h-11q-10 0 -16 2l-16 6l-11 10q-10 10 -10 21h-2v-43h2q0 6 4 6q4 4 8 4q1 0 3 -1t4 -1q1 0 3 -1t3 -1l14 -4q4 -2 14 -2q5 0 17 4q3 0 12 6q1 1 2.5 4t3.5 4v21l-6 6q-2 5 -12 8l-17 6h-10l-2 2 q-2 1 -5.5 1.5t-5.5 1t-3 1.5q-6 0 -8 2q-3 0 -7 4l-2 6v9l4 4q1 0 9 4q1 0 4.5 1t5.5 1q6 0 14 -4q8 0 12 -4q9 -5 11 -8q2 -1 3.5 -4t3 -7t3.5 -6h2v31h-2q-2 -6 -8 -6h-8q-17 10 -31 10q-9 0 -21 -4l-12 -8q-4 -12 -4 -17zM641 92v21h14v8q0 33 35 33h15v-25h-15 q-4 0 -4 -4v-12h19v-21h-19v-94h-31v94h-14zM723 37v76h29v-70q0 -20 20 -20h10l11 10q0 1 2 5.5t2 6.5v68h26v-115h-26v16q-5 -7 -15 -12q-12 -6 -20 -6q-22 0 -29 12q-10 7 -10 29zM731 -115v-145h27v51q2 -2 2 -4q4 0 6 -2l8 -6q4 -2 14 -2q14 0 25 8q8 5 12 22 q6 12 6 13q0 2 1.5 6t1.5 6q0 12 -7 23q-3 13 -10 20q-4 4 -12 8q-6 4 -17 4q-6 0 -8 -2l-8 -6l-8 -8q-6 -2 -8 -2v16h-25zM741 627h103v39l-6 -13l-11 -14q-6 -6 -8 -6l-10 -2q-4 -2 -12 -2h-15v41h2q10 0 19 -6l4 -7q0 -1 1 -3t1 -3v-8h2v59h-2v-8l-4 -10q-10 -10 -19 -10 h-4v43h17q16 0 22 -2l8 -6l5 -11l6 -14h4v37h-103v-4h4q9 0 11 -4q6 0 6 -11v-57q0 -16 -17 -16h-4v-2zM756 -170q0 15 7 25t17 10q9 0 19 -10q4 -12 4 -23q0 -10 -4 -22q-6 -9 -19 -9q-10 0 -16 9q-8 5 -8 20zM793 868v9l4 10l6 8q8 10 18 18l23 11q0 -2 1 -6t1 -5 q-2 -4 -2 -8v-12l-4 -8l-9 -11l-8 -6q-1 0 -3.5 -1t-4.5 -1q-2 -2 -8 -2q-4 -4 -8 0q-2 0 -6 4zM844 -166q0 -57 49 -57q10 0 22 4q4 1 17 10q4 4 8 21h-27l-6 -9q-8 -4 -14 -4q-10 0 -16 6q-7 7 -7 19h72v6q0 11 -4 27q-6 15 -16 22q-8 8 -31 8q-16 0 -27 -8 q-10 -5 -16 -20q-4 -8 -4 -25zM852 -2v156h29v-156h-29zM870 -158q3 23 21 23q4 0 16 -6q6 -6 6 -17h-43zM903 -2v156h29v-156h-29zM905 674q0 -15 4 -21q1 -1 5 -6.5t8 -7.5q6 -6 18 -10q16 -4 23 -4q17 0 26 6q8 3 23 18q6 9 6 25q0 10 -4 16q-4 13 -10 17q-4 6 -19 10 q-12 6 -22 6q-21 0 -29 -8q-11 -2 -21 -17q-8 -11 -8 -24zM915 901q0 -8 5 -8l10 -8h10h12q6 1 15 4l12 4l27 14l22 21l19 16l14 21l10 16l6 18q4 11 0 15q0 7 -6 10q0 5 -10 8q-1 0 -6 1t-8 1q-7 0 -19 -4l-12 -4l-12 -4l-25 -16l-23 -19l-16 -18l-12 -19q-11 -19 -13 -26 v-23zM928 674q0 2 1 7.5t1 8.5l6 12l6 11q1 1 4.5 2t5.5 2q4 4 13 4q2 -2 6 -2l6 -4l10 -8q0 -2 2.5 -7.5t3.5 -9.5l1 -6q1 -6 1 -10q0 -13 -4 -25l-12 -18q-4 -2 -16 -2q-11 0 -13 2q-9 0 -12 10l-6 12q-4 12 -4 21zM940 895v12q4 15 10 21l15 22l10 13l24 30l19 19l8 8 l10 4q4 2 11 2q2 0 4 -2t2 -8q0 -2 -4 -10l-5 -9l-6 -10l-6 -10l-20 -31l-17 -18l-20 -21q0 -3 -10 -6q-2 -4 -13 -8h-8q-4 0 -4 2zM948 -115v-20h17v-86h26v86h19v20h-19v4l2 9q0 2 2 2h13v22h-13q-30 0 -30 -28v-9h-17zM1010 92v21h14v8q0 33 35 33h12v-25h-12q-2 0 -4 -4 v-12h20v-21h-20v-94h-31v94h-14zM1018 -193q0 -10 4 -18l14 -10q6 -2 15 -2q10 0 14 2q1 1 4.5 2t5.5 2l8 8v-6q0 -1 1 -2t1 -2v-2h31v4q-4 4 -4 6q-2 2 -2 12v56q0 10 -2 14q-3 6 -12 12q-16 4 -29 4q-10 0 -14 -2q-7 0 -11 -2q-8 -3 -14 -12q-6 -6 -6 -21h27q0 8 6 11 q3 6 12 6q14 0 14 -17q0 -6 -8 -6l-24 -4q-11 0 -21 -10q-10 -5 -10 -23zM1032 627h49v2q-6 0 -10 2h-8l-4 10q-2 2 -2 12v56l80 -82h4v65q0 9 4 21q4 4 16 4v4h-47v-4h8q0 -2 4 -2q7 -3 7 -8q4 -4 4 -15v-39l-66 68h-37v-4q8 0 10 -2q1 0 3.5 -1t3.5 -1q2 -4 2 -11v-53 q0 -6 -2 -10l-7 -8q-2 0 -6.5 -1t-5.5 -1v-2zM1047 -190q0 6 4 10t8 4l14 2l8 4v-12q0 -9 -2 -13l-10 -6h-4q-2 -4 -6 -4q-2 0 -8 6q-4 4 -4 9zM1051 905q1 0 3 -1t3 -1q4 0 8 2l8 4q0 2 4 6q1 0 2 1.5t2 1.5l4 6q0 4 5 4l16 22l20 21l17 20l22 21l29 28l10 9l10 8l13 4 q2 0 2 -2h-2l-4 -4q-2 -5 -9 -8l-4 -7l-12 -14q-3 -2 -7 -7.5t-5 -6.5l-15 -23l-14 -20l-6 -19q-3 -10 0 -16t8 -6h19q3 1 10 5.5t12 6.5l19 14l22 23q-2 -2 -2 -6q0 -7 4 -15q2 -4 10 -8q6 -2 21 2q10 2 24 13l21 14l14 14l13 13v-5q0 -1 -1.5 -3t-1.5 -3v-6q-3 -7 0 -10 q0 -1 1.5 -3t1.5 -3q0 -6 6 -6h16l6 4l8 6l13 6l32 27l17 16l-4 -12q-4 -6 -4 -19v-6l4 -2q0 -2 6 -2q4 0 8 4q9 0 12 6l11 6l12 13q2 0 10 8q3 2 19 18l18 21v4q0 2 -2 2q-4 0 -8 -4l-2 -4l-13 -15l-10 -12q-9 -6 -12 -12l-14 -12l-9 -7l-8 -2q-2 0 -2 -2q-2 0 -4 2h2l8 15 q4 8 8 12l7 12q3 2 8 11l63 92q12 11 13 16l16 16l37 43q13 13 33 41l10 19v8q-2 2 -8 2q-3 0 -11 -4l-12 -6q-4 0 -10 -6l-8 -6l-23 -19l-16 -18q-7 -7 -19 -23q-1 -2 -14 -20l-27 -41l-26 -45l-19 -33l-8 -16h-2l-14 -15q-1 -2 -19 -20l-18 -17l-10 -8l-7 -4q-2 -2 -4 -2 l-4 -4h-10l12 20l2 4q12 20 19 27l16 29l15 20l8 13l6 10l2 2q0 2 2 2q0 1 1 2t1 2q6 3 4 8q0 2 -6 2l-10 -4l-10 -6l-19 -12l-14 -13q0 7 -2 11q0 3 -6 6q-12 3 -21 0q-16 -4 -22 -8l-25 -13l-18 -16q-26 -19 -37 -39q-14 -17 -21 -37h-4l-16 -18q-22 -17 -23 -17 q-2 -5 -12 -8q-4 -4 -10 -4h-2q-2 2 0 4l6 8l6 11l12 14l21 27q15 19 18 28l8 17q4 11 2 16q0 6 -2 6q0 4 -6 4t-8 -2l-12 -4l-13 -8l-10 -8l-10 -9q-8 -8 -12 -8l-21 -22q-16 -16 -18 -19l-11 -12l-10 -10l2 4l25 35l26 37q0 1 1.5 2t1.5 2q2 2 2 4q2 2 2 6l-7 6q-1 0 -3 1 t-3 1t-4.5 -1t-5.5 -1l-10 -6l-4 -4q-2 -1 -3.5 -4t-2.5 -4l-5 -7l-77 -133zM1083 55q0 7 4 23q2 9 11 18q12 12 20 15q6 4 25 4q16 0 24 -4q1 -1 8 -4t9 -7q4 -4 12 -20q4 -12 4 -25q0 -17 -8 -30q-2 -9 -18 -21q-11 -8 -31 -8q-22 0 -35 8q-2 1 -18 23q-7 14 -7 28z M1114 55q0 -10 6 -22q4 -10 23 -10q16 0 20 10q6 6 6 22t-6 25q-7 10 -20 10q-16 0 -23 -10q-6 -18 -6 -25zM1128 -170q0 -10 5 -25q4 -13 10 -16q12 -12 35 -12q12 0 24 6q4 1 15 12q6 12 6 23h-27q0 -10 -6 -13q-4 -4 -12 -4q-9 0 -13 4l-8 11q0 2 -1 8t-1 10q0 16 8 21 q7 10 17 10q6 0 12 -6q4 -8 4 -13h31q0 3 -10 23q-7 11 -17 14q-12 4 -22 4q-26 0 -39 -16q-11 -26 -11 -41zM1167 627h107v41h-2q-2 -2 -4 -8l-2 -5q-4 -4 -4 -8l-5 -6q-8 -8 -12 -10q-1 0 -6 -1t-8 -1h-25v73q0 11 6 11q2 4 13 4h6v4h-64v-4h4q17 0 17 -15v-57 q0 -16 -17 -16h-4v-2zM1221 -2v115h28v-17q13 19 35 19q15 0 21 -4l14 -13q4 -12 4 -20v-80h-29v70q0 8 -4 16q-6 6 -16 6q-14 0 -19 -8q-4 -4 -4 -19v-65h-30zM1237 -166q0 -57 49 -57q11 0 23 4q6 2 14 10q6 4 10 21h-26l-7 -9q-8 -4 -14 -4q-10 0 -16 6t-6 19h71v6 q0 15 -6 27q-3 17 -14 22q-8 8 -29 8q-18 0 -29 -8q-10 -5 -16 -20q-4 -16 -4 -25zM1264 -158q3 23 20 23q4 0 16 -6q7 -7 7 -17h-43zM1266 963q0 2 2 2q0 2 2 4l6 10l8 10l6 12l8 11l19 24l26 33l7 8l16 13q2 2 8 2q4 2 8 2l7 -4q0 -1 1 -3.5t1 -3.5q0 -4 -2 -8q0 -1 -5 -6 l-16 -22l-12 -23l-17 -14l-16 -19l-10 -8l-13 -10l-10 -8q-2 0 -5 -2t-5 -2q-8 -4 -10 -3h-2q-2 2 -2 5zM1268 717h2q10 0 14 -2q7 -7 8 -10l29 -39v-21q0 -10 -2 -12q-8 -4 -14 -4h-7v-2h68v2h-8q-8 0 -12 4q-5 5 -5 12v23l25 34l4 7q8 4 10 4q0 2 4 2l9 2v4h-47v-4h6 q8 0 10 -2q4 -2 4 -6q0 -5 -6 -11l-19 -26l-24 30q-4 8 -4 9v2q0 2 2 2q0 2 6 2h8v4h-61v-4zM1337 92v21h19v28h26v-28h21v-21h-21v-61l2 -8q2 0 5.5 -1.5t5.5 -1.5l4 3h4v-25h-21q-14 0 -16 4q-7 0 -10 8v82h-19zM1352 -190v-31h30v31h-30zM1401 -170q0 -13 4 -25 q4 -13 10 -16q15 -12 35 -12q16 0 25 6q6 2 16 12q5 9 8 23h-31q0 -10 -6 -13q-2 -4 -12 -4q-8 0 -10 4q-3 2 -8 11q0 2 -1 8t-1 10q0 15 6 21q7 10 16 10q6 0 12 -6l6 -13h29q0 12 -8 23q-12 12 -18 14q-12 4 -23 4q-26 0 -39 -16q-10 -23 -10 -41zM1473 31q0 16 8 24 q20 10 24 11l27 4q10 0 10 8q0 14 -18 14q-9 0 -13 -4q-5 -3 -8 -14h-26q0 15 6 24q5 8 16 13q4 4 12 4h13q24 0 32 -4q12 -12 13 -15q2 -4 2 -14v-72q0 -6 8 -6v-6h-33l-2 4v2q0 2 -1 4.5t-1 3.5l-8 -8l-10 -6q-4 0 -9 -1t-8 -1t-8 1t-8 1q-1 1 -6.5 5t-7.5 7q-4 8 -4 21z M1501 31q0 -8 4 -8q5 -5 11 -5h8l4 2q9 4 10 7q4 8 4 14v14q-6 -6 -12 -6l-14 -4q-7 0 -11 -4q-4 -2 -4 -10zM1511 -168q0 -7 5 -27q6 -14 18 -20q11 -8 31 -8q16 0 28 6q14 7 17 20q6 12 6 29t-2 23q-2 2 -5 9t-5 9q-13 9 -17 10q-12 4 -22 4q-13 0 -25 -4q-10 -3 -16 -12 q-8 -7 -11 -18q-2 -8 -2 -21zM1538 -168q0 14 6 23q3 10 21 10q15 0 18 -10q6 -9 6 -23q0 -13 -6 -22q-3 -9 -18 -9q-18 0 -21 9q-6 9 -6 22zM1567 1167l28 37l13 23l26 35q0 2 2 2q0 4 4 4l2 2q0 -8 -2 -10l-8 -11l-6 -10l-6 -8l-16 -21l-19 -20l-10 -12q-5 -9 -8 -11z M1585 92v21h14v28h33v-28h19v-21h-19v-69q1 0 4.5 -1.5t5.5 -1.5l5 3h4v-25h-19q-14 0 -20 4q-5 0 -8 8q0 1 -2.5 6t-2.5 7v69h-14zM1636 -115v-106h27v63q0 23 16 23q11 0 15 -4t4 -8v-74h26v63q0 23 19 23q16 0 16 -23v-63h27v71q0 11 -4 19q-2 6 -10 14q-12 4 -23 4 q-8 0 -16 -4t-11 -12q-6 9 -12 12q-8 4 -16 4q-22 0 -31 -18v16h-27z" />
<glyph unicode="7" d="M70 -193q0 -12 6 -18q3 -7 10 -10q6 -2 18 -2q9 0 13 2q1 1 4.5 2t5.5 2l8 8q0 -4 2 -6v-6h29v4q-4 4 -4 6q-2 2 -2 12v56q0 10 -2 14q-2 5 -13 12q-12 4 -26 4q-9 0 -13 -2q-10 0 -14 -2q-10 -5 -12 -12q-6 -6 -6 -21h24q0 8 8 11q3 6 13 6q16 0 16 -17q0 -6 -10 -6 l-27 -4q-10 0 -20 -10q-8 -5 -8 -23zM96 -190q0 6 4 10q8 4 13 4l12 2q8 4 10 4v-12q0 -5 -4 -13l-10 -6h-4q-2 -4 -6 -4q-1 0 -2.5 1t-4 2.5t-4.5 2.5q-4 4 -4 9zM125 565v494l268 59l-10 37l41 12l-8 39l41 8l-6 46l41 2v41h36l4 36l39 -6l9 41l43 -6l10 39l39 -10l16 37 l39 -17l23 39l34 -18l23 35l37 -25l24 33l35 -27l27 29l26 -25l27 23l27 -29l34 23l23 -37l39 20l18 -35l37 17l17 -41l43 12l12 -39l39 10l8 -43l43 4l2 -26l404 88v-496l-185 -41l4 -2l-24 -26l24 -29l-32 -27l22 -34l-37 -23l23 -37l-35 -20l14 -37l-39 -17l13 -43 l-37 -12l6 -39l-41 -8l2 -43l-39 -4v-39h-35l-6 -37l-39 2l-8 -37l-43 6l-10 -40l-39 12l-14 -39l-44 16l-18 -39l-37 21l-22 -35l-37 23l-25 -33l-30 26l-31 -26l-27 24l-26 -24l-25 31l-35 -23l-24 37l-37 -21l-19 35l-39 -16l-18 41l-39 -13l-12 37l-41 -8l-8 43l-43 -4 l-5 41h-40v35l-35 4l4 41l-41 6l8 43l-41 12l12 37l-28 12zM186 -115v-106h27v55q0 25 27 25h8v28h-6q-13 0 -15 -2l-8 -8l-6 -10h-2v18h-25zM236 76v16q0 2 2 7t2 7q3 14 14 25q4 6 22 19q15 6 33 6h6q2 0 8 -1t9 -1q7 0 14 -7q15 -9 21 -18q4 -4 8 -12l2 -11h-33q0 5 -4 9 l-10 10q-6 4 -19 4h-14l-14 -12q-11 -5 -11 -15q-4 -8 -4 -28q0 -9 4 -29q2 -9 13 -14q16 -8 20 -8h4q13 0 19 4q4 0 12 8q8 16 8 20h-37v27h66v-84h-21l-4 20q-6 -8 -14 -14q-2 -2 -19 -8q-3 0 -9 -1t-9 -1q-13 0 -25 6q-14 7 -20 16q-7 6 -16 27q-4 10 -4 33zM236 702h10 l8 5l10 10l8 10l11 10q5 10 8 13l63 86l19 30l20 31q10 12 21 31l16 33q2 4 0 6t-4 2q-8 0 -10 -2l-8 -4l-33 -41q-7 -7 -15 -19l-16 -20l-55 -80l-27 -41l-22 -43l-4 -6v-11zM262 -78v-24h29v24h-29zM262 -115v-106h29v106h-29zM276 889q0 -1 11 -12l18 -7q15 0 23 2 q4 0 4 2l2 5q0 2 -2 2h-4q-4 0 -4 -2q-15 -3 -29 2q-8 4 -10 8q0 2 -1 5t-1 5q0 6 2 12l6 15l16 18q3 3 6.5 5.5t8.5 6t8 5.5q3 1 10.5 6.5t13.5 7.5l25 12q9 0 29 8l28 4q20 5 27 5q2 0 22 -5q12 0 15 -6l10 -12v-16q0 -13 -2 -21l-10 -18q-2 -5 -8 -12.5t-7 -8.5 q-3 -4 -6 -7t-7 -6.5t-7 -6.5q-4 -7 -21 -19l-22 -14l-25 -10l-14 -6q-1 0 -5.5 -1t-6.5 -1h-4q-4 0 -7 -3q-2 0 -2 -2q-4 0 -4 -4q0 -2 2 -2h4q5 0 7 2h4l26 9l27 12l27 10l26 16l23 17l20 18l17 21q11 17 12 20q4 12 4 19q3 10 0 18l-6 14l-15 11q-16 4 -20 4q-8 2 -23 2 q-8 0 -24 -4q-14 0 -57 -13q-31 -8 -54 -22q-22 -11 -26 -14q-20 -15 -23 -19l-18 -18l-9 -21q-3 -10 0 -16zM317 -115v-106h27v61q0 5 4 17q8 8 17 8q12 0 16 -8q2 -2 2 -15v-63h29v71q0 13 -4 21q-6 8 -13 12q-12 4 -20 4q-21 0 -33 -18v16h-25zM395 57q0 21 6 29 q3 13 17 20q11 9 33 9t28 -9q13 -6 19 -22q4 -10 4 -31v-8h-78q0 -6 8 -18q7 -7 19 -7q3 0 7 1.5t5 1.5q8 8 8 10h31l-10 -21l-17 -12q-20 -4 -24 -4q-56 0 -56 61zM428 68h45q-4 12 -8 16q-8 8 -14 8q-23 0 -23 -24zM430 -166q0 -15 8 -31q5 -12 17 -20q16 -4 22 -4 q18 0 29 14v-18q0 -1 -1 -3t-1 -3q0 -4 -8 -9q-2 -2 -15 -2q-10 0 -12 2l-6 9h-27q0 -7 2 -11q0 -4 4 -8q11 -7 19 -10q3 0 9 -1t9 -1q21 0 33 6q10 5 16 14q4 16 4 27v100h-24l-2 -16q-1 3 -12 14q-12 4 -19 4q-16 0 -24 -8q-10 -6 -15 -20q-6 -24 -6 -25zM461 -168 q0 17 6 23q7 10 14 10t17 -10q8 -8 8 -23q0 -13 -7 -21t-18 -8q-4 0 -12 4q-6 6 -6 11q-2 6 -2 14zM498 717q20 0 20 -15v-49q0 -9 10 -22l17 -4q4 -2 18 -2q13 0 25 4q8 4 10 6q8 5 8 18q-3 -9 -10 -16l-12 -8h-15q-12 0 -18 2q-2 0 -10 8q-4 4 -4 14v49q0 11 4 11 q4 4 14 4h6v4h-63v-4zM510 92v21h16v28h31v-28h16v-21h-16v-61q0 -8 2 -8q4 -3 10 -3l2 3h2v-25h-16q-14 0 -20 4q-6 0 -9 8q-2 2 -2 13v69h-16zM510 821q3 -8 10 -12q9 -9 23 -6q14 0 26 6q13 2 33 14t31 23l24 20l15 15q0 2 4 6l2 4l4 6l16 16l15 21q5 3 10.5 10.5 t7.5 9.5l6 -2l4 -6l2 -6q0 -1 -1 -2.5t-2.5 -3.5t-2.5 -4l-16 -17l-14 -20l-13 -19l-4 -18q-2 -2 -2 -8v-6l4 -8h8q11 0 17 2l16 10q2 2 10 7.5t11 10.5q4 2 10 8.5t8 8.5l8 12l8 10l5 4l4 6q4 4 4 5l12 16l21 31q0 -3 1 -8t1 -7q4 -12 4 -14l4 -8q-15 -3 -25 -13l-20 -14 q-1 -1 -6.5 -7.5t-6.5 -10.5q-2 -6 -2 -17q0 -6 11 -10h18q13 0 25 8q15 7 22 17q2 1 17 16l8 18q6 9 6 19v16q0 7 -4 15l-6 16l-7 6q0 4 -4 8l-2 4v11h-8l-4 -4l-12 -9l-4 -12l-2 -2l-4 -6l-33 -45l-4 -6l-6 -11h-3v-2l-4 -2l-4 -8l-6 -8l-14 -18l-23 -21l-12 -6 q-4 -4 -12 -4v2l8 10l6 10l8 11l6 8l9 14l10 14l4 15q2 6 2 14q-2 2 -2 8l-2 4q0 5 -2 7v22l6 10q4 8 -4 13q-3 7 -17 0q-9 -2 -16 -9q-5 -3 -10 -12q-4 -4 -4 -10q0 -8 2 -12l4 -2q0 -1 4 -5l-12 -12l-23 -31l-20 -22q-4 0 -4 -4v-2l-2 -2l-2 -2l-11 -15q-26 -21 -28 -22 q-13 -13 -33 -23l-21 -8q-12 -4 -18 -2q-6 0 -6 4q-2 2 -2 6q0 3 4 11l2 8l10 16q4 -2 12 -2h19q10 3 26 12q4 1 7.5 3t8.5 6t9 6l14 16q1 2 4 5t5 5.5t2 5.5l8 13q0 12 -4 14q-4 8 -8 10h-19q-12 0 -18 -4l-21 -8q-26 -13 -45 -29q-21 -17 -29 -34q-3 -3 -12 -21 q-6 -8 -8 -18v-17zM545 -115v-20h14v-64q0 -10 2 -12q0 -3 10 -8q4 -2 17 -2h16v22h-2l-4 -2l-8 2q-2 2 -2 9v55h16v20h-16v27h-29v-27h-14zM567 870l15 23l18 20l6 9l10 8l11 10l12 4q8 3 14 0v-10l-6 -8q-6 -6 -6 -11l-10 -10q0 -2 -8 -10q-7 -7 -9 -8l-10 -8l-12 -9 q-6 -2 -12 -2q-11 0 -13 2zM580 717h10l4 -2q12 -3 12 -23v15l10 8q2 0 2 2h9v4h-47v-4zM610 -115l2 -8l37 -102q0 -4 -2 -6v-5q-4 -4 -6 -4h-16v-22h14q3 0 7.5 1t6.5 1q5 0 11 6l6 12l8 23l2 2l35 102h-31l-20 -78l-21 78h-33zM639 694q0 -2 4 -10q0 -6 6 -6l13 -6 q2 -2 20 -6l8 -2q10 -5 12 -5q5 0 9 -4l2 -2q6 -3 6 -10l-4 -8q-2 -4 -8 -6h-11q-10 0 -16 2l-16 6l-11 10q-10 10 -10 21h-2v-43h2q0 6 4 6q4 4 8 4q1 0 3 -1t4 -1q1 0 3 -1t3 -1l14 -4q4 -2 14 -2q5 0 17 4q3 0 12 6q1 1 2.5 4t3.5 4v21l-6 6q-2 5 -12 8l-17 6h-10l-2 2 q-2 1 -5.5 1.5t-5.5 1t-3 1.5q-6 0 -8 2q-3 0 -7 4l-2 6v9l4 4q1 0 9 4q1 0 4.5 1t5.5 1q6 0 14 -4q8 0 12 -4q9 -5 11 -8q2 -1 3.5 -4t3 -7t3.5 -6h2v31h-2q-2 -6 -8 -6h-8q-17 10 -31 10q-9 0 -21 -4l-12 -8q-4 -12 -4 -17zM641 92v21h14v8q0 33 35 33h15v-25h-15 q-4 0 -4 -4v-12h19v-21h-19v-94h-31v94h-14zM723 37v76h29v-70q0 -20 20 -20h10l11 10q0 1 2 5.5t2 6.5v68h26v-115h-26v16q-5 -7 -15 -12q-12 -6 -20 -6q-22 0 -29 12q-10 7 -10 29zM731 -115v-145h27v51q2 -2 2 -4q4 0 6 -2l8 -6q4 -2 14 -2q14 0 25 8q8 5 12 22 q6 12 6 13q0 2 1.5 6t1.5 6q0 12 -7 23q-3 13 -10 20q-4 4 -12 8q-6 4 -17 4q-6 0 -8 -2l-8 -6l-8 -8q-6 -2 -8 -2v16h-25zM741 627h103v39l-6 -13l-11 -14q-6 -6 -8 -6l-10 -2q-4 -2 -12 -2h-15v41h2q10 0 19 -6l4 -7q0 -1 1 -3t1 -3v-8h2v59h-2v-8l-4 -10q-10 -10 -19 -10 h-4v43h17q16 0 22 -2l8 -6l5 -11l6 -14h4v37h-103v-4h4q9 0 11 -4q6 0 6 -11v-57q0 -16 -17 -16h-4v-2zM756 -170q0 15 7 25t17 10q9 0 19 -10q4 -12 4 -23q0 -10 -4 -22q-6 -9 -19 -9q-10 0 -16 9q-8 5 -8 20zM793 868v9l4 10l6 8q8 10 18 18l23 11q0 -2 1 -6t1 -5 q-2 -4 -2 -8v-12l-4 -8l-9 -11l-8 -6q-1 0 -3.5 -1t-4.5 -1q-2 -2 -8 -2q-4 -4 -8 0q-2 0 -6 4zM844 -166q0 -57 49 -57q10 0 22 4q4 1 17 10q4 4 8 21h-27l-6 -9q-8 -4 -14 -4q-10 0 -16 6q-7 7 -7 19h72v6q0 11 -4 27q-6 15 -16 22q-8 8 -31 8q-16 0 -27 -8 q-10 -5 -16 -20q-4 -8 -4 -25zM852 -2v156h29v-156h-29zM870 -158q3 23 21 23q4 0 16 -6q6 -6 6 -17h-43zM903 -2v156h29v-156h-29zM905 674q0 -15 4 -21q1 -1 5 -6.5t8 -7.5q6 -6 18 -10q16 -4 23 -4q17 0 26 6q8 3 23 18q6 9 6 25q0 10 -4 16q-4 13 -10 17q-4 6 -19 10 q-12 6 -22 6q-21 0 -29 -8q-11 -2 -21 -17q-8 -11 -8 -24zM915 901q0 -8 5 -8l10 -8h10h12q6 1 15 4l12 4l27 14l22 21l19 16l14 21l10 16l6 18q4 11 0 15q0 7 -6 10q0 5 -10 8q-1 0 -6 1t-8 1q-7 0 -19 -4l-12 -4l-12 -4l-25 -16l-23 -19l-16 -18l-12 -19q-11 -19 -13 -26 v-23zM928 674q0 2 1 7.5t1 8.5l6 12l6 11q1 1 4.5 2t5.5 2q4 4 13 4q2 -2 6 -2l6 -4l10 -8q0 -2 2.5 -7.5t3.5 -9.5l1 -6q1 -6 1 -10q0 -13 -4 -25l-12 -18q-4 -2 -16 -2q-11 0 -13 2q-9 0 -12 10l-6 12q-4 12 -4 21zM940 895v12q4 15 10 21l15 22l10 13l24 30l19 19l8 8 l10 4q4 2 11 2q2 0 4 -2t2 -8q0 -2 -4 -10l-5 -9l-6 -10l-6 -10l-20 -31l-17 -18l-20 -21q0 -3 -10 -6q-2 -4 -13 -8h-8q-4 0 -4 2zM948 -115v-20h17v-86h26v86h19v20h-19v4l2 9q0 2 2 2h13v22h-13q-30 0 -30 -28v-9h-17zM1010 92v21h14v8q0 33 35 33h12v-25h-12q-2 0 -4 -4 v-12h20v-21h-20v-94h-31v94h-14zM1018 -193q0 -10 4 -18l14 -10q6 -2 15 -2q10 0 14 2q1 1 4.5 2t5.5 2l8 8v-6q0 -1 1 -2t1 -2v-2h31v4q-4 4 -4 6q-2 2 -2 12v56q0 10 -2 14q-3 6 -12 12q-16 4 -29 4q-10 0 -14 -2q-7 0 -11 -2q-8 -3 -14 -12q-6 -6 -6 -21h27q0 8 6 11 q3 6 12 6q14 0 14 -17q0 -6 -8 -6l-24 -4q-11 0 -21 -10q-10 -5 -10 -23zM1032 627h49v2q-6 0 -10 2h-8l-4 10q-2 2 -2 12v56l80 -82h4v65q0 9 4 21q4 4 16 4v4h-47v-4h8q0 -2 4 -2q7 -3 7 -8q4 -4 4 -15v-39l-66 68h-37v-4q8 0 10 -2q1 0 3.5 -1t3.5 -1q2 -4 2 -11v-53 q0 -6 -2 -10l-7 -8q-2 0 -6.5 -1t-5.5 -1v-2zM1047 -190q0 6 4 10t8 4l14 2l8 4v-12q0 -9 -2 -13l-10 -6h-4q-2 -4 -6 -4q-2 0 -8 6q-4 4 -4 9zM1051 905q1 0 3 -1t3 -1q4 0 8 2l8 4q0 2 4 6q1 0 2 1.5t2 1.5l4 6q0 4 5 4l16 22l20 21l17 20l22 21l29 28l10 9l10 8l13 4 q2 0 2 -2h-2l-4 -4q-2 -5 -9 -8l-4 -7l-12 -14q-3 -2 -7 -7.5t-5 -6.5l-15 -23l-14 -20l-6 -19q-3 -10 0 -16t8 -6h19q3 1 10 5.5t12 6.5l19 14l22 23q-2 -2 -2 -6q0 -7 4 -15q2 -4 10 -8q6 -2 21 2q10 2 24 13l21 14l14 14l13 13v-5q0 -1 -1.5 -3t-1.5 -3v-6q-3 -7 0 -10 q0 -1 1.5 -3t1.5 -3q0 -6 6 -6h16l6 4l8 6l13 6l32 27l17 16l-4 -12q-4 -6 -4 -19v-6l4 -2q0 -2 6 -2q4 0 8 4q9 0 12 6l11 6l12 13q2 0 10 8q3 2 19 18l18 21v4q0 2 -2 2q-4 0 -8 -4l-2 -4l-13 -15l-10 -12q-9 -6 -12 -12l-14 -12l-9 -7l-8 -2q-2 0 -2 -2q-2 0 -4 2h2l8 15 q4 8 8 12l7 12q3 2 8 11l63 92q12 11 13 16l16 16l37 43q13 13 33 41l10 19v8q-2 2 -8 2q-3 0 -11 -4l-12 -6q-4 0 -10 -6l-8 -6l-23 -19l-16 -18q-7 -7 -19 -23q-1 -2 -14 -20l-27 -41l-26 -45l-19 -33l-8 -16h-2l-14 -15q-1 -2 -19 -20l-18 -17l-10 -8l-7 -4q-2 -2 -4 -2 l-4 -4h-10l12 20l2 4q12 20 19 27l16 29l15 20l8 13l6 10l2 2q0 2 2 2q0 1 1 2t1 2q6 3 4 8q0 2 -6 2l-10 -4l-10 -6l-19 -12l-14 -13q0 7 -2 11q0 3 -6 6q-12 3 -21 0q-16 -4 -22 -8l-25 -13l-18 -16q-26 -19 -37 -39q-14 -17 -21 -37h-4l-16 -18q-22 -17 -23 -17 q-2 -5 -12 -8q-4 -4 -10 -4h-2q-2 2 0 4l6 8l6 11l12 14l21 27q15 19 18 28l8 17q4 11 2 16q0 6 -2 6q0 4 -6 4t-8 -2l-12 -4l-13 -8l-10 -8l-10 -9q-8 -8 -12 -8l-21 -22q-16 -16 -18 -19l-11 -12l-10 -10l2 4l25 35l26 37q0 1 1.5 2t1.5 2q2 2 2 4q2 2 2 6l-7 6q-1 0 -3 1 t-3 1t-4.5 -1t-5.5 -1l-10 -6l-4 -4q-2 -1 -3.5 -4t-2.5 -4l-5 -7l-77 -133zM1083 55q0 7 4 23q2 9 11 18q12 12 20 15q6 4 25 4q16 0 24 -4q1 -1 8 -4t9 -7q4 -4 12 -20q4 -12 4 -25q0 -17 -8 -30q-2 -9 -18 -21q-11 -8 -31 -8q-22 0 -35 8q-2 1 -18 23q-7 14 -7 28z M1114 55q0 -10 6 -22q4 -10 23 -10q16 0 20 10q6 6 6 22t-6 25q-7 10 -20 10q-16 0 -23 -10q-6 -18 -6 -25zM1128 -170q0 -10 5 -25q4 -13 10 -16q12 -12 35 -12q12 0 24 6q4 1 15 12q6 12 6 23h-27q0 -10 -6 -13q-4 -4 -12 -4q-9 0 -13 4l-8 11q0 2 -1 8t-1 10q0 16 8 21 q7 10 17 10q6 0 12 -6q4 -8 4 -13h31q0 3 -10 23q-7 11 -17 14q-12 4 -22 4q-26 0 -39 -16q-11 -26 -11 -41zM1167 627h107v41h-2q-2 -2 -4 -8l-2 -5q-4 -4 -4 -8l-5 -6q-8 -8 -12 -10q-1 0 -6 -1t-8 -1h-25v73q0 11 6 11q2 4 13 4h6v4h-64v-4h4q17 0 17 -15v-57 q0 -16 -17 -16h-4v-2zM1221 -2v115h28v-17q13 19 35 19q15 0 21 -4l14 -13q4 -12 4 -20v-80h-29v70q0 8 -4 16q-6 6 -16 6q-14 0 -19 -8q-4 -4 -4 -19v-65h-30zM1237 -166q0 -57 49 -57q11 0 23 4q6 2 14 10q6 4 10 21h-26l-7 -9q-8 -4 -14 -4q-10 0 -16 6t-6 19h71v6 q0 15 -6 27q-3 17 -14 22q-8 8 -29 8q-18 0 -29 -8q-10 -5 -16 -20q-4 -16 -4 -25zM1264 -158q3 23 20 23q4 0 16 -6q7 -7 7 -17h-43zM1266 963q0 2 2 2q0 2 2 4l6 10l8 10l6 12l8 11l19 24l26 33l7 8l16 13q2 2 8 2q4 2 8 2l7 -4q0 -1 1 -3.5t1 -3.5q0 -4 -2 -8q0 -1 -5 -6 l-16 -22l-12 -23l-17 -14l-16 -19l-10 -8l-13 -10l-10 -8q-2 0 -5 -2t-5 -2q-8 -4 -10 -3h-2q-2 2 -2 5zM1268 717h2q10 0 14 -2q7 -7 8 -10l29 -39v-21q0 -10 -2 -12q-8 -4 -14 -4h-7v-2h68v2h-8q-8 0 -12 4q-5 5 -5 12v23l25 34l4 7q8 4 10 4q0 2 4 2l9 2v4h-47v-4h6 q8 0 10 -2q4 -2 4 -6q0 -5 -6 -11l-19 -26l-24 30q-4 8 -4 9v2q0 2 2 2q0 2 6 2h8v4h-61v-4zM1337 92v21h19v28h26v-28h21v-21h-21v-61l2 -8q2 0 5.5 -1.5t5.5 -1.5l4 3h4v-25h-21q-14 0 -16 4q-7 0 -10 8v82h-19zM1352 -190v-31h30v31h-30zM1401 -170q0 -13 4 -25 q4 -13 10 -16q15 -12 35 -12q16 0 25 6q6 2 16 12q5 9 8 23h-31q0 -10 -6 -13q-2 -4 -12 -4q-8 0 -10 4q-3 2 -8 11q0 2 -1 8t-1 10q0 15 6 21q7 10 16 10q6 0 12 -6l6 -13h29q0 12 -8 23q-12 12 -18 14q-12 4 -23 4q-26 0 -39 -16q-10 -23 -10 -41zM1473 31q0 16 8 24 q20 10 24 11l27 4q10 0 10 8q0 14 -18 14q-9 0 -13 -4q-5 -3 -8 -14h-26q0 15 6 24q5 8 16 13q4 4 12 4h13q24 0 32 -4q12 -12 13 -15q2 -4 2 -14v-72q0 -6 8 -6v-6h-33l-2 4v2q0 2 -1 4.5t-1 3.5l-8 -8l-10 -6q-4 0 -9 -1t-8 -1t-8 1t-8 1q-1 1 -6.5 5t-7.5 7q-4 8 -4 21z M1501 31q0 -8 4 -8q5 -5 11 -5h8l4 2q9 4 10 7q4 8 4 14v14q-6 -6 -12 -6l-14 -4q-7 0 -11 -4q-4 -2 -4 -10zM1511 -168q0 -7 5 -27q6 -14 18 -20q11 -8 31 -8q16 0 28 6q14 7 17 20q6 12 6 29t-2 23q-2 2 -5 9t-5 9q-13 9 -17 10q-12 4 -22 4q-13 0 -25 -4q-10 -3 -16 -12 q-8 -7 -11 -18q-2 -8 -2 -21zM1538 -168q0 14 6 23q3 10 21 10q15 0 18 -10q6 -9 6 -23q0 -13 -6 -22q-3 -9 -18 -9q-18 0 -21 9q-6 9 -6 22zM1567 1167l28 37l13 23l26 35q0 2 2 2q0 4 4 4l2 2q0 -8 -2 -10l-8 -11l-6 -10l-6 -8l-16 -21l-19 -20l-10 -12q-5 -9 -8 -11z M1585 92v21h14v28h33v-28h19v-21h-19v-69q1 0 4.5 -1.5t5.5 -1.5l5 3h4v-25h-19q-14 0 -20 4q-5 0 -8 8q0 1 -2.5 6t-2.5 7v69h-14zM1636 -115v-106h27v63q0 23 16 23q11 0 15 -4t4 -8v-74h26v63q0 23 19 23q16 0 16 -23v-63h27v71q0 11 -4 19q-2 6 -10 14q-12 4 -23 4 q-8 0 -16 -4t-11 -12q-6 9 -12 12q-8 4 -16 4q-22 0 -31 -18v16h-27z" />
<glyph unicode="8" d="M70 -193q0 -12 6 -18q3 -7 10 -10q6 -2 18 -2q9 0 13 2q1 1 4.5 2t5.5 2l8 8q0 -4 2 -6v-6h29v4q-4 4 -4 6q-2 2 -2 12v56q0 10 -2 14q-2 5 -13 12q-12 4 -26 4q-9 0 -13 -2q-10 0 -14 -2q-10 -5 -12 -12q-6 -6 -6 -21h24q0 8 8 11q3 6 13 6q16 0 16 -17q0 -6 -10 -6 l-27 -4q-10 0 -20 -10q-8 -5 -8 -23zM96 -190q0 6 4 10q8 4 13 4l12 2q8 4 10 4v-12q0 -5 -4 -13l-10 -6h-4q-2 -4 -6 -4q-1 0 -2.5 1t-4 2.5t-4.5 2.5q-4 4 -4 9zM125 565v494l268 59l-10 37l41 12l-8 39l41 8l-6 46l41 2v41h36l4 36l39 -6l9 41l43 -6l10 39l39 -10l16 37 l39 -17l23 39l34 -18l23 35l37 -25l24 33l35 -27l27 29l26 -25l27 23l27 -29l34 23l23 -37l39 20l18 -35l37 17l17 -41l43 12l12 -39l39 10l8 -43l43 4l2 -26l404 88v-496l-185 -41l4 -2l-24 -26l24 -29l-32 -27l22 -34l-37 -23l23 -37l-35 -20l14 -37l-39 -17l13 -43 l-37 -12l6 -39l-41 -8l2 -43l-39 -4v-39h-35l-6 -37l-39 2l-8 -37l-43 6l-10 -40l-39 12l-14 -39l-44 16l-18 -39l-37 21l-22 -35l-37 23l-25 -33l-30 26l-31 -26l-27 24l-26 -24l-25 31l-35 -23l-24 37l-37 -21l-19 35l-39 -16l-18 41l-39 -13l-12 37l-41 -8l-8 43l-43 -4 l-5 41h-40v35l-35 4l4 41l-41 6l8 43l-41 12l12 37l-28 12zM186 -115v-106h27v55q0 25 27 25h8v28h-6q-13 0 -15 -2l-8 -8l-6 -10h-2v18h-25zM236 76v16q0 2 2 7t2 7q3 14 14 25q4 6 22 19q15 6 33 6h6q2 0 8 -1t9 -1q7 0 14 -7q15 -9 21 -18q4 -4 8 -12l2 -11h-33q0 5 -4 9 l-10 10q-6 4 -19 4h-14l-14 -12q-11 -5 -11 -15q-4 -8 -4 -28q0 -9 4 -29q2 -9 13 -14q16 -8 20 -8h4q13 0 19 4q4 0 12 8q8 16 8 20h-37v27h66v-84h-21l-4 20q-6 -8 -14 -14q-2 -2 -19 -8q-3 0 -9 -1t-9 -1q-13 0 -25 6q-14 7 -20 16q-7 6 -16 27q-4 10 -4 33zM236 702h10 l8 5l10 10l8 10l11 10q5 10 8 13l63 86l19 30l20 31q10 12 21 31l16 33q2 4 0 6t-4 2q-8 0 -10 -2l-8 -4l-33 -41q-7 -7 -15 -19l-16 -20l-55 -80l-27 -41l-22 -43l-4 -6v-11zM262 -78v-24h29v24h-29zM262 -115v-106h29v106h-29zM276 889q0 -1 11 -12l18 -7q15 0 23 2 q4 0 4 2l2 5q0 2 -2 2h-4q-4 0 -4 -2q-15 -3 -29 2q-8 4 -10 8q0 2 -1 5t-1 5q0 6 2 12l6 15l16 18q3 3 6.5 5.5t8.5 6t8 5.5q3 1 10.5 6.5t13.5 7.5l25 12q9 0 29 8l28 4q20 5 27 5q2 0 22 -5q12 0 15 -6l10 -12v-16q0 -13 -2 -21l-10 -18q-2 -5 -8 -12.5t-7 -8.5 q-3 -4 -6 -7t-7 -6.5t-7 -6.5q-4 -7 -21 -19l-22 -14l-25 -10l-14 -6q-1 0 -5.5 -1t-6.5 -1h-4q-4 0 -7 -3q-2 0 -2 -2q-4 0 -4 -4q0 -2 2 -2h4q5 0 7 2h4l26 9l27 12l27 10l26 16l23 17l20 18l17 21q11 17 12 20q4 12 4 19q3 10 0 18l-6 14l-15 11q-16 4 -20 4q-8 2 -23 2 q-8 0 -24 -4q-14 0 -57 -13q-31 -8 -54 -22q-22 -11 -26 -14q-20 -15 -23 -19l-18 -18l-9 -21q-3 -10 0 -16zM317 -115v-106h27v61q0 5 4 17q8 8 17 8q12 0 16 -8q2 -2 2 -15v-63h29v71q0 13 -4 21q-6 8 -13 12q-12 4 -20 4q-21 0 -33 -18v16h-25zM395 57q0 21 6 29 q3 13 17 20q11 9 33 9t28 -9q13 -6 19 -22q4 -10 4 -31v-8h-78q0 -6 8 -18q7 -7 19 -7q3 0 7 1.5t5 1.5q8 8 8 10h31l-10 -21l-17 -12q-20 -4 -24 -4q-56 0 -56 61zM428 68h45q-4 12 -8 16q-8 8 -14 8q-23 0 -23 -24zM430 -166q0 -15 8 -31q5 -12 17 -20q16 -4 22 -4 q18 0 29 14v-18q0 -1 -1 -3t-1 -3q0 -4 -8 -9q-2 -2 -15 -2q-10 0 -12 2l-6 9h-27q0 -7 2 -11q0 -4 4 -8q11 -7 19 -10q3 0 9 -1t9 -1q21 0 33 6q10 5 16 14q4 16 4 27v100h-24l-2 -16q-1 3 -12 14q-12 4 -19 4q-16 0 -24 -8q-10 -6 -15 -20q-6 -24 -6 -25zM461 -168 q0 17 6 23q7 10 14 10t17 -10q8 -8 8 -23q0 -13 -7 -21t-18 -8q-4 0 -12 4q-6 6 -6 11q-2 6 -2 14zM498 717q20 0 20 -15v-49q0 -9 10 -22l17 -4q4 -2 18 -2q13 0 25 4q8 4 10 6q8 5 8 18q-3 -9 -10 -16l-12 -8h-15q-12 0 -18 2q-2 0 -10 8q-4 4 -4 14v49q0 11 4 11 q4 4 14 4h6v4h-63v-4zM510 92v21h16v28h31v-28h16v-21h-16v-61q0 -8 2 -8q4 -3 10 -3l2 3h2v-25h-16q-14 0 -20 4q-6 0 -9 8q-2 2 -2 13v69h-16zM510 821q3 -8 10 -12q9 -9 23 -6q14 0 26 6q13 2 33 14t31 23l24 20l15 15q0 2 4 6l2 4l4 6l16 16l15 21q5 3 10.5 10.5 t7.5 9.5l6 -2l4 -6l2 -6q0 -1 -1 -2.5t-2.5 -3.5t-2.5 -4l-16 -17l-14 -20l-13 -19l-4 -18q-2 -2 -2 -8v-6l4 -8h8q11 0 17 2l16 10q2 2 10 7.5t11 10.5q4 2 10 8.5t8 8.5l8 12l8 10l5 4l4 6q4 4 4 5l12 16l21 31q0 -3 1 -8t1 -7q4 -12 4 -14l4 -8q-15 -3 -25 -13l-20 -14 q-1 -1 -6.5 -7.5t-6.5 -10.5q-2 -6 -2 -17q0 -6 11 -10h18q13 0 25 8q15 7 22 17q2 1 17 16l8 18q6 9 6 19v16q0 7 -4 15l-6 16l-7 6q0 4 -4 8l-2 4v11h-8l-4 -4l-12 -9l-4 -12l-2 -2l-4 -6l-33 -45l-4 -6l-6 -11h-3v-2l-4 -2l-4 -8l-6 -8l-14 -18l-23 -21l-12 -6 q-4 -4 -12 -4v2l8 10l6 10l8 11l6 8l9 14l10 14l4 15q2 6 2 14q-2 2 -2 8l-2 4q0 5 -2 7v22l6 10q4 8 -4 13q-3 7 -17 0q-9 -2 -16 -9q-5 -3 -10 -12q-4 -4 -4 -10q0 -8 2 -12l4 -2q0 -1 4 -5l-12 -12l-23 -31l-20 -22q-4 0 -4 -4v-2l-2 -2l-2 -2l-11 -15q-26 -21 -28 -22 q-13 -13 -33 -23l-21 -8q-12 -4 -18 -2q-6 0 -6 4q-2 2 -2 6q0 3 4 11l2 8l10 16q4 -2 12 -2h19q10 3 26 12q4 1 7.5 3t8.5 6t9 6l14 16q1 2 4 5t5 5.5t2 5.5l8 13q0 12 -4 14q-4 8 -8 10h-19q-12 0 -18 -4l-21 -8q-26 -13 -45 -29q-21 -17 -29 -34q-3 -3 -12 -21 q-6 -8 -8 -18v-17zM545 -115v-20h14v-64q0 -10 2 -12q0 -3 10 -8q4 -2 17 -2h16v22h-2l-4 -2l-8 2q-2 2 -2 9v55h16v20h-16v27h-29v-27h-14zM567 870l15 23l18 20l6 9l10 8l11 10l12 4q8 3 14 0v-10l-6 -8q-6 -6 -6 -11l-10 -10q0 -2 -8 -10q-7 -7 -9 -8l-10 -8l-12 -9 q-6 -2 -12 -2q-11 0 -13 2zM580 717h10l4 -2q12 -3 12 -23v15l10 8q2 0 2 2h9v4h-47v-4zM610 -115l2 -8l37 -102q0 -4 -2 -6v-5q-4 -4 -6 -4h-16v-22h14q3 0 7.5 1t6.5 1q5 0 11 6l6 12l8 23l2 2l35 102h-31l-20 -78l-21 78h-33zM639 694q0 -2 4 -10q0 -6 6 -6l13 -6 q2 -2 20 -6l8 -2q10 -5 12 -5q5 0 9 -4l2 -2q6 -3 6 -10l-4 -8q-2 -4 -8 -6h-11q-10 0 -16 2l-16 6l-11 10q-10 10 -10 21h-2v-43h2q0 6 4 6q4 4 8 4q1 0 3 -1t4 -1q1 0 3 -1t3 -1l14 -4q4 -2 14 -2q5 0 17 4q3 0 12 6q1 1 2.5 4t3.5 4v21l-6 6q-2 5 -12 8l-17 6h-10l-2 2 q-2 1 -5.5 1.5t-5.5 1t-3 1.5q-6 0 -8 2q-3 0 -7 4l-2 6v9l4 4q1 0 9 4q1 0 4.5 1t5.5 1q6 0 14 -4q8 0 12 -4q9 -5 11 -8q2 -1 3.5 -4t3 -7t3.5 -6h2v31h-2q-2 -6 -8 -6h-8q-17 10 -31 10q-9 0 -21 -4l-12 -8q-4 -12 -4 -17zM641 92v21h14v8q0 33 35 33h15v-25h-15 q-4 0 -4 -4v-12h19v-21h-19v-94h-31v94h-14zM723 37v76h29v-70q0 -20 20 -20h10l11 10q0 1 2 5.5t2 6.5v68h26v-115h-26v16q-5 -7 -15 -12q-12 -6 -20 -6q-22 0 -29 12q-10 7 -10 29zM731 -115v-145h27v51q2 -2 2 -4q4 0 6 -2l8 -6q4 -2 14 -2q14 0 25 8q8 5 12 22 q6 12 6 13q0 2 1.5 6t1.5 6q0 12 -7 23q-3 13 -10 20q-4 4 -12 8q-6 4 -17 4q-6 0 -8 -2l-8 -6l-8 -8q-6 -2 -8 -2v16h-25zM741 627h103v39l-6 -13l-11 -14q-6 -6 -8 -6l-10 -2q-4 -2 -12 -2h-15v41h2q10 0 19 -6l4 -7q0 -1 1 -3t1 -3v-8h2v59h-2v-8l-4 -10q-10 -10 -19 -10 h-4v43h17q16 0 22 -2l8 -6l5 -11l6 -14h4v37h-103v-4h4q9 0 11 -4q6 0 6 -11v-57q0 -16 -17 -16h-4v-2zM756 -170q0 15 7 25t17 10q9 0 19 -10q4 -12 4 -23q0 -10 -4 -22q-6 -9 -19 -9q-10 0 -16 9q-8 5 -8 20zM793 868v9l4 10l6 8q8 10 18 18l23 11q0 -2 1 -6t1 -5 q-2 -4 -2 -8v-12l-4 -8l-9 -11l-8 -6q-1 0 -3.5 -1t-4.5 -1q-2 -2 -8 -2q-4 -4 -8 0q-2 0 -6 4zM844 -166q0 -57 49 -57q10 0 22 4q4 1 17 10q4 4 8 21h-27l-6 -9q-8 -4 -14 -4q-10 0 -16 6q-7 7 -7 19h72v6q0 11 -4 27q-6 15 -16 22q-8 8 -31 8q-16 0 -27 -8 q-10 -5 -16 -20q-4 -8 -4 -25zM852 -2v156h29v-156h-29zM870 -158q3 23 21 23q4 0 16 -6q6 -6 6 -17h-43zM903 -2v156h29v-156h-29zM905 674q0 -15 4 -21q1 -1 5 -6.5t8 -7.5q6 -6 18 -10q16 -4 23 -4q17 0 26 6q8 3 23 18q6 9 6 25q0 10 -4 16q-4 13 -10 17q-4 6 -19 10 q-12 6 -22 6q-21 0 -29 -8q-11 -2 -21 -17q-8 -11 -8 -24zM915 901q0 -8 5 -8l10 -8h10h12q6 1 15 4l12 4l27 14l22 21l19 16l14 21l10 16l6 18q4 11 0 15q0 7 -6 10q0 5 -10 8q-1 0 -6 1t-8 1q-7 0 -19 -4l-12 -4l-12 -4l-25 -16l-23 -19l-16 -18l-12 -19q-11 -19 -13 -26 v-23zM928 674q0 2 1 7.5t1 8.5l6 12l6 11q1 1 4.5 2t5.5 2q4 4 13 4q2 -2 6 -2l6 -4l10 -8q0 -2 2.5 -7.5t3.5 -9.5l1 -6q1 -6 1 -10q0 -13 -4 -25l-12 -18q-4 -2 -16 -2q-11 0 -13 2q-9 0 -12 10l-6 12q-4 12 -4 21zM940 895v12q4 15 10 21l15 22l10 13l24 30l19 19l8 8 l10 4q4 2 11 2q2 0 4 -2t2 -8q0 -2 -4 -10l-5 -9l-6 -10l-6 -10l-20 -31l-17 -18l-20 -21q0 -3 -10 -6q-2 -4 -13 -8h-8q-4 0 -4 2zM948 -115v-20h17v-86h26v86h19v20h-19v4l2 9q0 2 2 2h13v22h-13q-30 0 -30 -28v-9h-17zM1010 92v21h14v8q0 33 35 33h12v-25h-12q-2 0 -4 -4 v-12h20v-21h-20v-94h-31v94h-14zM1018 -193q0 -10 4 -18l14 -10q6 -2 15 -2q10 0 14 2q1 1 4.5 2t5.5 2l8 8v-6q0 -1 1 -2t1 -2v-2h31v4q-4 4 -4 6q-2 2 -2 12v56q0 10 -2 14q-3 6 -12 12q-16 4 -29 4q-10 0 -14 -2q-7 0 -11 -2q-8 -3 -14 -12q-6 -6 -6 -21h27q0 8 6 11 q3 6 12 6q14 0 14 -17q0 -6 -8 -6l-24 -4q-11 0 -21 -10q-10 -5 -10 -23zM1032 627h49v2q-6 0 -10 2h-8l-4 10q-2 2 -2 12v56l80 -82h4v65q0 9 4 21q4 4 16 4v4h-47v-4h8q0 -2 4 -2q7 -3 7 -8q4 -4 4 -15v-39l-66 68h-37v-4q8 0 10 -2q1 0 3.5 -1t3.5 -1q2 -4 2 -11v-53 q0 -6 -2 -10l-7 -8q-2 0 -6.5 -1t-5.5 -1v-2zM1047 -190q0 6 4 10t8 4l14 2l8 4v-12q0 -9 -2 -13l-10 -6h-4q-2 -4 -6 -4q-2 0 -8 6q-4 4 -4 9zM1051 905q1 0 3 -1t3 -1q4 0 8 2l8 4q0 2 4 6q1 0 2 1.5t2 1.5l4 6q0 4 5 4l16 22l20 21l17 20l22 21l29 28l10 9l10 8l13 4 q2 0 2 -2h-2l-4 -4q-2 -5 -9 -8l-4 -7l-12 -14q-3 -2 -7 -7.5t-5 -6.5l-15 -23l-14 -20l-6 -19q-3 -10 0 -16t8 -6h19q3 1 10 5.5t12 6.5l19 14l22 23q-2 -2 -2 -6q0 -7 4 -15q2 -4 10 -8q6 -2 21 2q10 2 24 13l21 14l14 14l13 13v-5q0 -1 -1.5 -3t-1.5 -3v-6q-3 -7 0 -10 q0 -1 1.5 -3t1.5 -3q0 -6 6 -6h16l6 4l8 6l13 6l32 27l17 16l-4 -12q-4 -6 -4 -19v-6l4 -2q0 -2 6 -2q4 0 8 4q9 0 12 6l11 6l12 13q2 0 10 8q3 2 19 18l18 21v4q0 2 -2 2q-4 0 -8 -4l-2 -4l-13 -15l-10 -12q-9 -6 -12 -12l-14 -12l-9 -7l-8 -2q-2 0 -2 -2q-2 0 -4 2h2l8 15 q4 8 8 12l7 12q3 2 8 11l63 92q12 11 13 16l16 16l37 43q13 13 33 41l10 19v8q-2 2 -8 2q-3 0 -11 -4l-12 -6q-4 0 -10 -6l-8 -6l-23 -19l-16 -18q-7 -7 -19 -23q-1 -2 -14 -20l-27 -41l-26 -45l-19 -33l-8 -16h-2l-14 -15q-1 -2 -19 -20l-18 -17l-10 -8l-7 -4q-2 -2 -4 -2 l-4 -4h-10l12 20l2 4q12 20 19 27l16 29l15 20l8 13l6 10l2 2q0 2 2 2q0 1 1 2t1 2q6 3 4 8q0 2 -6 2l-10 -4l-10 -6l-19 -12l-14 -13q0 7 -2 11q0 3 -6 6q-12 3 -21 0q-16 -4 -22 -8l-25 -13l-18 -16q-26 -19 -37 -39q-14 -17 -21 -37h-4l-16 -18q-22 -17 -23 -17 q-2 -5 -12 -8q-4 -4 -10 -4h-2q-2 2 0 4l6 8l6 11l12 14l21 27q15 19 18 28l8 17q4 11 2 16q0 6 -2 6q0 4 -6 4t-8 -2l-12 -4l-13 -8l-10 -8l-10 -9q-8 -8 -12 -8l-21 -22q-16 -16 -18 -19l-11 -12l-10 -10l2 4l25 35l26 37q0 1 1.5 2t1.5 2q2 2 2 4q2 2 2 6l-7 6q-1 0 -3 1 t-3 1t-4.5 -1t-5.5 -1l-10 -6l-4 -4q-2 -1 -3.5 -4t-2.5 -4l-5 -7l-77 -133zM1083 55q0 7 4 23q2 9 11 18q12 12 20 15q6 4 25 4q16 0 24 -4q1 -1 8 -4t9 -7q4 -4 12 -20q4 -12 4 -25q0 -17 -8 -30q-2 -9 -18 -21q-11 -8 -31 -8q-22 0 -35 8q-2 1 -18 23q-7 14 -7 28z M1114 55q0 -10 6 -22q4 -10 23 -10q16 0 20 10q6 6 6 22t-6 25q-7 10 -20 10q-16 0 -23 -10q-6 -18 -6 -25zM1128 -170q0 -10 5 -25q4 -13 10 -16q12 -12 35 -12q12 0 24 6q4 1 15 12q6 12 6 23h-27q0 -10 -6 -13q-4 -4 -12 -4q-9 0 -13 4l-8 11q0 2 -1 8t-1 10q0 16 8 21 q7 10 17 10q6 0 12 -6q4 -8 4 -13h31q0 3 -10 23q-7 11 -17 14q-12 4 -22 4q-26 0 -39 -16q-11 -26 -11 -41zM1167 627h107v41h-2q-2 -2 -4 -8l-2 -5q-4 -4 -4 -8l-5 -6q-8 -8 -12 -10q-1 0 -6 -1t-8 -1h-25v73q0 11 6 11q2 4 13 4h6v4h-64v-4h4q17 0 17 -15v-57 q0 -16 -17 -16h-4v-2zM1221 -2v115h28v-17q13 19 35 19q15 0 21 -4l14 -13q4 -12 4 -20v-80h-29v70q0 8 -4 16q-6 6 -16 6q-14 0 -19 -8q-4 -4 -4 -19v-65h-30zM1237 -166q0 -57 49 -57q11 0 23 4q6 2 14 10q6 4 10 21h-26l-7 -9q-8 -4 -14 -4q-10 0 -16 6t-6 19h71v6 q0 15 -6 27q-3 17 -14 22q-8 8 -29 8q-18 0 -29 -8q-10 -5 -16 -20q-4 -16 -4 -25zM1264 -158q3 23 20 23q4 0 16 -6q7 -7 7 -17h-43zM1266 963q0 2 2 2q0 2 2 4l6 10l8 10l6 12l8 11l19 24l26 33l7 8l16 13q2 2 8 2q4 2 8 2l7 -4q0 -1 1 -3.5t1 -3.5q0 -4 -2 -8q0 -1 -5 -6 l-16 -22l-12 -23l-17 -14l-16 -19l-10 -8l-13 -10l-10 -8q-2 0 -5 -2t-5 -2q-8 -4 -10 -3h-2q-2 2 -2 5zM1268 717h2q10 0 14 -2q7 -7 8 -10l29 -39v-21q0 -10 -2 -12q-8 -4 -14 -4h-7v-2h68v2h-8q-8 0 -12 4q-5 5 -5 12v23l25 34l4 7q8 4 10 4q0 2 4 2l9 2v4h-47v-4h6 q8 0 10 -2q4 -2 4 -6q0 -5 -6 -11l-19 -26l-24 30q-4 8 -4 9v2q0 2 2 2q0 2 6 2h8v4h-61v-4zM1337 92v21h19v28h26v-28h21v-21h-21v-61l2 -8q2 0 5.5 -1.5t5.5 -1.5l4 3h4v-25h-21q-14 0 -16 4q-7 0 -10 8v82h-19zM1352 -190v-31h30v31h-30zM1401 -170q0 -13 4 -25 q4 -13 10 -16q15 -12 35 -12q16 0 25 6q6 2 16 12q5 9 8 23h-31q0 -10 -6 -13q-2 -4 -12 -4q-8 0 -10 4q-3 2 -8 11q0 2 -1 8t-1 10q0 15 6 21q7 10 16 10q6 0 12 -6l6 -13h29q0 12 -8 23q-12 12 -18 14q-12 4 -23 4q-26 0 -39 -16q-10 -23 -10 -41zM1473 31q0 16 8 24 q20 10 24 11l27 4q10 0 10 8q0 14 -18 14q-9 0 -13 -4q-5 -3 -8 -14h-26q0 15 6 24q5 8 16 13q4 4 12 4h13q24 0 32 -4q12 -12 13 -15q2 -4 2 -14v-72q0 -6 8 -6v-6h-33l-2 4v2q0 2 -1 4.5t-1 3.5l-8 -8l-10 -6q-4 0 -9 -1t-8 -1t-8 1t-8 1q-1 1 -6.5 5t-7.5 7q-4 8 -4 21z M1501 31q0 -8 4 -8q5 -5 11 -5h8l4 2q9 4 10 7q4 8 4 14v14q-6 -6 -12 -6l-14 -4q-7 0 -11 -4q-4 -2 -4 -10zM1511 -168q0 -7 5 -27q6 -14 18 -20q11 -8 31 -8q16 0 28 6q14 7 17 20q6 12 6 29t-2 23q-2 2 -5 9t-5 9q-13 9 -17 10q-12 4 -22 4q-13 0 -25 -4q-10 -3 -16 -12 q-8 -7 -11 -18q-2 -8 -2 -21zM1538 -168q0 14 6 23q3 10 21 10q15 0 18 -10q6 -9 6 -23q0 -13 -6 -22q-3 -9 -18 -9q-18 0 -21 9q-6 9 -6 22zM1567 1167l28 37l13 23l26 35q0 2 2 2q0 4 4 4l2 2q0 -8 -2 -10l-8 -11l-6 -10l-6 -8l-16 -21l-19 -20l-10 -12q-5 -9 -8 -11z M1585 92v21h14v28h33v-28h19v-21h-19v-69q1 0 4.5 -1.5t5.5 -1.5l5 3h4v-25h-19q-14 0 -20 4q-5 0 -8 8q0 1 -2.5 6t-2.5 7v69h-14zM1636 -115v-106h27v63q0 23 16 23q11 0 15 -4t4 -8v-74h26v63q0 23 19 23q16 0 16 -23v-63h27v71q0 11 -4 19q-2 6 -10 14q-12 4 -23 4 q-8 0 -16 -4t-11 -12q-6 9 -12 12q-8 4 -16 4q-22 0 -31 -18v16h-27z" />
<glyph unicode="9" d="M70 -193q0 -12 6 -18q3 -7 10 -10q6 -2 18 -2q9 0 13 2q1 1 4.5 2t5.5 2l8 8q0 -4 2 -6v-6h29v4q-4 4 -4 6q-2 2 -2 12v56q0 10 -2 14q-2 5 -13 12q-12 4 -26 4q-9 0 -13 -2q-10 0 -14 -2q-10 -5 -12 -12q-6 -6 -6 -21h24q0 8 8 11q3 6 13 6q16 0 16 -17q0 -6 -10 -6 l-27 -4q-10 0 -20 -10q-8 -5 -8 -23zM96 -190q0 6 4 10q8 4 13 4l12 2q8 4 10 4v-12q0 -5 -4 -13l-10 -6h-4q-2 -4 -6 -4q-1 0 -2.5 1t-4 2.5t-4.5 2.5q-4 4 -4 9zM125 565v494l268 59l-10 37l41 12l-8 39l41 8l-6 46l41 2v41h36l4 36l39 -6l9 41l43 -6l10 39l39 -10l16 37 l39 -17l23 39l34 -18l23 35l37 -25l24 33l35 -27l27 29l26 -25l27 23l27 -29l34 23l23 -37l39 20l18 -35l37 17l17 -41l43 12l12 -39l39 10l8 -43l43 4l2 -26l404 88v-496l-185 -41l4 -2l-24 -26l24 -29l-32 -27l22 -34l-37 -23l23 -37l-35 -20l14 -37l-39 -17l13 -43 l-37 -12l6 -39l-41 -8l2 -43l-39 -4v-39h-35l-6 -37l-39 2l-8 -37l-43 6l-10 -40l-39 12l-14 -39l-44 16l-18 -39l-37 21l-22 -35l-37 23l-25 -33l-30 26l-31 -26l-27 24l-26 -24l-25 31l-35 -23l-24 37l-37 -21l-19 35l-39 -16l-18 41l-39 -13l-12 37l-41 -8l-8 43l-43 -4 l-5 41h-40v35l-35 4l4 41l-41 6l8 43l-41 12l12 37l-28 12zM186 -115v-106h27v55q0 25 27 25h8v28h-6q-13 0 -15 -2l-8 -8l-6 -10h-2v18h-25zM236 76v16q0 2 2 7t2 7q3 14 14 25q4 6 22 19q15 6 33 6h6q2 0 8 -1t9 -1q7 0 14 -7q15 -9 21 -18q4 -4 8 -12l2 -11h-33q0 5 -4 9 l-10 10q-6 4 -19 4h-14l-14 -12q-11 -5 -11 -15q-4 -8 -4 -28q0 -9 4 -29q2 -9 13 -14q16 -8 20 -8h4q13 0 19 4q4 0 12 8q8 16 8 20h-37v27h66v-84h-21l-4 20q-6 -8 -14 -14q-2 -2 -19 -8q-3 0 -9 -1t-9 -1q-13 0 -25 6q-14 7 -20 16q-7 6 -16 27q-4 10 -4 33zM236 702h10 l8 5l10 10l8 10l11 10q5 10 8 13l63 86l19 30l20 31q10 12 21 31l16 33q2 4 0 6t-4 2q-8 0 -10 -2l-8 -4l-33 -41q-7 -7 -15 -19l-16 -20l-55 -80l-27 -41l-22 -43l-4 -6v-11zM262 -78v-24h29v24h-29zM262 -115v-106h29v106h-29zM276 889q0 -1 11 -12l18 -7q15 0 23 2 q4 0 4 2l2 5q0 2 -2 2h-4q-4 0 -4 -2q-15 -3 -29 2q-8 4 -10 8q0 2 -1 5t-1 5q0 6 2 12l6 15l16 18q3 3 6.5 5.5t8.5 6t8 5.5q3 1 10.5 6.5t13.5 7.5l25 12q9 0 29 8l28 4q20 5 27 5q2 0 22 -5q12 0 15 -6l10 -12v-16q0 -13 -2 -21l-10 -18q-2 -5 -8 -12.5t-7 -8.5 q-3 -4 -6 -7t-7 -6.5t-7 -6.5q-4 -7 -21 -19l-22 -14l-25 -10l-14 -6q-1 0 -5.5 -1t-6.5 -1h-4q-4 0 -7 -3q-2 0 -2 -2q-4 0 -4 -4q0 -2 2 -2h4q5 0 7 2h4l26 9l27 12l27 10l26 16l23 17l20 18l17 21q11 17 12 20q4 12 4 19q3 10 0 18l-6 14l-15 11q-16 4 -20 4q-8 2 -23 2 q-8 0 -24 -4q-14 0 -57 -13q-31 -8 -54 -22q-22 -11 -26 -14q-20 -15 -23 -19l-18 -18l-9 -21q-3 -10 0 -16zM317 -115v-106h27v61q0 5 4 17q8 8 17 8q12 0 16 -8q2 -2 2 -15v-63h29v71q0 13 -4 21q-6 8 -13 12q-12 4 -20 4q-21 0 -33 -18v16h-25zM395 57q0 21 6 29 q3 13 17 20q11 9 33 9t28 -9q13 -6 19 -22q4 -10 4 -31v-8h-78q0 -6 8 -18q7 -7 19 -7q3 0 7 1.5t5 1.5q8 8 8 10h31l-10 -21l-17 -12q-20 -4 -24 -4q-56 0 -56 61zM428 68h45q-4 12 -8 16q-8 8 -14 8q-23 0 -23 -24zM430 -166q0 -15 8 -31q5 -12 17 -20q16 -4 22 -4 q18 0 29 14v-18q0 -1 -1 -3t-1 -3q0 -4 -8 -9q-2 -2 -15 -2q-10 0 -12 2l-6 9h-27q0 -7 2 -11q0 -4 4 -8q11 -7 19 -10q3 0 9 -1t9 -1q21 0 33 6q10 5 16 14q4 16 4 27v100h-24l-2 -16q-1 3 -12 14q-12 4 -19 4q-16 0 -24 -8q-10 -6 -15 -20q-6 -24 -6 -25zM461 -168 q0 17 6 23q7 10 14 10t17 -10q8 -8 8 -23q0 -13 -7 -21t-18 -8q-4 0 -12 4q-6 6 -6 11q-2 6 -2 14zM498 717q20 0 20 -15v-49q0 -9 10 -22l17 -4q4 -2 18 -2q13 0 25 4q8 4 10 6q8 5 8 18q-3 -9 -10 -16l-12 -8h-15q-12 0 -18 2q-2 0 -10 8q-4 4 -4 14v49q0 11 4 11 q4 4 14 4h6v4h-63v-4zM510 92v21h16v28h31v-28h16v-21h-16v-61q0 -8 2 -8q4 -3 10 -3l2 3h2v-25h-16q-14 0 -20 4q-6 0 -9 8q-2 2 -2 13v69h-16zM510 821q3 -8 10 -12q9 -9 23 -6q14 0 26 6q13 2 33 14t31 23l24 20l15 15q0 2 4 6l2 4l4 6l16 16l15 21q5 3 10.5 10.5 t7.5 9.5l6 -2l4 -6l2 -6q0 -1 -1 -2.5t-2.5 -3.5t-2.5 -4l-16 -17l-14 -20l-13 -19l-4 -18q-2 -2 -2 -8v-6l4 -8h8q11 0 17 2l16 10q2 2 10 7.5t11 10.5q4 2 10 8.5t8 8.5l8 12l8 10l5 4l4 6q4 4 4 5l12 16l21 31q0 -3 1 -8t1 -7q4 -12 4 -14l4 -8q-15 -3 -25 -13l-20 -14 q-1 -1 -6.5 -7.5t-6.5 -10.5q-2 -6 -2 -17q0 -6 11 -10h18q13 0 25 8q15 7 22 17q2 1 17 16l8 18q6 9 6 19v16q0 7 -4 15l-6 16l-7 6q0 4 -4 8l-2 4v11h-8l-4 -4l-12 -9l-4 -12l-2 -2l-4 -6l-33 -45l-4 -6l-6 -11h-3v-2l-4 -2l-4 -8l-6 -8l-14 -18l-23 -21l-12 -6 q-4 -4 -12 -4v2l8 10l6 10l8 11l6 8l9 14l10 14l4 15q2 6 2 14q-2 2 -2 8l-2 4q0 5 -2 7v22l6 10q4 8 -4 13q-3 7 -17 0q-9 -2 -16 -9q-5 -3 -10 -12q-4 -4 -4 -10q0 -8 2 -12l4 -2q0 -1 4 -5l-12 -12l-23 -31l-20 -22q-4 0 -4 -4v-2l-2 -2l-2 -2l-11 -15q-26 -21 -28 -22 q-13 -13 -33 -23l-21 -8q-12 -4 -18 -2q-6 0 -6 4q-2 2 -2 6q0 3 4 11l2 8l10 16q4 -2 12 -2h19q10 3 26 12q4 1 7.5 3t8.5 6t9 6l14 16q1 2 4 5t5 5.5t2 5.5l8 13q0 12 -4 14q-4 8 -8 10h-19q-12 0 -18 -4l-21 -8q-26 -13 -45 -29q-21 -17 -29 -34q-3 -3 -12 -21 q-6 -8 -8 -18v-17zM545 -115v-20h14v-64q0 -10 2 -12q0 -3 10 -8q4 -2 17 -2h16v22h-2l-4 -2l-8 2q-2 2 -2 9v55h16v20h-16v27h-29v-27h-14zM567 870l15 23l18 20l6 9l10 8l11 10l12 4q8 3 14 0v-10l-6 -8q-6 -6 -6 -11l-10 -10q0 -2 -8 -10q-7 -7 -9 -8l-10 -8l-12 -9 q-6 -2 -12 -2q-11 0 -13 2zM580 717h10l4 -2q12 -3 12 -23v15l10 8q2 0 2 2h9v4h-47v-4zM610 -115l2 -8l37 -102q0 -4 -2 -6v-5q-4 -4 -6 -4h-16v-22h14q3 0 7.5 1t6.5 1q5 0 11 6l6 12l8 23l2 2l35 102h-31l-20 -78l-21 78h-33zM639 694q0 -2 4 -10q0 -6 6 -6l13 -6 q2 -2 20 -6l8 -2q10 -5 12 -5q5 0 9 -4l2 -2q6 -3 6 -10l-4 -8q-2 -4 -8 -6h-11q-10 0 -16 2l-16 6l-11 10q-10 10 -10 21h-2v-43h2q0 6 4 6q4 4 8 4q1 0 3 -1t4 -1q1 0 3 -1t3 -1l14 -4q4 -2 14 -2q5 0 17 4q3 0 12 6q1 1 2.5 4t3.5 4v21l-6 6q-2 5 -12 8l-17 6h-10l-2 2 q-2 1 -5.5 1.5t-5.5 1t-3 1.5q-6 0 -8 2q-3 0 -7 4l-2 6v9l4 4q1 0 9 4q1 0 4.5 1t5.5 1q6 0 14 -4q8 0 12 -4q9 -5 11 -8q2 -1 3.5 -4t3 -7t3.5 -6h2v31h-2q-2 -6 -8 -6h-8q-17 10 -31 10q-9 0 -21 -4l-12 -8q-4 -12 -4 -17zM641 92v21h14v8q0 33 35 33h15v-25h-15 q-4 0 -4 -4v-12h19v-21h-19v-94h-31v94h-14zM723 37v76h29v-70q0 -20 20 -20h10l11 10q0 1 2 5.5t2 6.5v68h26v-115h-26v16q-5 -7 -15 -12q-12 -6 -20 -6q-22 0 -29 12q-10 7 -10 29zM731 -115v-145h27v51q2 -2 2 -4q4 0 6 -2l8 -6q4 -2 14 -2q14 0 25 8q8 5 12 22 q6 12 6 13q0 2 1.5 6t1.5 6q0 12 -7 23q-3 13 -10 20q-4 4 -12 8q-6 4 -17 4q-6 0 -8 -2l-8 -6l-8 -8q-6 -2 -8 -2v16h-25zM741 627h103v39l-6 -13l-11 -14q-6 -6 -8 -6l-10 -2q-4 -2 -12 -2h-15v41h2q10 0 19 -6l4 -7q0 -1 1 -3t1 -3v-8h2v59h-2v-8l-4 -10q-10 -10 -19 -10 h-4v43h17q16 0 22 -2l8 -6l5 -11l6 -14h4v37h-103v-4h4q9 0 11 -4q6 0 6 -11v-57q0 -16 -17 -16h-4v-2zM756 -170q0 15 7 25t17 10q9 0 19 -10q4 -12 4 -23q0 -10 -4 -22q-6 -9 -19 -9q-10 0 -16 9q-8 5 -8 20zM793 868v9l4 10l6 8q8 10 18 18l23 11q0 -2 1 -6t1 -5 q-2 -4 -2 -8v-12l-4 -8l-9 -11l-8 -6q-1 0 -3.5 -1t-4.5 -1q-2 -2 -8 -2q-4 -4 -8 0q-2 0 -6 4zM844 -166q0 -57 49 -57q10 0 22 4q4 1 17 10q4 4 8 21h-27l-6 -9q-8 -4 -14 -4q-10 0 -16 6q-7 7 -7 19h72v6q0 11 -4 27q-6 15 -16 22q-8 8 -31 8q-16 0 -27 -8 q-10 -5 -16 -20q-4 -8 -4 -25zM852 -2v156h29v-156h-29zM870 -158q3 23 21 23q4 0 16 -6q6 -6 6 -17h-43zM903 -2v156h29v-156h-29zM905 674q0 -15 4 -21q1 -1 5 -6.5t8 -7.5q6 -6 18 -10q16 -4 23 -4q17 0 26 6q8 3 23 18q6 9 6 25q0 10 -4 16q-4 13 -10 17q-4 6 -19 10 q-12 6 -22 6q-21 0 -29 -8q-11 -2 -21 -17q-8 -11 -8 -24zM915 901q0 -8 5 -8l10 -8h10h12q6 1 15 4l12 4l27 14l22 21l19 16l14 21l10 16l6 18q4 11 0 15q0 7 -6 10q0 5 -10 8q-1 0 -6 1t-8 1q-7 0 -19 -4l-12 -4l-12 -4l-25 -16l-23 -19l-16 -18l-12 -19q-11 -19 -13 -26 v-23zM928 674q0 2 1 7.5t1 8.5l6 12l6 11q1 1 4.5 2t5.5 2q4 4 13 4q2 -2 6 -2l6 -4l10 -8q0 -2 2.5 -7.5t3.5 -9.5l1 -6q1 -6 1 -10q0 -13 -4 -25l-12 -18q-4 -2 -16 -2q-11 0 -13 2q-9 0 -12 10l-6 12q-4 12 -4 21zM940 895v12q4 15 10 21l15 22l10 13l24 30l19 19l8 8 l10 4q4 2 11 2q2 0 4 -2t2 -8q0 -2 -4 -10l-5 -9l-6 -10l-6 -10l-20 -31l-17 -18l-20 -21q0 -3 -10 -6q-2 -4 -13 -8h-8q-4 0 -4 2zM948 -115v-20h17v-86h26v86h19v20h-19v4l2 9q0 2 2 2h13v22h-13q-30 0 -30 -28v-9h-17zM1010 92v21h14v8q0 33 35 33h12v-25h-12q-2 0 -4 -4 v-12h20v-21h-20v-94h-31v94h-14zM1018 -193q0 -10 4 -18l14 -10q6 -2 15 -2q10 0 14 2q1 1 4.5 2t5.5 2l8 8v-6q0 -1 1 -2t1 -2v-2h31v4q-4 4 -4 6q-2 2 -2 12v56q0 10 -2 14q-3 6 -12 12q-16 4 -29 4q-10 0 -14 -2q-7 0 -11 -2q-8 -3 -14 -12q-6 -6 -6 -21h27q0 8 6 11 q3 6 12 6q14 0 14 -17q0 -6 -8 -6l-24 -4q-11 0 -21 -10q-10 -5 -10 -23zM1032 627h49v2q-6 0 -10 2h-8l-4 10q-2 2 -2 12v56l80 -82h4v65q0 9 4 21q4 4 16 4v4h-47v-4h8q0 -2 4 -2q7 -3 7 -8q4 -4 4 -15v-39l-66 68h-37v-4q8 0 10 -2q1 0 3.5 -1t3.5 -1q2 -4 2 -11v-53 q0 -6 -2 -10l-7 -8q-2 0 -6.5 -1t-5.5 -1v-2zM1047 -190q0 6 4 10t8 4l14 2l8 4v-12q0 -9 -2 -13l-10 -6h-4q-2 -4 -6 -4q-2 0 -8 6q-4 4 -4 9zM1051 905q1 0 3 -1t3 -1q4 0 8 2l8 4q0 2 4 6q1 0 2 1.5t2 1.5l4 6q0 4 5 4l16 22l20 21l17 20l22 21l29 28l10 9l10 8l13 4 q2 0 2 -2h-2l-4 -4q-2 -5 -9 -8l-4 -7l-12 -14q-3 -2 -7 -7.5t-5 -6.5l-15 -23l-14 -20l-6 -19q-3 -10 0 -16t8 -6h19q3 1 10 5.5t12 6.5l19 14l22 23q-2 -2 -2 -6q0 -7 4 -15q2 -4 10 -8q6 -2 21 2q10 2 24 13l21 14l14 14l13 13v-5q0 -1 -1.5 -3t-1.5 -3v-6q-3 -7 0 -10 q0 -1 1.5 -3t1.5 -3q0 -6 6 -6h16l6 4l8 6l13 6l32 27l17 16l-4 -12q-4 -6 -4 -19v-6l4 -2q0 -2 6 -2q4 0 8 4q9 0 12 6l11 6l12 13q2 0 10 8q3 2 19 18l18 21v4q0 2 -2 2q-4 0 -8 -4l-2 -4l-13 -15l-10 -12q-9 -6 -12 -12l-14 -12l-9 -7l-8 -2q-2 0 -2 -2q-2 0 -4 2h2l8 15 q4 8 8 12l7 12q3 2 8 11l63 92q12 11 13 16l16 16l37 43q13 13 33 41l10 19v8q-2 2 -8 2q-3 0 -11 -4l-12 -6q-4 0 -10 -6l-8 -6l-23 -19l-16 -18q-7 -7 -19 -23q-1 -2 -14 -20l-27 -41l-26 -45l-19 -33l-8 -16h-2l-14 -15q-1 -2 -19 -20l-18 -17l-10 -8l-7 -4q-2 -2 -4 -2 l-4 -4h-10l12 20l2 4q12 20 19 27l16 29l15 20l8 13l6 10l2 2q0 2 2 2q0 1 1 2t1 2q6 3 4 8q0 2 -6 2l-10 -4l-10 -6l-19 -12l-14 -13q0 7 -2 11q0 3 -6 6q-12 3 -21 0q-16 -4 -22 -8l-25 -13l-18 -16q-26 -19 -37 -39q-14 -17 -21 -37h-4l-16 -18q-22 -17 -23 -17 q-2 -5 -12 -8q-4 -4 -10 -4h-2q-2 2 0 4l6 8l6 11l12 14l21 27q15 19 18 28l8 17q4 11 2 16q0 6 -2 6q0 4 -6 4t-8 -2l-12 -4l-13 -8l-10 -8l-10 -9q-8 -8 -12 -8l-21 -22q-16 -16 -18 -19l-11 -12l-10 -10l2 4l25 35l26 37q0 1 1.5 2t1.5 2q2 2 2 4q2 2 2 6l-7 6q-1 0 -3 1 t-3 1t-4.5 -1t-5.5 -1l-10 -6l-4 -4q-2 -1 -3.5 -4t-2.5 -4l-5 -7l-77 -133zM1083 55q0 7 4 23q2 9 11 18q12 12 20 15q6 4 25 4q16 0 24 -4q1 -1 8 -4t9 -7q4 -4 12 -20q4 -12 4 -25q0 -17 -8 -30q-2 -9 -18 -21q-11 -8 -31 -8q-22 0 -35 8q-2 1 -18 23q-7 14 -7 28z M1114 55q0 -10 6 -22q4 -10 23 -10q16 0 20 10q6 6 6 22t-6 25q-7 10 -20 10q-16 0 -23 -10q-6 -18 -6 -25zM1128 -170q0 -10 5 -25q4 -13 10 -16q12 -12 35 -12q12 0 24 6q4 1 15 12q6 12 6 23h-27q0 -10 -6 -13q-4 -4 -12 -4q-9 0 -13 4l-8 11q0 2 -1 8t-1 10q0 16 8 21 q7 10 17 10q6 0 12 -6q4 -8 4 -13h31q0 3 -10 23q-7 11 -17 14q-12 4 -22 4q-26 0 -39 -16q-11 -26 -11 -41zM1167 627h107v41h-2q-2 -2 -4 -8l-2 -5q-4 -4 -4 -8l-5 -6q-8 -8 -12 -10q-1 0 -6 -1t-8 -1h-25v73q0 11 6 11q2 4 13 4h6v4h-64v-4h4q17 0 17 -15v-57 q0 -16 -17 -16h-4v-2zM1221 -2v115h28v-17q13 19 35 19q15 0 21 -4l14 -13q4 -12 4 -20v-80h-29v70q0 8 -4 16q-6 6 -16 6q-14 0 -19 -8q-4 -4 -4 -19v-65h-30zM1237 -166q0 -57 49 -57q11 0 23 4q6 2 14 10q6 4 10 21h-26l-7 -9q-8 -4 -14 -4q-10 0 -16 6t-6 19h71v6 q0 15 -6 27q-3 17 -14 22q-8 8 -29 8q-18 0 -29 -8q-10 -5 -16 -20q-4 -16 -4 -25zM1264 -158q3 23 20 23q4 0 16 -6q7 -7 7 -17h-43zM1266 963q0 2 2 2q0 2 2 4l6 10l8 10l6 12l8 11l19 24l26 33l7 8l16 13q2 2 8 2q4 2 8 2l7 -4q0 -1 1 -3.5t1 -3.5q0 -4 -2 -8q0 -1 -5 -6 l-16 -22l-12 -23l-17 -14l-16 -19l-10 -8l-13 -10l-10 -8q-2 0 -5 -2t-5 -2q-8 -4 -10 -3h-2q-2 2 -2 5zM1268 717h2q10 0 14 -2q7 -7 8 -10l29 -39v-21q0 -10 -2 -12q-8 -4 -14 -4h-7v-2h68v2h-8q-8 0 -12 4q-5 5 -5 12v23l25 34l4 7q8 4 10 4q0 2 4 2l9 2v4h-47v-4h6 q8 0 10 -2q4 -2 4 -6q0 -5 -6 -11l-19 -26l-24 30q-4 8 -4 9v2q0 2 2 2q0 2 6 2h8v4h-61v-4zM1337 92v21h19v28h26v-28h21v-21h-21v-61l2 -8q2 0 5.5 -1.5t5.5 -1.5l4 3h4v-25h-21q-14 0 -16 4q-7 0 -10 8v82h-19zM1352 -190v-31h30v31h-30zM1401 -170q0 -13 4 -25 q4 -13 10 -16q15 -12 35 -12q16 0 25 6q6 2 16 12q5 9 8 23h-31q0 -10 -6 -13q-2 -4 -12 -4q-8 0 -10 4q-3 2 -8 11q0 2 -1 8t-1 10q0 15 6 21q7 10 16 10q6 0 12 -6l6 -13h29q0 12 -8 23q-12 12 -18 14q-12 4 -23 4q-26 0 -39 -16q-10 -23 -10 -41zM1473 31q0 16 8 24 q20 10 24 11l27 4q10 0 10 8q0 14 -18 14q-9 0 -13 -4q-5 -3 -8 -14h-26q0 15 6 24q5 8 16 13q4 4 12 4h13q24 0 32 -4q12 -12 13 -15q2 -4 2 -14v-72q0 -6 8 -6v-6h-33l-2 4v2q0 2 -1 4.5t-1 3.5l-8 -8l-10 -6q-4 0 -9 -1t-8 -1t-8 1t-8 1q-1 1 -6.5 5t-7.5 7q-4 8 -4 21z M1501 31q0 -8 4 -8q5 -5 11 -5h8l4 2q9 4 10 7q4 8 4 14v14q-6 -6 -12 -6l-14 -4q-7 0 -11 -4q-4 -2 -4 -10zM1511 -168q0 -7 5 -27q6 -14 18 -20q11 -8 31 -8q16 0 28 6q14 7 17 20q6 12 6 29t-2 23q-2 2 -5 9t-5 9q-13 9 -17 10q-12 4 -22 4q-13 0 -25 -4q-10 -3 -16 -12 q-8 -7 -11 -18q-2 -8 -2 -21zM1538 -168q0 14 6 23q3 10 21 10q15 0 18 -10q6 -9 6 -23q0 -13 -6 -22q-3 -9 -18 -9q-18 0 -21 9q-6 9 -6 22zM1567 1167l28 37l13 23l26 35q0 2 2 2q0 4 4 4l2 2q0 -8 -2 -10l-8 -11l-6 -10l-6 -8l-16 -21l-19 -20l-10 -12q-5 -9 -8 -11z M1585 92v21h14v28h33v-28h19v-21h-19v-69q1 0 4.5 -1.5t5.5 -1.5l5 3h4v-25h-19q-14 0 -20 4q-5 0 -8 8q0 1 -2.5 6t-2.5 7v69h-14zM1636 -115v-106h27v63q0 23 16 23q11 0 15 -4t4 -8v-74h26v63q0 23 19 23q16 0 16 -23v-63h27v71q0 11 -4 19q-2 6 -10 14q-12 4 -23 4 q-8 0 -16 -4t-11 -12q-6 9 -12 12q-8 4 -16 4q-22 0 -31 -18v16h-27z" />
<glyph unicode=":" horiz-adv-x="272" d="M39 94l4 12q5 21 17.5 36t28.5 20.5t34 5.5t34 -7.5t28.5 -19.5t17.5 -31t0 -40l-4 -13q-6 -29 -28.5 -46t-51.5 -17q-38 0 -63 31t-17 69zM39 819l4 12q5 21 17.5 36t28.5 20.5t34 5.5t34 -7.5t28.5 -19.5t17.5 -31t0 -40l-4 -13q-6 -29 -28.5 -46t-51.5 -17 q-38 0 -63 31t-17 69z" />
<glyph unicode=";" horiz-adv-x="280" d="M37 121q2 31 17.5 50.5t37 22.5t42.5 -3.5t35.5 -27.5t14.5 -50q6 -59 -22.5 -188t-52.5 -167q-21 -37 -43.5 -29.5t-16.5 42.5q11 63 -1 187.5t-11 162.5zM39 819l4 12q5 21 17.5 36t28.5 20.5t34 5.5t34 -7.5t28.5 -19.5t17.5 -31t0 -40l-4 -13q-6 -29 -28.5 -46 t-51.5 -17q-38 0 -63 31t-17 69z" />
<glyph unicode="&#x3c;" horiz-adv-x="518" d="M44.5 482q0.5 16 12.5 26q16 16 133.5 121t149.5 147q26 33 56 27t37 -36t-13 -65q-22 -35 -127.5 -111.5t-177.5 -117.5q77 -40 180 -107t125 -100q23 -32 13 -64.5t-37 -35.5t-56 27q-32 42 -146 141.5t-133 118.5l-6 6q-11 7 -10.5 23z" />
<glyph unicode="=" horiz-adv-x="780" d="M40.5 347.5q-7.5 19.5 4 34.5t33.5 15q98 -2 240 2.5t214 14.5q50 6 63 -19t-7 -54.5t-51 -35.5q-62 -17 -241 -10.5t-222 24.5q-26 9 -33.5 28.5zM40.5 532.5q-7.5 19.5 4 34.5t33.5 15q296 -5 454 16q50 6 63 -19t-7 -54.5t-51 -35.5q-62 -17 -241 -10t-222 25 q-26 9 -33.5 28.5z" />
<glyph unicode="&#x3e;" horiz-adv-x="518" d="M69 201q-7 30 13 65q21 33 122.5 98t180.5 107q-71 42 -176 119.5t-127 111.5q-23 32 -13 65t37 36t56 -27q32 -42 149.5 -147.5t132.5 -120.5q10 -10 10.5 -26t-8.5 -23l-6 -6q-18 -18 -132 -118t-146 -142q-26 -33 -56 -27.5t-37 35.5z" />
<glyph unicode="?" horiz-adv-x="661" d="M18 1071q34 112 127.5 164.5t201 35.5t185.5 -93q63 -59 84.5 -145.5t-4.5 -168.5q-23 -77 -73 -137t-103 -97t-103.5 -71.5t-83 -78t-32.5 -97.5q0 -31 -15.5 -44.5t-31.5 -1t-16 43.5q0 59 19.5 115t50.5 99t69.5 86.5t77 78.5t73.5 74t58 72.5t30.5 75t-8.5 81.5 q-18 49 -51 82.5t-71.5 47t-80 14.5t-77.5 -15.5t-63.5 -43t-39 -68t-2.5 -89.5q8 -33 37 -86.5t37 -75.5q12 -28 -7 -53t-48 -20q-42 7 -74.5 40.5t-52.5 77.5q-40 98 -13 197zM102 94l4 12q5 21 17.5 36t28.5 20.5t34 5.5t34 -7.5t28.5 -19.5t17.5 -31t0 -40l-4 -13 q-6 -29 -28.5 -46t-51.5 -17q-38 0 -63 31t-17 69z" />
<glyph unicode="@" horiz-adv-x="1247" d="M37 692q58 236 221 357q88 65 214 88t245 -2q236 -47 358 -281q90 -170 90 -393q0 -52 -7 -115t-25 -134.5t-44.5 -126t-70.5 -84t-98 -13.5q-55 13 -84 53q-59 70 -82 201l-6 34l-5 -10q-86 -289 -251 -280q-56 4 -103.5 33.5t-79.5 75t-52.5 97t-29.5 105.5 q-20 119 6 242.5t93 222.5q45 69 109.5 111.5t139.5 39.5q86 -3 158 -59l27 -23q8 64 45 78q40 15 76 -10q23 -16 25 -46.5t-3 -55.5q-4 -100 -8 -146q-2 -28 -6.5 -96.5t-7 -118t-2.5 -96.5q0 -305 69 -305q26 0 48.5 79t34 176.5t11.5 170.5q0 208 -71 362 q-94 214 -283 256q-95 24 -194 3t-168 -81q-130 -112 -176 -327q-57 -241 12 -477q87 -293 307 -351q140 -33 260 11q51 19 62 -10q9 -22 -10 -39q-5 -5 -11 -7q-62 -25 -157.5 -26.5t-172.5 16.5q-81 18 -148.5 58.5t-113 95t-76 110t-51.5 117.5q-86 261 -14 520zM362 301 q8 -147 60 -207q27 -32 66 -40.5t77 12.5q69 46 121 188q29 87 45 182q-3 77 4 176q6 70 15 144q-28 43 -75 69t-97 25q-83 -6 -136 -90q-49 -83 -67 -219q-19 -123 -13 -240z" />
<glyph unicode="A" horiz-adv-x="821" d="M0 126q0 28 0.5 40.5t3 50t2.5 41.5q6 117 21 231q24 182 59 314q32 112 72 203q55 136 121 202q43 43 96 45h5q50 0 93 -39q60 -60 113 -198q72 -194 100 -484q13 -137 16 -249q5 -95 5 -157q0 -42 -2 -69q-1 -7 -11 -67q-9 -35 -47 -35t-47 35q-8 36 -12 75t-6 92.5 t-4 75.5q0 13 -5 80q-23 -4 -65 -4q-57 0 -189 13l-153 20l-10 -131q-6 -59 -6 -119q-4 -75 -19 -100q-18 -34 -52 -34q-5 0 -11 1q-48 8 -60 76q-4 21 -6 42q-2 17 -2 38v11zM172 401q126 9 250 9h145l-8 77q-23 321 -61 498q-9 44 -17 74t-29.5 69.5t-50.5 53.5 q-14 4 -25 6h-3q-9 0 -19 -8q-12 -8 -20.5 -16t-17 -23t-14.5 -26.5t-12 -27t-9.5 -25t-6.5 -20.5q-12 -37 -22.5 -84t-15.5 -75t-14.5 -91t-12.5 -81q-24 -175 -37 -310z" />
<glyph unicode="B" horiz-adv-x="1019" d="M2 312q1 7 3.5 13t6.5 11q19 26 50.5 26t50.5 -26q10 -12 14 -29.5t5.5 -40t4.5 -33.5q18 -65 66 -116q44 -48 108.5 -76t132.5 -33q13 -1 25 -1q63 1 121 21q70 24 115 78q75 83 75 222v14q-1 119 -85 198.5t-201 88.5q-32 -4 -52 -4q-5 -65 -16 -170l-18 -181 q-5 -40 -5 -49q-1 -6 -2 -17.5t-1.5 -21t-2.5 -16.5q-7 -20 -36 -20t-37 20q-1 2 -7 76l-10 133l-6 145q0 26 -1 77t-1 77q0 28 -1 84t-1 84q0 17 1 49t1 47q0 28 23 45q24 18 50 18q13 0 27 -4q31 -8 39 -61q11 -76 11 -164q0 -14 -5 -96q5 0 15 1t14 1h33q60 10 106 35 q68 33 103 93.5t35 137.5q-1 65 -31.5 119t-80.5 87.5t-110 51.5q-48 14 -98 14h-25q-64 -4 -118 -30q-75 -37 -121 -108.5t-49 -155.5q0 -6 -1 -13q0 -79 36 -135q16 -27 47 -51q22 -18 28 -35q12 -28 -2.5 -56t-44.5 -32h-6q-23 0 -55 27q-45 39 -72 92q-36 72 -36 153 q0 35 7 72q22 111 99 197t184 117q59 15 127 15q31 0 64 -3q130 -7 227 -51q88 -43 135 -127q39 -70 39 -149q0 -17 -2 -34q-10 -86 -64.5 -149.5t-138.5 -95.5q-7 -5 -20 -9l34 -12q99 -36 160.5 -117.5t61.5 -183.5q-1 -99 -59.5 -182.5t-149.5 -140.5q-120 -75 -260 -75 q-74 0 -154 21q-147 39 -223 135q-38 46 -60 111q-1 2 -4 11.5t-4 13.5l-3.5 14t-3.5 16t-2 14q-1 6 -1 10q0 6 2 18z" />
<glyph unicode="C" horiz-adv-x="868" d="M23 399q-23 105 -23 206q0 143 45 280q71 219 213 313q56 38 122 50q28 5 57 5q37 1 75 -9q66 -16 113 -64q65 -62 87 -158q13 -56 13 -114q0 -40 -6 -81q-8 -46 -25.5 -92.5t-44 -91.5t-66.5 -75.5t-87 -35.5q-17 -2 -30.5 9t-14.5 28q-3 15 18 58q13 27 45 73t45 70 q30 56 47 115q13 47 13 98q-1 14 -1 28q-4 67 -40 115q-23 33 -62 52q-38 16 -78 16q-16 0 -34 -3q-58 -9 -101 -44q-75 -62 -115 -184q-45 -142 -45 -332q0 -75 7 -158q5 -63 13.5 -113.5t25.5 -110.5t48.5 -108.5t75.5 -79.5q36 -27 80 -37q21 -5 42 -4q22 0 44 5 q96 25 148 143q29 70 35 158q2 25 2 75q0 5 -0.5 15.5t-0.5 17t1 15.5t4 16q9 23 34 25.5t39 -19.5q6 -9 9 -23q2 -16 2 -24v-11v-17v-23q-3 -55 -19 -119q-29 -123 -106 -203q-73 -79 -179 -89q-14 -1 -29 -1q-89 0 -165 53q-168 114 -231 385z" />
<glyph unicode="D" horiz-adv-x="1030" d="M12 340q15 28 41.5 29.5t49 -15.5t34.5 -41q6 -14 14.5 -42.5t14.5 -41.5q22 -57 57 -104q69 -90 183 -107q22 -3 43 -3q89 0 161 59q42 34 72 83t47.5 109t26.5 108.5t16 112.5q8 87 12 143q2 35 3 79q0 27 -1 55q-2 78 -16 141q-22 102 -78.5 181t-146.5 114 q-54 21 -111 21q-32 -1 -65 -7q-92 -18 -154 -84q-61 -67 -76 -155q-6 -31 -5 -60q0 -53 18 -102q14 -37 45 -72q5 -5 16 -13.5t19 -17t12 -18.5q12 -28 -3 -56t-46 -32h-5q-30 0 -71 41q-39 42 -60 92q-26 61 -26 133q0 45 10 93q27 108 102 190t179 109q50 13 102 13 t104 -13q104 -26 187 -93q86 -71 137.5 -176.5t65.5 -224.5q8 -62 9 -123q0 -147 -48 -293q-78 -241 -244 -344q-96 -56 -209 -56h-4q-115 1 -215 54q-98 54 -154 144q-54 84 -54 142q0 27 11 48zM304 950v22.5v15.5q1 12 6.5 29t17.5 27q24 19 50 19q15 0 30 -6 q26 -11 34 -49q8 -44 11 -105q3 -37 3 -83q0 -72 -7 -167q-2 -35 -29 -377q-4 -31 -8 -81q0 -1 -1 -27t-4 -41.5t-10 -22.5q-9 -10 -26 -10h-9q-24 4 -30 23q-2 7 -2.5 23t-1.5 20l-9 131q-9 146 -12 299q0 105 -2 158v172q0 4 -1 30z" />
<glyph unicode="E" horiz-adv-x="815" d="M0 301q0 107 61.5 196t161.5 126q-18 8 -41 24q-71 56 -110 141q-28 62 -28 133q0 35 6 71q20 110 100 177q67 57 170 77q50 10 96 10q49 0 94 -11q98 -23 161 -104.5t62 -184.5q-3 -103 -69 -178q-34 -38 -82 -58q-26 -10 -51 -11q-21 0 -42 8q-24 8 -25.5 33t13.5 43 t46.5 45.5t43.5 40.5q45 50 49 120q0 7 1 14q0 61 -35 111q-52 68 -150 68q-25 0 -53 -4q-64 -9 -112 -47.5t-66 -98.5q-16 -49 -15 -103q0 -75 29 -159q21 -65 66 -102q25 -21 51 -27q4 -1 17 -1t20 -3q12 -1 19 -12t5 -23q-3 -12 -13 -19t-22 -5q-12 0 -16 2 q-68 0 -125 -68q-48 -58 -67 -168q-8 -34 -8 -71q0 -13 1 -26q4 -50 18.5 -92.5t48.5 -77.5t83 -52q43 -16 88 -16q33 0 69 9q82 21 134 85q51 68 65 172q8 41 8 94q0 7 -0.5 21t-0.5 22.5t1.5 21t4.5 21.5q8 25 33.5 27t39.5 -21q5 -10 7 -24q4 -13 4 -21v-11v-17 q0 -20 -1 -23q-3 -56 -16 -117q-29 -117 -104 -195q-71 -71 -173 -94q-47 -11 -92 -11q-54 0 -106 15q-115 28 -184.5 118.5t-69.5 209.5z" />
<glyph unicode="F" horiz-adv-x="825" d="M1 1196.5q0 6.5 3 15.5q5 10 20 16t28.5 7t35 2t25.5 0q163 12 391 16q51 1 94 1q85 0 135 -5q39 -2 71 -25q17 -12 16 -26q0 -13 -15 -29q-7 -7 -15.5 -12.5t-16 -10t-19.5 -7.5t-19.5 -5.5t-22 -4t-20.5 -2t-22 -1t-20 -0.5h-20h-18h-8q-57 0 -239 13l-267 26 q-4 1 -14.5 2t-19.5 2t-21 3t-19.5 5t-15 8t-7.5 11.5zM171 835.5q0 38.5 1 73.5v88q0 39 4 50q12 28 41 39q14 5 28 5q15 0 29 -6q29 -15 37 -69q10 -107 11 -131v-43q0 -80 -5 -191l-4 -71q54 4 158 8q39 2 117 2h8q30 0 66 -13q29 -11 29 -30q0 -8 -5 -17 q-12 -22 -40 -33t-55 -10.5t-52 0.5q-48 2 -162 19l-68 12l-6 -117q-4 -51 -29 -338q0 -3 -0.5 -10.5t-0.5 -11.5t-1 -11.5t-2 -12t-3 -10.5t-4.5 -9.5t-6.5 -7t-8.5 -5t-11 -1.5t-13.5 2q-10 3 -16.5 10t-9 18t-3 20t-1 23t-0.5 19q-1 20 -6.5 114t-6.5 146q-4 114 -8 338 q0 27 -0.5 75t-0.5 86.5z" />
<glyph unicode="G" horiz-adv-x="837" d="M4 473q-3 42 -3 82q0 211 83 389q90 192 223 266q75 42 161.5 42t156.5 -46q73 -46 113 -128q32 -66 32 -135q0 -16 -2 -32q-4 -40 -22.5 -83.5t-47.5 -80t-71 -55.5q-27 -12 -55 -12q-16 0 -31 4q-26 6 -32 24t6 40t24.5 38t25.5 29q51 51 64 76q24 49 24 108 q-2 58 -31.5 108t-80.5 73q-36 13 -73 13q-15 0 -31 -2q-53 -8 -97 -40q-45 -33 -78 -81.5t-52.5 -111t-30 -111.5t-19.5 -116q-20 -135 -20 -252q0 -122 22 -225q26 -124 88 -186q42 -39 96 -46q9 -1 18 -1q43 0 82 26q86 60 125 184q-2 59 -2 179q0 6 -2 36t-1.5 44 t2.5 38t10.5 40.5t21.5 29.5q17 17 40 17t40 -17q9 -9 15 -21t9.5 -20.5t5 -25.5t1.5 -23v-27v-24q0 -60 -4 -178q-7 -214 -29 -361q-1 -18 -17 -28q-11 -7 -22 -7q-6 0 -12 2q-5 1 -8.5 3.5t-6.5 5t-5.5 6.5t-4 6.5t-3 8t-2 8t-1.5 9t-1 8.5t-0.5 9t-0.5 8q-12 108 -16 168 q-18 -32 -56 -80q-74 -84 -166 -84h-7q-96 0 -175 76q-147 147 -170 436z" />
<glyph unicode="H" horiz-adv-x="780" d="M2 827v242v86q0 35 6 51q12 29 40 41q12 5 24 5q16 0 32 -9q11 -6 19 -18.5t12 -24t6.5 -31.5t3.5 -30t1.5 -31t0.5 -25q5 -74 5 -147q0 -49 -2 -98q-1 -49 -11 -256q176 8 264 8h109q0 157 -2 237q0 27 -0.5 76.5t-0.5 89.5t1 76v86q0 35 6 51q12 29 40 41q12 5 24 5 q16 0 32 -9q11 -6 19 -18.5t12 -24t6.5 -31.5t3.5 -30t1.5 -31t0.5 -25q5 -65 5 -136q0 -53 -3 -109q-3 -156 -12 -308l-24 -360l-7 -74q0 -1 -1 -34.5t-5 -49.5q-4 -18 -22 -24q-8 -3 -15 -3q-10 0 -18 5q-9 5 -13.5 15.5t-4.5 15.5v22l-7 92q-11 160 -14 354h-25 q-56 0 -188 13l-164 20l-24 -352l-7 -74q0 -1 -1 -34.5t-5 -49.5q-4 -18 -22 -24q-8 -3 -15 -3q-10 0 -18 5q-9 5 -13.5 15.5t-4.5 15.5v22l-7 92q-11 190 -14 430z" />
<glyph unicode="I" horiz-adv-x="274" d="M2 827v242v86q0 35 6 51q12 29 40 41q12 5 24 5q16 0 32 -9q11 -6 19 -18.5t12 -24t6.5 -31.5t3.5 -30t1.5 -31t0.5 -25q5 -74 5 -147q0 -49 -2 -98q-3 -131 -13 -308l-24 -360l-7 -74q0 -1 -1 -34.5t-5 -49.5q-4 -18 -22 -24q-8 -3 -15 -3q-10 0 -18 5q-9 5 -13.5 15.5 t-4.5 15.5v22l-7 92q-11 190 -14 430z" />
<glyph unicode="J" horiz-adv-x="733" d="M10 367q8 38 28 77.5t49 74t69 51.5q25 9 50 9q17 0 34 -4q30 -7 30 -31q0 -32 -51 -91q-5 -6 -6 -7q-83 -90 -96 -188q-2 -16 -2 -33q0 -39 11 -76q14 -53 52 -86q39 -36 96 -43q11 -1 23 -1q43 0 78 20q78 44 86 197q1 26 1 61q0 71 -5 176q-2 47 -9.5 141.5 t-9.5 141.5q-2 54 -2 106q0 121 10 234q0 5 1.5 27.5t3 33t5 28t10.5 30t17 22.5q18 18 42 18q7 0 15 -2q35 -7 48 -39q4 -11 5.5 -25.5t1.5 -22.5t-1.5 -29t-1.5 -25q-4 -82 -4 -125q0 -119 6 -239q8 -154 10 -226v-46q0 -43 -1 -76q-2 -51 -11 -117t-31 -122t-57 -102 q-71 -91 -194 -98q-9 -1 -19 -1q-110 0 -187 73q-65 62 -90 153q-14 50 -14 99q0 41 10 82z" />
<glyph unicode="K" horiz-adv-x="763" d="M2 827q-2 61 -2 121.5t2 120.5v86q0 35 6 51q10 29 38 41q12 5 25 5q16 0 33 -9q11 -6 19 -18.5t12 -24t6.5 -31.5t3.5 -30t1.5 -31t0.5 -25q5 -74 5 -147q0 -49 -2 -98l-7 -174q90 11 162 81.5t113 165.5q39 95 59 219q1 6 2.5 22t3 25t5.5 22t10 22q16 19 38 25 q9 2 17 2q13 0 27 -5t23.5 -13.5t14.5 -17t6.5 -22.5t1.5 -23t-4 -26t-6 -24t-7.5 -25t-6.5 -21q-38 -124 -90 -211q-86 -145 -209 -211l29 -12q48 -27 87.5 -69.5t69.5 -98.5t48.5 -101t40.5 -108q5 -14 16.5 -49.5t19 -57t22.5 -48.5t32 -44q4 -4 27.5 -17t27.5 -28 q1 -6 1 -11q0 -18 -20 -24q-17 -5 -36 -5q-9 0 -19 1q-89 14 -162 142q-39 70 -88 219q-2 7 -15 48.5t-20 58t-21.5 47.5t-31.5 51t-39 35q-34 21 -75 24q-4 0 -15.5 0.5t-22 0.5t-18.5 -1q-4 -50 -4 -72l-24 -360l-7 -74q0 -1 -1 -34.5t-5 -49.5q-4 -18 -22 -24.5t-33 2.5 q-9 5 -13.5 15.5t-4.5 15.5v22l-7 92q-11 190 -14 430z" />
<glyph unicode="L" horiz-adv-x="821" d="M2 22q0 9 6 15q9 9 41 15l60 5q15 0 43 4q-2 25 -2 74q-10 178 -17 430q0 44 -1 131t-1 131q-2 82 -2 242q0 15 1 43t1 43q0 40 4 51q13 29 41 41q12 5 23 5q16 0 32 -9t26 -32t12.5 -39t4.5 -50.5t2 -38.5q4 -82 4 -164q0 -41 -1 -81q-6 -159 -15 -308q-3 -54 -7 -114 t-9 -132t-8 -114q-4 -50 -4 -74q-3 -12 -3 -24q150 18 299 24q19 1 37 1q56 0 109 -7q74 -8 100 -37q10 -11 10 -26q0 -5 -1 -11q-5 -22 -25 -28q-32 -14 -72 -17q-20 0 -62.5 -1t-64.5 -1q-107 0 -160 2q-39 1 -256 11q-10 1 -40.5 1.5t-53 4t-39.5 12.5q-12 5 -12 22z" />
<glyph unicode="M" horiz-adv-x="1069" d="M0 33q0 64 4 182q2 125 14 375q2 46 9 171t10 213q2 44 1.5 87t-1.5 84v10q0 41 14 68q20 29 48 29q7 0 15 -2q38 -10 54 -46q7 -16 10.5 -34.5t5.5 -42.5t4 -35l15 -105q41 -247 65 -364q11 -60 72 -326q2 -8 8.5 -38t9.5 -41.5t9.5 -37t12 -40.5t13.5 -35t17 -37 q0 -1 5.5 -9t8.5 -12t8 -10t9.5 -9t9.5 -3h2q24 0 57 53q52 76 111 246q40 119 79 278q33 131 58 272q33 189 33 272v9q0 12 2 16q5 32 8 39q13 27 39 37q11 4 22 4q16 0 31 -8q31 -14 39 -67q9 -64 12 -129q5 -69 5 -155q0 -43 -1 -91q-7 -277 -20 -498l-19 -270 q-1 -14 -3 -20t-7 -14.5t-16 -12.5q-22 -7 -34.5 6.5t-14.5 36.5l-7 84q-12 210 -24 622l-12 -53q-69 -285 -144 -473q-60 -153 -111 -209q-42 -46 -84 -46q-27 0 -55 19q-9 7 -18 14.5t-17.5 18t-15 18t-15 21t-13 20.5t-13 22.5t-11.5 20.5t-12 22.5t-10 19.5 q-54 105 -82 206q-38 120 -81 318q-9 -123 -15 -246q-16 -265 -18 -401q-4 -41 -36 -41h-7q-33 2 -33 47z" />
<glyph unicode="N" horiz-adv-x="788" d="M2 20v46q-2 23 -2 46t2 46q0 176 2 264l8 407q2 106 2 184.5t-2 131.5v6q-6 29 4 61q16 39 50 39h7q40 -4 64 -41q7 -11 13 -25t9 -24.5l8 -28l7 -24.5q20 -54 33 -98l49 -142q32 -94 121 -344l80 -225q40 -127 49 -152l31 -71q13 -33 20 -45q3 8 7 24.5t5 20.5 q10 70 11 78q6 57 14 157q4 104 8 320q0 360 -20 569q-3 30 20 43t47.5 2.5t24.5 -39.5v-39q0 -122 -4 -485q-8 -353 -23 -506q-3 -54 -12 -110q-14 -72 -35 -97q-16 -17 -35 -17q-36 0 -80 64q-84 120 -149 255.5t-135 314.5q-37 92 -103 280q0 -6 -12 -438l-6 -199 l-4 -153v-20.5t0.5 -25.5t-3 -20t-10.5 -16q-19 -14 -40 -5.5t-21 31.5z" />
<glyph unicode="O" horiz-adv-x="892" d="M23 819q37 221 149 338q60 62 144 84q40 11 80 10q43 0 85 -12q159 -45 242 -266q59 -163 59 -375q0 -286 -104 -469q-63 -115 -162 -158q-57 -24 -120 -24q-49 0 -101 14q-188 60 -262 363q-31 136 -31 272q0 111 21 223zM144 511q1 -139 18 -245q29 -197 145 -246 q40 -15 86 -15t84 15q117 50 146 246q16 111 16 332q0 166 -6 248q-11 145 -49 225q-24 48 -63.5 80t-90.5 39q-20 2 -38 2q-57 0 -99 -23q-22 -12 -40.5 -30t-32 -35t-24.5 -46t-17.5 -46t-12 -53t-8 -50.5t-4.5 -54.5t-2.5 -48.5t-1.5 -47.5q-6 -94 -6 -213v-34z" />
<glyph unicode="P" horiz-adv-x="1005" d="M4 928q17 108 90 194t178 121q75 26 159 25q37 0 75 -4q126 -16 221 -80t145 -169q44 -94 44 -197q0 -13 -1 -25q-6 -115 -65 -214t-158 -149q-84 -45 -185 -45q-19 0 -38 2l-31 2q0 -14 -2 -22q-7 -98 -28 -336q-4 -34 -21 -41q-10 -5 -19 -5q-10 0 -18 6q-16 11 -18 34 l-6 88q-11 144 -13 247q0 3 -6 330v238q0 38 21 57q15 15 37 20t43 -4q32 -12 36 -63q10 -71 13 -125v-32q0 -70 -6 -189q0 -64 -7 -146q10 -1 20 -1q88 0 164 56q84 62 117 158q27 71 29 151v15q0 73 -22 145q-24 78 -74 134q-66 74 -174 97q-43 9 -84 9q-60 0 -115 -20 q-97 -34 -155 -125q-47 -74 -46 -156q0 -18 2 -37q9 -61 48 -108q7 -10 35.5 -32t35.5 -38q10 -29 -4 -56.5t-43 -35.5h-5q-20 0 -54 25q-45 39 -72 80q-46 76 -46 169q0 25 3 52z" />
<glyph unicode="Q" horiz-adv-x="899" d="M27 383q-26 118 -26 236q0 128 30 255q51 208 157 302q64 58 154 72q27 4 53 4q62 0 117 -23q139 -55 213 -252q57 -160 57 -359q0 -287 -110 -466q-28 -42 -60 -74l37 -43q74 -81 154 -101q19 -5 29 -22q5 -10 5 -20q0 -7 -3 -15q-10 -20 -35 -29.5t-51 -9.5h-3 q-85 0 -170 101q-48 67 -53 75q-6 -4 -18 -8q-55 -21 -110 -21q-61 0 -122 25q-181 73 -245 373zM147 598q0 -118 5 -203q21 3 41 3q151 0 303 -179q59 -75 69 -86l13 21q41 76 53 223q8 80 8 241q0 170 -8 254q-11 148 -62 226q-42 64 -113 85q-31 9 -62 9q-40 0 -80 -16 q-69 -27 -105 -93q-48 -85 -55 -231q-7 -98 -7 -254zM154 350l2 -4q15 -146 69 -221q33 -42 83 -63q39 -16 83 -16q10 0 21 1q42 3 80 21q-36 63 -52 90t-51.5 72t-71.5 73q-64 48 -145 48q-9 0 -18 -1z" />
<glyph unicode="R" horiz-adv-x="1005" d="M14 1012q32 103 124.5 169.5t205.5 80.5q50 6 99 6q59 0 119 -8q110 -16 194 -68q100 -62 140 -172q21 -57 21 -115q0 -54 -18 -108q-30 -87 -98.5 -144t-159.5 -80q39 -31 71.5 -72t58 -95.5t40 -92t35.5 -100.5q1 -3 10.5 -34.5t14.5 -43.5t16 -35.5t24.5 -37 t30.5 -21.5q16 -11 22 -25q1 -4 1 -8q0 -11 -11 -22q-16 -12 -38 -12q-26 0 -62 16q-79 38 -137 170q-14 31 -26.5 64t-27.5 78.5t-22 64.5q-12 39 -21 63.5t-28 56.5t-43 50q-29 19 -62 22l-36 4l-13 -186q-8 -110 -28 -340q-4 -35 -15 -43q-13 -8 -25 -8q-8 0 -16 4 q-18 10 -20 33l-6 88q-10 146 -13 254q-2 49 -3 104.5t-1.5 123.5t-1.5 105v236q0 55 19 74q15 17 37.5 22t44.5 -4q28 -12 36 -65q11 -76 13 -127v-30q0 -67 -6 -179q35 4 53 2q14 2 47 10q116 29 179 127q43 67 43 143q0 35 -9 72q-20 77 -74 131q-54 53 -124 76 q-67 22 -143 22h-7q-91 -2 -168.5 -40.5t-116.5 -112.5q-28 -51 -28 -99q0 -38 18 -75q17 -37 55 -64q4 -3 12.5 -8.5t13.5 -9t10.5 -10t8.5 -13.5q12 -26 -0.5 -54.5t-40.5 -37.5q-4 -1 -9 -1q-22 0 -60 28q-47 38 -72 80q-41 65 -41 137q0 41 14 84z" />
<glyph unicode="S" horiz-adv-x="821" d="M2 289v10q0 71 26 138q28 72 91 89q20 6 39 -3t26 -29q5 -12 5 -27q0 -19 -9 -41q-5 -16 -19.5 -46.5t-19.5 -47.5q-10 -40 -10 -77q0 -24 4 -46q10 -52 42.5 -92t77 -61t96.5 -28q17 -2 34 -2q34 0 68 9q113 27 159 133q22 49 22 99q0 56 -28 110q-44 89 -147 151 q-27 18 -81 43.5t-71 34.5q-81 44 -141.5 110t-85.5 148q-14 45 -14 91q0 37 10 77q22 86 84 146q58 56 147 80q60 16 118 17q29 -1 57 -5q86 -12 159 -63.5t98 -135.5q11 -41 11 -82q0 -58 -23 -115q-20 -44 -52.5 -77.5t-74.5 -40.5q-29 -5 -48 20t-7 53q8 22 36.5 75.5 t36.5 86.5q4 20 4 38q0 33 -13 67q-20 50 -66 80q-45 29 -103 35q-17 2 -33 2q-40 0 -78 -11q-53 -15 -97.5 -51.5t-63.5 -87.5q-12 -39 -12 -76q0 -17 2 -33q8 -52 41.5 -98.5t75 -81t90.5 -59.5q11 -6 70.5 -34.5t88.5 -49.5q101 -69 154 -166q42 -77 42 -163 q0 -30 -4 -61q-20 -121 -112 -198q-96 -80 -234 -80h-10q-146 3 -245 88q-106 90 -113 238z" />
<glyph unicode="T" horiz-adv-x="733" d="M1 1196q0 7 3 16q5 10 20 16t28.5 7t35 1.5t25.5 0.5q164 13 393 16q51 1 93 1q85 0 136 -5q37 -2 69 -25q16 -12 16 -25q0 -14 -15 -30q-6 -7 -14.5 -12.5t-16 -10t-19.5 -7.5t-19.5 -5.5t-22 -4t-21 -2t-22 -1t-20 -0.5h-20.5h-18h-20q-51 0 -152 7q15 -15 25 -64 q8 -82 10 -123q1 -27 1 -62q0 -71 -3 -177q-4 -99 -16 -273q-3 -65 -13 -184t-12 -148q0 -1 -2 -33.5t-4 -48.5q0 -22 -18 -32q-8 -4 -17 -4q-10 0 -20 6q-21 10 -21 49q-6 88 -14 264q-4 118 -8 350q0 33 -1 98.5t-1 98.5v39v80q2 77 2 102v7q0 38 32 61l-262 26 q-4 1 -14 2t-19 2t-21 3t-20 5t-15.5 7.5t-7.5 11.5z" />
<glyph unicode="U" horiz-adv-x="780" d="M2 862q0 63 4 199q0 8 -0.5 31.5t-0.5 37t2 33t7 35t13 27.5q10 17 29 24q11 4 22 4l16 -2q44 -10 56 -75q2 -19 2.5 -56t1.5 -49q2 -90 2 -266v-50q0 -57 -1 -141.5t-1 -140.5v-49q0 -9 1 -47.5t2 -58t4.5 -57.5t9 -61t17 -52.5t26.5 -46.5t37.5 -30.5t51.5 -15.5 q6 -1 11 -1q90 0 132 141q31 106 43 301l7 110q0 206 10 350q6 93 18 179q0 3 1 13.5t1.5 14t2 12.5t3 13t4.5 11.5t6.5 11.5t9 8.5t11.5 7.5q19 11 37 11q21 0 39 -15q8 -7 14 -15.5t9 -15t4 -18.5q2 -12 2 -18q0 -3 0.5 -8.5t-0.5 -12.5v-19l-6 -168l-15 -286 q-9 -135 -12 -267q-2 -43 -1.5 -86t1.5 -86q4 -72 8 -112l8 -54q10 -34 4 -47q-6 -12 -20.5 -15.5t-26.5 5.5q-6 5 -12.5 15t-9.5 18t-8.5 22.5t-6.5 16.5q-30 75 -47 174q-2 4 -2 10q-13 -61 -30 -115q-43 -127 -140 -151q-26 -6 -52 -6q-60 0 -114 32q-146 93 -174 412 q-10 119 -10 434z" />
<glyph unicode="V" horiz-adv-x="763" d="M0 985q0 86 2 129q0 1 0.5 12.5t1 14t1 13t1.5 14t2 12.5t3 13.5t4.5 11.5t6 13t7.5 11q13 17 33 21q7 2 14 2q13 0 24 -5q37 -15 45 -69q4 -23 4.5 -67.5t0.5 -51.5q0 -65 6 -129q14 -260 34 -445q1 -10 6.5 -73.5t8.5 -85t10 -69.5t17 -83.5t24 -69.5q23 -61 55 -77 q6 -2 12 -2q25 0 52 34q21 29 35.5 72.5t19.5 74t12 81.5q38 244 56 485q20 217 26 330q1 8 2 28.5t2.5 31t6.5 25.5t14 27q19 25 47.5 27.5t50.5 -20.5q14 -15 20.5 -40t6.5 -43q0 -4 1 -9q1 -16 -1 -41q-2 -33 -2 -41q-3 -123 -15 -246q-25 -291 -86 -488 q-36 -123 -92 -223q-14 -26 -27 -45t-31.5 -41t-41.5 -34t-49 -13h-7q-69 0 -128 100q-53 89 -91 209q-61 176 -90 459q-11 115 -14 260z" />
<glyph unicode="W" horiz-adv-x="1062" d="M2 1008q0 36 4 114q4 63 25 92q15 16 35 22q8 2 15 3q13 0 25 -6q40 -19 44 -78q2 -17 2 -37t-1 -44.5t-1 -37.5v-129l4 -178q8 -210 16 -317q8 -80 10 -115q1 -10 3.5 -38.5t4 -41.5t5 -38t7.5 -41.5t10 -37t13 -37.5q20 -41 41 -47q11 -4 24 4.5t18 14.5t16 20 q36 63 55 181q24 151 31 385q2 58 2 147v47q0 41 -1 76q0 70 1 119q0 11 -1 41.5t-1 47.5t4 41.5t12 43.5q13 35 46 45q8 2 16 2q24 0 44 -23q21 -31 25 -80v-133l-18 -252q-5 -35 -5 -45v-52q0 -139 13 -290q3 -34 10.5 -83t23.5 -123t44 -113q18 -25 38 -25q11 0 23 8 q25 16 47 76q18 55 27 115q12 98 16 149q16 164 29 541q0 48 4 146q0 6 -0.5 28.5t0 33t2.5 27.5t6 31q12 52 45 62q19 7 37 1t29 -22q26 -40 26 -100v-121q-3 -128 -12 -254q-18 -301 -70 -491q-35 -131 -84 -213q-53 -82 -115 -82q-10 0 -20 2q-88 13 -125 172 q-27 106 -37 241q0 2 -1 7t-1 8q-16 -86 -26 -129q-30 -128 -66 -201q-51 -100 -124 -100h-3q-24 0 -45 11t-38 32t-27 37.5t-23 42.5q-47 100 -76 219q-39 166 -55 475q-3 109 -3 181q0 36 1 63z" />
<glyph unicode="X" horiz-adv-x="739" d="M4 111q13 96 84 208q21 34 76 115t82 127l33 62q-27 46 -72 116q-91 138 -121 209q-42 98 -42 183q0 14 1 28q0 47 16 68q12 17 32 17h5q24 -2 35 -23q10 -18 19 -37t17.5 -42t14.5 -38t14.5 -43t12 -39.5t13.5 -43.5t12 -40q46 -164 79 -244q34 70 58 127 q20 49 54.5 143t51.5 138q26 65 53 119q13 24 41 22t37 -29q10 -34 12 -72q0 -5 1 -11q0 -33 -8 -65q-9 -38 -21.5 -73t-32.5 -72.5t-37 -66t-39 -61.5q-18 -26 -62 -87.5t-67 -93.5q0 -2 2 -4q32 -58 99 -159t92 -142q20 -33 33.5 -58t30.5 -63t24 -70q6 -28 6 -59v-9 q-1 -36 -14 -66q-9 -19 -30.5 -19t-31.5 17l-28 55q-17 35 -42.5 103.5t-31.5 82.5q-104 249 -148 334h-2q-52 -80 -90 -158q-37 -78 -80 -217l-30 -110q-2 -6 -6 -22.5t-6.5 -26t-7.5 -22.5t-11 -22q-12 -15 -26 -15q-5 0 -10 2q-20 8 -30 28q-17 39 -17 82q0 18 3 37z" />
<glyph unicode="Y" horiz-adv-x="700" d="M2 1180q2 28 18 41q17 17 42 21h11q19 0 36 -9q32 -16 38 -62q9 -86 39 -233q6 -31 35 -154q14 -61 29 -100q10 -30 28 -53.5t41 -20.5q18 2 33 14.5t27 35t17.5 36.5t13.5 37q31 91 55 180q30 109 43 197q1 7 3.5 29t4.5 34t10 26.5t21 21.5q21 13 44 13t48 -13t25 -45 q0 -56 -9 -111q-12 -111 -53 -217q-41 -113 -104 -186q-61 -69 -101 -95l6 -30q6 -37 6 -87q0 -57 -8 -133q-6 -74 -30 -213q0 -3 -2.5 -28t-4.5 -38.5t-9 -30.5t-17 -23q-10 -4 -18 -6h-3q-5 0 -10 6q-6 7 -10 14t-7.5 21t-5.5 24.5t-3.5 25.5t-2.5 24t-1.5 19.5t-0.5 12.5 q-11 96 -14 215q-2 52 -2 104t2 103v8q-44 23 -88 78q-68 80 -106 180q-43 121 -56 215q-8 70 -8 105q-3 13 -3 30q0 8 1 17z" />
<glyph unicode="Z" horiz-adv-x="716" d="M2 2q-1 4 -1 9q0 7 3 12q33 62 68.5 134t77 157.5t65.5 134.5q59 120 173.5 337t148.5 283q-13 -4 -39 -8q-14 -2 -28.5 -2t-30 1.5t-27.5 3.5t-29 5.5t-26.5 6t-29 7.5t-26.5 7q-3 1 -17 4t-19.5 4t-17 2t-20 0t-16.5 -4q-7 -2 -13 -6t-12.5 -10.5t-10.5 -11t-10.5 -14 t-8.5 -12.5t-8.5 -14t-6.5 -12q-2 -3 -9 -16.5t-13.5 -21.5t-14.5 -13q-22 -12 -44.5 0.5t-22.5 38.5q0 104 69 170q48 44 114 44q31 0 67 -10q27 -7 90 -37t102 -36q10 -1 19 -1q66 0 108 70l8 17q2 0 2 2q6 12 18 15q4 1 9 1q8 0 14 -4q11 -6 15 -18q2 -5 2 -9 q0 -7 -4 -14l-2 -2h2l-6 -8q-62 -119 -182 -366.5t-185 -371.5q-98 -180 -145 -272l6 4q38 18 82 18q60 0 131 -34q18 -8 50.5 -26t41.5 -23q24 -12 40 -9.5t34 23.5q7 9 23.5 37t27.5 41q15 17 38.5 14.5t35.5 -22.5q3 -6 4.5 -12t0.5 -14.5t-1.5 -14t-4 -16t-4.5 -14 t-5.5 -14.5t-4.5 -12q-20 -56 -57 -90q-44 -33 -90 -33h-8q-50 3 -99 35q-16 10 -54 43t-70 51q-29 16 -57 15h-7q-84 -7 -148 -129q-6 -11 -19 -13t-24 5q-9 6 -12 18z" />
<glyph unicode="[" horiz-adv-x="485" d="M20 -76v1198q0 27 39 33.5t111 0t76 -6.5q39 0 54 -19t-2 -38t-56 -19h-37t-24.5 -6.5t-16 -11t-7 -24.5t-3.5 -35.5v-55.5v-834v-55.5t3.5 -35.5t7 -24.5t16 -11t24.5 -6.5h37q39 0 56 -18.5t2 -37.5t-54 -19q-5 0 -76 -7t-110.5 -0.5t-39.5 33.5z" />
<glyph unicode="\" horiz-adv-x="634" d="M12 1192q-5 31 15.5 60.5t48.5 26.5t41 -52q45 -166 158.5 -435.5t230 -519t119.5 -256.5q11 -33 -16 -47.5t-56 17.5q-18 19 -88 145t-157.5 300t-173 388t-122.5 373z" />
<glyph unicode="]" horiz-adv-x="440" d="M89 -83q-15 19 2 37.5t56 18.5q25 0 37.5 0.5t24.5 6t16 11t7.5 24.5t3.5 35.5v55.5v834v55.5t-3.5 35.5t-7.5 24.5t-16 11t-24.5 6t-37.5 0.5q-39 0 -56 19t-2 38t54 19q4 0 76 6.5t111 0t39 -33.5v-1198q0 -27 -39.5 -33.5t-110.5 0.5t-76 7q-39 0 -54 19z" />
<glyph unicode="^" horiz-adv-x="548" d="M0 816q5 30 27 54q20 21 77 70t95 100l4 7q8 14 24 14.5t27 -14.5q16 -22 30.5 -39.5t23 -28.5t23.5 -27.5t21 -22.5t27.5 -28t30.5 -31q40 -44 22 -90q-14 -35 -47 -36q-24 -1 -47 22q-59 49 -121 201q-22 -59 -54.5 -116.5t-64.5 -84.5q-38 -38 -72 -14q-31 21 -26 64z " />
<glyph unicode="_" horiz-adv-x="669" d="M1.5 -88.5q-7.5 19.5 4 34.5t33.5 15q101 -2 247.5 2t217.5 14q63 7 67 -32q4 -31 -28 -58q-16 -14 -35 -18q-62 -17 -246 -10.5t-227 24.5q-26 9 -33.5 28.5z" />
<glyph unicode="`" horiz-adv-x="577" d="M85 1195q10 33 49 42q32 8 67 -10q30 -17 121.5 -85t148.5 -91q29 -10 25 -26q-6 -20 -52 -15q-45 3 -164 46t-163 74q-44 26 -32 65z" />
<glyph unicode="a" horiz-adv-x="819" d="M10 297q-9 52 -9 104q0 69 15 139q26 124 93 222q45 70 109 112q60 40 130 39h10q86 -3 158 -59l27 -23q8 64 45 78q15 6 29 6q24 0 47 -16t25 -46.5t-3 -55.5q-2 -63 -10 -161t-12 -166q-3 -51 -4 -111v-43q2 -86 14 -158q1 -2 4 -17.5t4 -20t4.5 -18t6.5 -19t8 -16 t10.5 -15.5t13 -10.5t16.5 -8.5h2q107 0 107 432q0 26 19 32t27 -17q3 -9 3 -21q0 -1 0.5 -36t0.5 -63q0 -4 1 -9q0 -27 -3 -68q-3 -48 -8.5 -86t-17 -81t-28 -72t-43 -48t-60.5 -19q-44 0 -78.5 19t-54.5 44t-36 67t-22 68t-13 67l-7 34l-4 -10q-83 -280 -242 -280h-10 q-56 4 -103.5 33.5t-79 75t-52 97t-29.5 105.5zM145 301q8 -147 60 -207q27 -32 66 -40q11 -2 22 -3q28 0 55 15q69 46 121 188q29 87 45 182v41q0 143 18 279q-28 43 -75 69q-45 25 -93 25h-4q-82 -6 -135 -90q-49 -83 -67 -219q-14 -93 -15 -183q1 -29 2 -57z" />
<glyph unicode="b" horiz-adv-x="718" d="M2 1186v84v16.5v17.5t1.5 14t5 14.5t9.5 11t15 10.5q19 8 39 8t41 -8q17 -8 24.5 -22t7 -29t-1.5 -33v-76q0 -252 -2 -377v-33q19 42 56 82q47 45 130 45q17 0 35 -2q102 -8 177 -116q63 -90 85 -216q10 -61 11 -118q0 -61 -12 -117q-11 -52 -23 -90q69 9 110.5 72.5 t41.5 142.5q0 26 19 32t27 -17q3 -9 3 -21q0 -21 -4.5 -49t-19.5 -67.5t-37.5 -71t-63.5 -54t-94 -22.5h-2q-33 -74 -85 -127t-120 -72q-36 -11 -68 -11q-51 1 -91 29q-65 46 -103 140q-10 -86 -31 -150q-6 -17 -24 -23q-7 -2 -14 -2q-10 0 -19 5q-19 10 -20 31t5 40 q4 25 5.5 56t1.5 52.5t-0.5 59.5t-0.5 54q-1 76 -5 228t-5 228q-4 304 -4 451zM128 365q4 -111 30 -183q20 -56 54 -96q32 -38 76 -37h7q144 0 180 246q-11 37 -11 82v23q4 60 25 102q-4 52 -8 78q-19 143 -80 217q-21 26 -47 40q-22 12 -47 12q-5 -1 -9 -1q-30 -2 -56 -25 q-35 -33 -54.5 -81.5t-35.5 -116.5q-15 -87 -17 -105l-7 -129v-26z" />
<glyph unicode="c" horiz-adv-x="681" d="M6 376q-5 39 -5 76q0 80 22 156q21 74 59 138t101.5 111.5t138.5 53.5q9 1 18 1q92 0 155 -65q69 -71 74 -179v-11q0 -93 -49 -178q-59 -90 -128 -90h-3q-22 1 -33 18t-8 39q3 20 12.5 40.5t17.5 32.5t25 34q26 39 42 80q17 44 17 93q0 47 -26 81q-17 24 -41 33 q-27 12 -54 12q-14 0 -29 -4q-42 -10 -74 -39q-59 -54 -78 -176q-18 -102 -18 -195q0 -116 28 -219q18 -64 82 -118t131 -54q81 0 145.5 36t104.5 96.5t61 134.5t21 153q0 26 19 32t27 -17q3 -9 3 -21q0 -94 -21.5 -176.5t-65 -150t-116.5 -107t-168 -39.5q-87 0 -179 48.5 t-134 119.5q-59 98 -74 220z" />
<glyph unicode="d" horiz-adv-x="819" d="M10 297q-9 52 -9 104q0 69 15 139q26 124 93 222q103 151 240 151h9q86 -3 158 -59l16 -12q6 114 15 223q6 66 22 209q0 4 1 14.5t2 15t2.5 13.5t4 13t7 10t10.5 10t14 6q16 5 32 5q23 0 44 -11q25 -13 28.5 -40t-1.5 -53q0 -32 -4 -102q-4 -77 -13.5 -221t-11.5 -170 q-12 -172 -18 -342q-1 -45 -1 -83q0 -95 7 -149q11 -93 25 -119q16 -30 48 -26q105 15 105 422q0 26 19 32t27 -17q3 -9 3 -21q0 -1 0.5 -35t0.5 -62q0 -4 1 -8q0 -26 -3 -67q-3 -47 -8.5 -84t-17 -79t-28 -70t-43 -47t-60.5 -19q-56 1 -98 33.5t-64 82.5t-31 106 q-6 38 -6 77q0 17 1 33q-5 -23 -17 -56q-83 -280 -242 -280h-10q-56 4 -103 33t-78.5 75t-52 97t-30.5 106zM145 301q8 -147 60 -207q27 -32 67 -40q12 -2 23 -3q28 0 53 15q74 48 121 188q36 102 53 233l8 52q-2 33 -2 98q0 80 2 121q-28 43 -74 68q-44 24 -92 24h-4 q-83 -6 -133 -90q-51 -82 -69 -219q-14 -93 -15 -183q1 -29 2 -57z" />
<glyph unicode="e" horiz-adv-x="688" d="M-2 433q2 132 49 243q44 102 122 168q75 64 170 63h9q117 -3 187 -92q53 -67 53 -148q0 -27 -6 -55q-22 -114 -123 -180q-83 -50 -197 -50q-14 0 -29 1q-17 0 -50 3t-38 3q2 -78 14 -134.5t40 -105.5t80.5 -74.5t128.5 -25.5q129 0 221 120.5t92 297.5q0 26 19 32t27 -17 q3 -9 3 -21q0 -125 -42.5 -231.5t-127 -174t-194.5 -67.5q-12 -1 -24 -1q-234 0 -337 208q-48 101 -48 225q1 7 1 13zM144 444q15 -4 44 -8q10 0 20 -1q58 0 101 16q109 38 135 157q8 29 8 70q0 20 -2 43q-6 69 -38 104q-29 30 -70.5 30t-77.5 -21.5t-57 -53.5 q-22 -33 -35.5 -73.5t-19.5 -87.5t-7.5 -81.5t-0.5 -84.5v-9z" />
<glyph unicode="f" horiz-adv-x="428" d="M-82 -377q0 17 14 25q4 2 13.5 4t13.5 4q17 11 31 29q24 40 35 106q9 58 9 140q0 47 -3 102q-3 74 -12.5 242.5t-12.5 260.5v49q0 78 6 179q7 136 31 248q15 60 31.5 106.5t45.5 100t73 87.5t100 44q19 3 37 3q77 0 130 -55q67 -67 75 -172q1 -15 1 -30q0 -83 -42 -164 q-24 -45 -60 -76q-32 -27 -70 -27h-8q-25 0 -35.5 20t-3.5 44q2 12 6 23t11 22.5t11.5 19t14 21.5t13.5 20q24 37 39 76.5t18 86.5q1 6 1 13q0 39 -19 70q-13 27 -41 39q-28 9 -62 6t-59 -22q-66 -44 -90 -170q-17 -92 -17 -236l4 -246q30 10 50 27q6 3 39 31q2 2 9 11 t13.5 15t11.5 7q4 1 8 1q24 0 54 -24q31 -23 31 -46q0 -3 -1 -7q-10 -36 -81 -64q-47 -18 -117 -28q-4 -2 -17 -2v-150v-60q0 -228 -20 -405q-20 -150 -55 -225q-18 -46 -58 -78q-36 -28 -61 -28q-9 0 -16 3q-19 7 -19 29z" />
<glyph unicode="g" horiz-adv-x="790" d="M10 297q-9 52 -9 104q0 69 15 139q26 123 93 222q45 69 109 112q61 39 130 39h10q86 -3 158 -59l8 -6l4 8q13 27 43 36t58 -5q12 -7 19.5 -16.5t11.5 -24t5.5 -22.5t3 -27.5t1.5 -24.5q11 -108 14 -237q0 -133 -6 -265q-10 -120 -16 -164q72 69 115.5 161.5t43.5 197.5 q0 26 19 32t27 -19l3 -19v-15q0 -115 -58 -228q-63 -119 -165 -202q-15 -75 -35 -139t-54.5 -126.5t-78 -104t-107.5 -64.5q-46 -16 -100 -16q-19 0 -39 2q-141 15 -183 96q-15 28 -15 57q0 45 34 93q67 96 226 139q37 10 78 16q99 14 159 45q3 64 3 256v25q-5 -18 -9 -27 q-83 -280 -242 -280h-10q-56 4 -103.5 33.5t-79 75t-52 97t-29.5 105.5zM145 301q8 -147 60 -207q27 -32 66 -40q11 -3 22 -3q28 0 55 15q69 46 121 188q36 102 53 233l6 35q0 1 -1 4t-1 4l-4 240q-30 37 -74 59q-41 21 -84 21h-4q-82 -6 -135 -90q-49 -83 -67 -219 q-14 -93 -14 -183q0 -29 1 -57zM183 -319q30 -56 109 -56h5q26 0 55 8q89 22 137 154q23 62 37 156q-80 -22 -155 -37q-131 -26 -180 -108q-21 -35 -21 -68q0 -25 13 -49z" />
<glyph unicode="h" horiz-adv-x="780" d="M1 1302.5q0 6.5 2 15.5t5 15q14 23 48 28q10 1 20 1q22 0 39 -8q9 -4 15 -10t9 -11t4.5 -14.5t2 -14.5t-0.5 -17.5t0 -16.5v-94q0 -313 -4 -469l9 22q52 128 129 168q38 19 89 19h3q49 0 86 -15q87 -35 137 -156q16 -41 26.5 -83.5t15 -97t6 -82.5t1.5 -98.5v-86.5 q0 -19 0.5 -31t1.5 -51t5.5 -66t11 -58t19 -46.5t28.5 -13.5q60 9 81 110.5t21 323.5q0 26 19 32t27 -19l3 -19q1 -41 1 -79q0 -379 -136 -407q-15 -3 -29 -3q-46 0 -83 30q-48 40 -66 86q-34 86 -45 233q-2 37 -2 95v62q1 43 1 78q0 46 -1 77q-1 44 -5 74.5t-21 68 t-46 55.5q-32 18 -67 18q-7 -1 -15 -1q-44 -4 -74 -33q-60 -57 -100 -199q-26 -93 -39 -196q-6 -183 -18 -365q4 -27 -2 -41q-5 -23 -24 -29t-36.5 6.5t-19.5 37.5q-4 58 -4 84q-9 167 -15 321q-12 422 -12 838q0 3 -0.5 14.5t-0.5 18z" />
<glyph unicode="i" horiz-adv-x="313" d="M2 621q0 60 8 178q0 2 0.5 19t1 22t3 18.5t6.5 19.5t11 14t17 13q18 9 36 9l40 -11q31 -16 31 -55q4 -74 4 -113q0 -132 -2 -200q-4 -140 -4 -209q0 -109 4 -162q3 -29 5 -41t7.5 -34t14 -31t20.5 -9q60 0 100.5 115t40.5 301q0 26 19 32t27 -17q3 -9 3 -21 q0 -98 -8 -173.5t-27.5 -144.5t-58 -108.5t-94.5 -44.5q-8 -1 -17 -1q-27 1 -50 15q-31 20 -52 51q-40 63 -65 211q-21 156 -21 317v40zM6 1182l4 12q8 30 28 46q19 16 42 16h3q25 -1 47.5 -11t34.5 -34q8 -15 8 -33q0 -10 -3 -21l-4 -12q-6 -29 -29 -46.5t-51 -17.5 q-38 -1 -63 31q-19 24 -19 52q0 9 2 18z" />
<glyph unicode="j" horiz-adv-x="309" d="M-322 -265q50 110 192 228q64 54 130 92q0 90 2 135q1 119 1 162.5t-2 163t-3 162.5v135q0 23 0.5 31.5t7.5 23.5t21 23q20 13 42 13q18 0 37 -9q32 -13 35 -53l11 -99q5 -84 5 -156q0 -31 -1 -59q-4 -223 -25 -364q211 180 211 301q0 26 19 32t27 -17q3 -9 3 -21 q0 -90 -72.5 -180.5t-199.5 -194.5q-34 -198 -103 -346q-16 -34 -35.5 -64.5t-46.5 -59.5t-57.5 -45t-66.5 -22q-10 -2 -20 -2q-27 0 -56 13q-76 30 -76 97q0 35 20 80zM-263 -270q-21 -36 -21 -63q0 -28 22 -46q26 -17 52 -17q30 0 60 22q58 42 93 126q39 93 53 236 q-62 -36 -139 -110t-120 -148zM2 1182l2 12q7 30 28 46t44 16h2q25 -1 47.5 -11t34.5 -34q7 -15 7 -32q0 -11 -3 -22l-2 -12q-7 -29 -29.5 -46.5t-50.5 -17.5q-40 0 -64 31q-18 24 -18 50q0 10 2 20z" />
<glyph unicode="k" horiz-adv-x="712" d="M2 1186v84v16.5v17.5t1.5 14t5 14.5t9.5 11t15 10.5q20 9 40 9l40 -9q9 -4 15.5 -10.5t10 -11t5 -14.5t2 -14.5t0 -17t-0.5 -16.5v-76q0 -127 -4 -377q0 -156 -6 -309q87 7 161 64.5t116 140.5q30 60 59 205q9 40 47 56q14 6 27 6q23 0 43 -17q11 -9 17.5 -20.5t7 -26 t0.5 -25t-6 -28.5t-8.5 -26t-11 -27t-9.5 -22q-39 -98 -103 -174q-58 -73 -147 -118q96 -41 159 -126t88 -190q1 -5 4 -18.5t5 -21t5.5 -21t6.5 -22t7 -19.5t8.5 -17t10 -12t12 -8t13.5 0q55 13 74.5 113.5t19.5 310.5q0 27 20 32q19 5 27 -20q3 -8 3 -18q2 -76 2 -141 q-1 -33 -1 -63q-2 -90 -24 -158t-68 -99q-40 -27 -76 -31q-8 -1 -15 -1q-27 0 -49 12q-28 15 -54.5 45t-46.5 66.5t-39 79t-33.5 80t-29.5 72t-27 52.5q-50 73 -127 76q-24 4 -41.5 3.5t-28.5 -3.5l-4 -58q-11 -195 -12 -201q-12 -126 -35 -184q-6 -17 -23 -23t-34 3 q-8 5 -12.5 11t-5.5 13.5t-1 14t2 17t2 15.5q7 51 7 143q0 36 -1 79q-2 152 -10 456q-4 304 -4 451z" />
<glyph unicode="l" horiz-adv-x="327" d="M8 604q-4 111 -4 221.5t4 221.5q6 105 15 215q0 4 0.5 18.5t1 20t3 16.5t6 17t10.5 12.5t17 9.5q17 7 34 7q21 0 42 -11q11 -5 18 -12t9.5 -18.5t3.5 -17t0.5 -22.5t-0.5 -20v-107q-1 -65 -5 -197t-5 -198q-6 -183 -6 -292v-50q5 -170 12 -225q1 -4 3.5 -21t4.5 -26 t6.5 -26t9.5 -27t12 -21t16.5 -16.5t21.5 -6.5h5q35 0 60 41q27 44 41 138.5t14 236.5q0 27 20 32q19 5 27 -20q3 -8 3 -18q1 -33 1 -64q0 -409 -173 -409q-48 0 -86 30q-55 44 -93 170q-37 143 -49 418z" />
<glyph unicode="m" horiz-adv-x="1067" d="M2 819v12.5v13.5t0.5 12t2 13t3.5 11t5.5 11t8.5 8.5t11 8.5q20 12 40.5 12t41.5 -12q11 -7 18 -15.5t10 -22t3 -21.5t-0.5 -27t-0.5 -24v-29q50 122 129 141q23 6 44 6q24 1 46 -7q42 -14 71.5 -47t50 -72.5t32.5 -85.5l19 53q54 137 137 155q20 4 38 4q25 1 48 -7 q40 -14 66.5 -42t47.5 -69t32.5 -79.5t19.5 -80.5q12 -64 16 -139q3 -60 4 -111q0 -13 -1 -25v-43q0 -45 1 -98q0 -9 -1 -37.5t-1 -47t2.5 -41t10 -35t20.5 -13.5h7q114 0 114 416q0 26 19 32t27 -19q3 -8 3 -19q1 -31 1 -59q0 -164 -30 -265q-34 -118 -123 -143 q-15 -4 -30 -4q-21 0 -39 9q-32 16 -50.5 44t-33 71t-20.5 72.5t-11 63.5q-11 80 -11 165q0 20 1 40q0 22 2 69q3 46 3 74v15q0 23 -2 53q-2 40 -7 71q-9 48 -33 82q-23 31 -61 31h-7q-68 -4 -112 -139q-28 -87 -43 -170q1 -22 1 -51q0 -57 -3 -140l-4 -160q-3 -44 -3 -86 v-33.5t-3.5 -48t-12.5 -30.5q-12 -15 -32 -16h-3q-19 0 -32 12q-19 17 -19 63l-6 72l-12 223q-2 37 -4 138.5t-5 156.5q0 2 -1.5 38t-4 49t-8 40.5t-16.5 43.5t-27 26q-20 13 -40 13q-18 0 -34 -11q-35 -22 -59 -66q-41 -78 -68 -227q0 -7 -4 -23q-3 -151 -12 -301 q-8 -125 -14 -182q-4 -55 -39 -57q-11 0 -19 3.5t-12.5 8t-7.5 15t-4 16t-2.5 18.5t-1.5 16q-15 190 -21 385q-4 160 -4 244q-2 43 -2 131z" />
<glyph unicode="n" horiz-adv-x="778" d="M2 819q0 20 0.5 27t3 22.5t10 24.5t19.5 16q18 12 38.5 12t41.5 -12q12 -7 19 -16t9.5 -22t3 -21.5t-0.5 -26t-1 -24.5v-37q44 96 117 135q38 19 88 19h3q49 0 87 -15q89 -35 135 -156q16 -41 26.5 -84t15.5 -95.5t7 -84t2 -97t1 -87.5q0 -162 9 -212q11 -62 36 -62 q74 0 104.5 108.5t30.5 333.5q0 26 19 32t27 -19l3 -19q3 -50 3 -97t-3 -91q-6 -88 -22 -154.5t-55 -107t-99 -46.5q-7 -1 -13 -1q-27 0 -51 10q-29 12 -48 34t-34 56.5t-23 65t-14 71t-8 65t-4 55.5q-3 29 -3 89v68q1 63 2 104q0 33 -1 51q-3 47 -6.5 75.5t-20.5 66.5 t-46 56q-31 18 -66 18q-6 -1 -14 -1q-44 -4 -76 -33q-60 -57 -100 -199q-10 -30 -11 -36q-2 -125 -14 -357l-12 -182q-3 -18 -6 -27.5t-11.5 -19t-23.5 -10.5q-27 -3 -37 24q-6 6 -6 19v4q0 20 -2 30q-13 143 -21 385q-6 120 -6 244q0 86 -2 131z" />
<glyph unicode="o" horiz-adv-x="763" d="M2 481q2 78 20 150.5t62 142t109 103.5q60 33 130 33q21 0 44 -3q96 -13 159 -76q69 -67 100 -168t31 -212q0 -75 -16 -160q61 13 101.5 60t52.5 116q3 20 16 29t24 0q9 -8 9 -27v-8q-1 -19 -7 -42t-22 -55.5t-38.5 -58.5t-62.5 -46.5t-89 -25.5q-47 -135 -136 -194 q-70 -47 -156 -47q-19 0 -38 2q-109 12 -176 88q-66 75 -94 180q-24 89 -24 185q0 17 1 34zM145 385q0 -36 0.5 -60.5t4.5 -62t11 -64t20 -56t32 -48t48 -31t65 -12.5h5q48 0 82 18q36 19 55.5 55.5t29.5 75.5t14 91q-25 51 -25 124.5t27 123.5q0 58 -4.5 100t-18 90 t-44.5 78.5t-78 40.5q-24 5 -45 5q-58 0 -101 -36q-68 -54 -76 -205q-3 -63 -3 -136q0 -44 1 -91z" />
<glyph unicode="p" horiz-adv-x="747" d="M2 782v16.5v18t0.5 16.5t2 17.5t4 15t6 16.5t8.5 13.5t12 13.5q17 15 40 15t40 -15q7 -6 12.5 -13.5t8.5 -17t5.5 -16t3 -19t0.5 -17.5v-19.5v-18.5v-16q22 49 62 86q39 36 95 47q24 5 47 5q32 0 61 -9q65 -17 112.5 -67t72 -117t35.5 -133t11 -133q0 -87 -16 -160 q61 13 101 59.5t52 116.5q3 20 16 29t24 0q9 -8 9 -27v-8q-2 -25 -12 -55.5t-32.5 -69.5t-67.5 -68t-105 -35q-38 -130 -127 -196q-46 -34 -105 -43q-18 -2 -35 -2q-40 0 -77 14q-84 32 -129 141q-4 -160 -16 -436q0 -26 -4 -80q0 -5 -0.5 -18t-1 -20.5t-3 -17.5t-8 -16.5 t-14.5 -9.5q-11 -5 -20 -5t-14.5 3.5t-10 11t-7 14t-4 17.5t-2 17t-1.5 16l-4 82q-12 215 -19 561q-4 230 -4 342q0 117 -2 174zM141 334l6 -35q16 -146 82 -207q36 -36 91 -41q7 -1 15 -1q45 0 81 26q65 45 78 190v8q-30 48 -30 129v5q1 85 34 137q-4 90 -13 147 q-20 134 -112 154q-27 5 -50 5q-10 0 -19 -1q-30 -3 -54.5 -22.5t-41.5 -42.5t-30 -56t-20.5 -64t-12.5 -65q0 -90 -4 -266z" />
<glyph unicode="q" horiz-adv-x="778" d="M6 311q-5 43 -5 86q0 77 17 153q26 121 91 216q44 68 105 110q56 37 120 37h12q85 -6 154 -65l4 -4q3 40 31 65q17 15 39.5 15t39.5 -15q9 -7 15 -17t9.5 -17.5t5 -22t1.5 -20v-23.5v-21v-161q0 -110 -4 -322q-7 -331 -20 -594q0 -13 -5 -80q0 -4 -0.5 -22t-1.5 -26 t-7 -19t-17 -15q-11 -5 -20 -5t-15 3.5t-10.5 11t-7 14.5t-4 17.5t-2 17t-1.5 15.5q0 28 -4 82q-10 184 -18 561v15q-2 -2 -2 -7q-12 -43 -24 -76.5t-34 -77t-46.5 -72t-61.5 -46.5q-32 -16 -68 -16h-12q-56 4 -103 36t-76.5 81t-48 101t-26.5 107zM145 307q4 -159 60 -219 q33 -36 75 -36t76 34q64 69 101 203q34 111 43 233q0 15 4 39v197q-27 41 -70 67q-42 25 -85 25h-3q-74 -3 -127 -88q-44 -79 -63 -217q-12 -98 -12 -185q0 -27 1 -53z" />
<glyph unicode="r" horiz-adv-x="524" d="M-47 872q0 3 0.5 19.5t1 21.5t3 18.5t6.5 20t11 14.5t17 13q18 9 36 9l40 -11q30 -16 30 -55q0 -36 -1.5 -77.5t-1.5 -59t1 -37.5t8 -27t18 -13.5t32 -11.5q10 -2 18.5 -2t14 1.5t10.5 6t8.5 8.5t7 11.5t5.5 13.5t6 16t7 17q6 18 29 31q18 9 36 9l40 -11q31 -16 31 -56 q4 -74 4 -112q0 -39 -2.5 -162t-2.5 -186v-14q0 -55 3 -103q3 -29 5 -41t7.5 -34t14 -31t20.5 -9q68 0 104.5 111t36.5 305q0 26 19 32t27 -17q3 -9 3 -21q0 -98 -8 -173.5t-27.5 -144.5t-58 -108.5t-94.5 -44.5q-8 -1 -17 -1q-27 1 -50 15q-31 20 -52 51q-37 57 -58 134 t-25 168q-4 74 -4 132v25q1 66 7 152q-23 -21 -58 -21q-10 0 -22 2q-31 3 -55 12q-4 -118 -4 -198q0 -28 -19 -31t-27 18q-3 9 -3 19q0 105 8 215q-87 56 -87 170q0 11 1 22z" />
<glyph unicode="s" horiz-adv-x="595" d="M2 373q0 106 50 141q16 11 32 11q17 0 32 -14q26 -24 26 -69q0 -20 -5 -43l-10.5 -52.5t-12.5 -68t-3.5 -54t6.5 -54.5q27 -72 73 -108q44 -34 85 -34h5q44 2 81.5 34.5t48.5 87.5q4 18 4 38q0 40 -16 83q-23 64 -63 124t-82 120t-72.5 129t-30.5 132q0 66 44 130 q29 41 49 41q4 0 8 -2q15 -8 15 -48q0 -55 24.5 -122t59.5 -126t73.5 -128.5t65 -128.5t34.5 -126q2 -16 2 -32q0 -48 -19 -89q-38 -87 -103 -133q-57 -40 -118 -40h-18q-71 6 -130 61q-60 57 -97.5 146t-37.5 194z" />
<glyph unicode="t" horiz-adv-x="430" d="M-130 954q0 17 18 22l10 1q42 0 108 4q0 43 2 66q6 105 15 215q0 4 0.5 18.5t1 20t3 16.5t6 17t10.5 12.5t17 9.5q17 7 34 7q21 0 42 -11q11 -5 18 -12t9.5 -18.5t3.5 -17t0.5 -22.5t-0.5 -20v-107l-4 -154q85 20 198 66q32 13 58 13t45 -14q17 -12 17 -29q0 -13 -10 -29 q-21 -33 -81 -60q-74 -35 -231 -35q-2 -51 -2 -153q-6 -183 -7 -292q0 -27 1 -50q5 -170 12 -225q10 -74 42.5 -109t78.5 -35q68 0 122 108.5t54 307.5q0 26 19 32t27 -19l3 -19v-19q0 -38 -3 -82q-4 -54 -18.5 -122.5t-38 -122t-67 -90.5t-100.5 -37t-101.5 21t-73.5 50 t-49 83.5t-29.5 96.5t-15 116t-6 115t-0.5 119v17q0 52 -2 158.5t-2 159.5q-22 2 -50.5 5.5t-43.5 5t-19 1.5q-21 0 -21 20z" />
<glyph unicode="u" horiz-adv-x="755" d="M2 536q0 40 1 84q1 27 1 39l4 144v14.5v15.5t0.5 14.5t2 15.5l3.5 14t6 14t9 12q21 26 49 26q12 0 26 -5q46 -13 50 -78l4 -127q1 -37 1 -86q0 -98 -3 -246v-61q0 -83 4 -118q24 -154 139 -155q75 0 113 97q30 83 41 223q-10 98 -10 198q0 25 1 50q0 45 9 178q0 2 0.5 19 t1 22t3 18.5t6.5 19.5t11 14t17 13q18 9 35 9q20 0 40 -11q31 -16 31 -55q4 -74 4 -113q0 -132 -2 -200q-4 -140 -4 -209q0 -109 4 -162q3 -29 5 -41t7.5 -34t14 -31t20.5 -9q60 0 100.5 115t40.5 301q0 27 21 32q19 5 27 -20q2 -8 2 -18q0 -98 -8 -173.5t-27.5 -144.5 t-58.5 -108.5t-95 -44.5q-8 -1 -17 -1q-27 1 -50 15q-31 20 -52 51q-32 47 -49 125q-43 -182 -174 -192q-13 -1 -26 -1q-37 1 -69 9q-42 12 -72.5 34.5t-54 58t-38.5 75.5t-24.5 89t-14 94.5t-6.5 97.5q-1 39 -1 72q1 11 1 21z" />
<glyph unicode="v" horiz-adv-x="665" d="M-20 733q0 65 2 96q4 63 26 82q21 19 44 19q4 0 10 -2q28 -6 51 -31q9 -11 13 -27.5t3.5 -29.5t-1.5 -34.5t-1 -29.5q-3 -93 -3 -155q0 -31 1 -54q4 -176 14 -262q11 -111 41 -174q11 -32 31.5 -56t48.5 -24q21 0 39 12q59 43 82 185l8 45q-28 46 -28 103q-1 10 1 22 q6 70 46 123q2 51 2 155q0 80 2 119q0 3 0.5 12t1 12t1 11.5t1.5 12t3 10t4.5 11t6 9.5t8.5 10q19 20 46 20t46 -20q27 -27 27 -90q0 -65 -6 -133q-12 -123 -33 -246q-15 -74 -33 -147h9h2q79 0 132.5 49t67.5 131q3 20 16 29t24 0q9 -8 9 -27v-8q-2 -20 -8 -44.5t-24 -59 t-44 -61.5t-72 -46t-103 -19q-19 0 -25 2l-10 -30q-47 -128 -101 -178q-45 -43 -98 -43q-15 0 -31 4q-77 19 -133 137q-79 168 -104 416q-12 99 -12 194z" />
<glyph unicode="w" horiz-adv-x="958" d="M-20 678q0 41 4 131v12v14t0.5 13t1.5 14.5t2.5 12.5t4 13t6.5 10.5t9 10.5q21 20 46 20q4 0 8 -1q30 -4 51 -29q16 -18 16 -57q-2 -31 -2 -94l4 -181q11 -207 12 -213l17 -168q0 -2 2.5 -18t3.5 -22.5t4 -21t6.5 -22.5t8.5 -18.5t11.5 -17.5t14.5 -11q4 -4 12 -4 q32 0 58 64q17 41 28 106q13 70 21 238q2 78 2 231q-2 29 -2 58.5t2 58.5q0 25 0.5 36.5t6.5 29.5t19 30q19 20 46.5 20t46.5 -20q26 -24 26 -88q0 -65 -6 -129q-1 -14 -3 -39t-4 -45.5t-5 -38.5q0 -57 2 -86q0 -128 14 -237q21 -146 72 -181q10 -8 26 -8q7 1 13 4t11.5 9 t9.5 11t8 14t6.5 15t5 16.5t4 15t4 14.5t2.5 12q12 78 16 117v8q-38 42 -38 96q0 9 1 19q8 65 56 120l6 213q0 19 0.5 43t1.5 45.5t8 43.5t21 36q19 20 46 20t46 -20q24 -26 24 -88v-125q-7 -147 -22 -252q-8 -67 -25 -151h8h2q79 0 133 49t68 131q3 20 16 29t24 0 q9 -8 9 -27v-8q-2 -20 -8 -44.5t-24 -59t-44.5 -61.5t-72.5 -46t-103 -19q-16 0 -22 2l-8 -28q-49 -144 -111 -193q-31 -29 -71 -29h-2q-42 1 -72 33q-54 54 -76 207q-8 47 -10 68q-11 -48 -27 -101q-38 -128 -92 -178q-34 -31 -69 -31t-62 22t-52 58.5t-40.5 70t-26.5 65.5 q-30 82 -49 231q-12 102 -16 250z" />
<glyph unicode="x" horiz-adv-x="659" d="M-18 80q0 4 -1 9q1 33 11 63q12 34 31 67q22 39 76 101.5t63 74.5q45 65 57 86l-8 13q-16 22 -52.5 64.5t-52.5 64.5q-5 5 -20.5 26.5t-17.5 24.5v-10q0 -34 6 -105q6 -82 6 -100q0 -28 -19 -31t-27 18q-3 9 -3 19q0 26 -5 95.5t-9 130.5q-3 41 -3 82q0 21 1 42 q2 63 14 90q10 25 37.5 27.5t42.5 -19.5q23 -32 43 -76t28.5 -69.5t26.5 -83.5q20 -67 51 -137l25 49q28 53 84 184q39 93 69 131q16 22 43.5 22t38.5 -28q12 -28 12 -62q0 -64 -45 -145q-18 -32 -47 -69.5t-44 -54t-56 -60.5l-39 -41q27 -43 73 -117q91 -147 127.5 -197 t59.5 -50q33 0 59.5 37.5t41.5 95t22.5 116t7.5 109.5q0 26 21 32q20 6 26 -17q2 -7 2 -15v-6l-1 -25q-2 -26 -3.5 -44t-6 -53.5t-9.5 -63t-14 -64.5t-20 -64.5t-27.5 -56.5t-35.5 -47.5t-45 -30.5t-55 -12q-56 0 -94 41.5t-55 93.5t-39.5 124t-42.5 108q-25 45 -33 57 q-39 -49 -59 -88q-39 -66 -90 -213q-3 -11 -7 -22.5t-11.5 -31.5t-16.5 -35q-10 -14 -20 -25q-10 -10 -20 -10h-2q-12 1 -26 15q-22 27 -24 66z" />
<glyph unicode="y" horiz-adv-x="757" d="M-5 -338q-15 28 -15 58q0 44 33 91q67 97 225 140q38 10 79 16q100 15 160 45q1 28 1 65q0 75 -3 189q-25 -110 -90 -195t-143 -85q-43 0 -77.5 13.5t-59.5 34.5t-43.5 56t-30 68.5t-19 81.5t-10.5 86t-4 90v34q0 30 1 54q1 34 3 83t2 72l4 144v14.5v15.5t0.5 14.5 t2 15.5l3.5 14t6 14t9 12q21 26 49 26q12 0 26 -5q46 -13 50 -78l4 -127q1 -37 1 -86q0 -99 -3 -246q-2 -25 -2 -56q0 -21 1 -45q2 -58 6.5 -111.5t24.5 -90.5t54 -37q42 0 80.5 42t66.5 110t47.5 143t30.5 152q-4 76 -4 144q0 122 12 218q4 29 38 37.5t62 -6.5 q12 -7 19.5 -16.5t11.5 -24t5.5 -22.5t3 -27.5t1.5 -24.5q12 -121 15 -237q0 -133 -6 -265q-8 -102 -17 -164q72 69 116 161.5t44 197.5q0 26 19 32t27 -19l3 -19v-15q0 -115 -59 -228q-62 -119 -164 -202q-15 -75 -35 -139t-54.5 -126.5t-78 -104t-106.5 -64.5 q-47 -16 -101 -16q-19 0 -39 2q-141 15 -183 96zM128 -319q30 -56 109 -56h5q26 0 55 8q89 22 137 154q23 62 37 156q-77 -22 -156 -37q-131 -26 -180 -108q-20 -35 -20 -67q0 -26 13 -50z" />
<glyph unicode="z" horiz-adv-x="665" d="M1 20q0 9 5 17q22 33 199 332q49 81 144 227.5t120 185.5q-28 -6 -60 -6q-42 0 -90 10q-5 1 -34.5 7.5t-43 8t-35.5 -1.5t-36 -14q-17 -12 -57 -63q-20 -23 -50 -12.5t-30 41.5q0 73 57 127q45 41 108 42q30 0 64 -10q21 -6 57 -20.5t62.5 -23t57.5 -13t58 7t48 39.5 l6 10q2 0 2 2q8 11 20 13q3 1 6 1q9 0 17 -5q9 -8 11 -20t-5 -23q-60 -91 -168.5 -276t-165.5 -273q-19 -29 -57.5 -86.5t-56.5 -87.5q33 13 71 12q52 0 115 -23q12 -4 42 -16t41.5 -16t35.5 -9t39 -2t36 11t41 24q18 14 33 34.5t26.5 48t19.5 49.5t15.5 57t11 51.5t9 50.5 t6.5 39q3 20 16 29t24 0q9 -8 9 -27v-8q-4 -48 -14.5 -102.5t-32.5 -127t-64.5 -132.5t-98.5 -87q-43 -21 -86 -21q-46 0 -93 23q-18 9 -47.5 28.5t-54.5 32.5t-51 17q-9 1 -17 1q-65 0 -118 -73l-11 -16h-2v-2q-7 -10 -20 -12h-5q-10 0 -18 6q-11 8 -11 24z" />
<glyph unicode="{" horiz-adv-x="475" d="M19 536q-7 12 1.5 21.5t26.5 9.5q23 0 35 26.5t15 72.5t4 95.5t4 108t12 97.5q12 57 39.5 107t64.5 79q50 40 80 24.5t-6 -77.5q-59 -128 -72 -266q-1 -8 -4 -45.5t-5.5 -60t-9 -58.5t-14.5 -59t-22.5 -44t-32.5 -28q31 -18 45 -84t19 -165.5t10 -129.5q15 -104 84 -203 q24 -33 18.5 -54.5t-27.5 -22t-44 8.5q-45 25 -90 99q-39 65 -55 142t-13 138.5t6.5 116.5t-4.5 89.5t-37 43.5q-21 6 -28 18z" />
<glyph unicode="|" horiz-adv-x="411" d="M129 -74q8 114 27 1336q1 61 34 73q27 10 46 -21q15 -24 14 -61q-39 -1061 -60 -1321q-3 -39 -28 -46q-21 -6 -30 17q-4 9 -3 23z" />
<glyph unicode="}" horiz-adv-x="440" d="M56.5 1163.5q5.5 20.5 32.5 17.5t58 -28q37 -29 65 -79t40 -107q9 -39 12 -97.5t4 -108t4 -95.5t15 -72.5t35 -26.5q18 0 26.5 -9.5t1.5 -21.5t-28 -18q-29 -9 -37 -43.5t-4.5 -89.5t6.5 -116.5t-13 -138.5t-55 -142q-45 -74 -90 -99q-38 -20 -62 -1.5t9 69.5 q69 99 84 203q4 27 8.5 128.5t18.5 167t46 83.5q-12 5 -22.5 15t-18.5 26t-14 31.5t-11 38.5t-8 38.5t-5.5 41.5t-3.5 38.5t-3 36.5t-2 29q-13 141 -71 266q-23 43 -17.5 63.5z" />
<glyph unicode="~" horiz-adv-x="604" d="M37 428q5 11 16 21q48 43 88 64.5t67.5 22t51 -7.5t43 -20t38 -19.5t42 -2.5t49.5 28q32 27 56 9q20 -15 8 -39l-9 -11q-50 -47 -92 -70t-71.5 -24t-54.5 7.5t-45 21.5t-38.5 22t-39.5 5t-44 -27q-36 -36 -60 -20q-18 13 -5 40z" />
<glyph unicode="&#xa1;" horiz-adv-x="317" d="M39 1165q-8 38 17 69.5t63 31.5q28 0 51 -17.5t29 -46.5l4 -12q7 -30 -5 -54t-34.5 -34t-47.5 -11t-45.5 15.5t-27.5 46.5zM63 74v59v174l5 187q3 171 14 307l4 65q0 31 18 37q15 7 32 2.5t22 -16.5q3 -9 4 -19.5t1 -23t1 -19.5l6 -51l23 -258q9 -112 12 -219 q6 -93 -2 -176q0 -3 -0.5 -17.5t-1.5 -22t-3.5 -21.5t-6.5 -22t-11.5 -17t-17.5 -13q-27 -11 -54 -2.5t-38 29.5q-7 12 -7 37z" />
<glyph unicode="&#xa2;" horiz-adv-x="679" d="M6 375.5q-15 121.5 17 232.5q31 111 104 198t176 103q1 18 1 55t1 54q1 51 25.5 69t47.5 -5.5t21 -71.5q-4 -70 -4 -105q75 -20 122 -85.5t52 -151.5q3 -99 -49 -189q-60 -92 -131 -90q-6 0 -18 4q-3 -58 -21 -346q11 0 15 2q83 16 118 127q13 50 13 92q1 8 0 25.5t0 32 t6 24.5q11 20 34.5 22.5t38.5 -16.5q17 -24 7 -100q-9 -64 -35 -117q-54 -110 -154 -143q-15 -4 -45 -8l-8 -107q-3 -39 -28 -46q-21 -6 -30 17q-4 9 -3 23q1 10 1.5 27t1 43.5t1.5 46.5q-60 13 -113.5 58t-89.5 106q-59 98 -74 219.5zM160 633q-40 -229 10 -414 q13 -51 43 -95t72 -65q8 287 16 787q-33 -11 -63 -37q-59 -54 -78 -176zM377 518l26 35q26 39 42 80t17 90t-26 84q-17 24 -41 33h-4q-9 -229 -14 -322z" />
<glyph unicode="&#xa3;" horiz-adv-x="821" d="M2 17q-2 13 6 20q9 9 41 14l60 6q22 0 32 2q-45 92 -45 414q-34 8 -43 12q-26 9 -33.5 28.5t4 34.5t33.5 15h37q-4 69 -8 199q-1 72 1 122.5t11 116.5t31 122t57 102q71 91 193.5 98t206.5 -72q65 -62 90 -153t4 -180q-8 -38 -27.5 -77.5t-48.5 -74t-69.5 -51.5t-83.5 -6 q-70 17 22 125q2 1 2.5 2t1.5 2q83 90 96 188q6 56 -8.5 109t-52.5 86q-39 36 -95.5 43t-101.5 -19q-78 -44 -86 -196q-4 -80 4 -238q1 -21 17 -246q89 3 162 15q62 7 67 -32q4 -31 -28 -59q-16 -14 -35 -18q-54 -15 -162 -12q0 -159 -10 -271q-1 -5 -3 -27.5t-3 -33.5 t-5 -28t-10 -29l10 2q150 18 299 24q75 3 146 -6q74 -8 100 -37q14 -15 9 -36.5t-25 -28.5q-32 -14 -72 -17q-20 0 -62.5 -1t-64.5 -1q-107 0 -160 2q-39 1 -256 11q-10 1 -40.5 1.5t-53 4t-39.5 12.5q-10 4 -12 17z" />
<glyph unicode="&#xa4;" horiz-adv-x="864" d="M52.5 757q-1.5 24 9.5 38.5t27 21t38 -2.5t41 -34q24 -33 51 -81t41 -70q15 13 53 28q54 20 120.5 14.5t109.5 -34.5l16 -10q9 14 38.5 66t55.5 87q23 30 51 37t44 -8.5t21 -41t-17 -58.5q-10 -17 -29 -35t-34 -29t-46 -32t-45 -31q35 -49 35 -115q0 -60 -29 -111 q19 -13 53.5 -32.5t54 -35t31.5 -36.5q16 -24 17.5 -48t-9.5 -38.5t-27 -21.5t-38 2t-41 34q-20 26 -31.5 44t-27 44.5t-23.5 40.5q-20 -17 -45 -26q-58 -26 -133.5 -21t-122.5 39q-2 0 -6 4q-10 -16 -23.5 -39.5t-26 -42t-30.5 -43.5q-19 -25 -41 -34t-38 -2t-27 21.5 t-9.5 38.5t17.5 48q11 20 28.5 34.5t54.5 35.5t50 30q-38 55 -31 129q0 59 35 105q-12 8 -35 24t-35.5 24.5t-28.5 21.5t-27 26t-19 27q-16 24 -17.5 48zM261 426q17 -72 88 -95q26 -9 57 -9q56 -2 95 26t50.5 69.5t6 84t-37.5 75t-80 37.5q-100 11 -153 -60 q-42 -59 -26 -128z" />
<glyph unicode="&#xa5;" horiz-adv-x="700" d="M2 1180.5q2 27.5 18 40.5q17 17 42 20.5t47 -8.5q32 -16 38 -62q9 -86 39 -233q6 -31 35 -154q14 -61 29 -100q10 -30 28 -53.5t41 -20.5q18 2 33 14.5t27 35t17.5 36.5t13.5 37q31 91 55 180q30 109 43 197q1 7 3.5 29t4.5 34t10 26.5t21 21.5q43 27 92 0q25 -13 25 -45 q0 -56 -9 -111q-12 -111 -53 -217q-41 -113 -104 -186q-61 -69 -101 -95l6 -30q5 -30 5 -39q125 9 145 12q62 7 67 -32q4 -31 -28 -59q-16 -14 -35 -18q-43 -12 -149 -12l-7 -72v-4q87 3 152 13q62 7 67 -32q4 -31 -28 -59q-16 -14 -35 -18q-46 -12 -170 -12 q-5 -39 -16 -101q0 -3 -2.5 -28t-4.5 -38.5t-9 -30.5t-17 -23q-10 -4 -17.5 -6t-13.5 5.5t-10 14.5t-7.5 21t-5.5 24.5t-3.5 25.5t-2.5 24t-1.5 19.5t-0.5 12.5q-4 28 -8 84q-139 7 -174 22q-26 9 -33.5 28.5t4 34.5t33.5 15q65 -3 164 0v31q-2 18 -2 53q-129 7 -166 23 q-26 9 -33.5 28.5t4 34.5t33.5 15q65 -3 162 0q0 35 2 53v8q-44 23 -88 78q-68 80 -106 180q-43 121 -56 215q-8 70 -8 105q-4 20 -2 47.5z" />
<glyph unicode="&#xa6;" horiz-adv-x="436" d="M129 -74q29 410 29 527q0 67 25 75q19 6 30 -29q8 -22 8 -53q0 -348 -14 -520q-2 -29 -22 -40t-39 1t-17 39zM160 659q4 50 4.5 161.5t-1 247t-1.5 146.5q0 63 34 74q27 9 46 -24q14 -24 14 -58q0 -111 -35 -540q-3 -39 -28 -47q-21 -6 -30 16q-4 10 -3 24z" />
<glyph unicode="&#xa7;" horiz-adv-x="692" d="M2 111q-3 38 2.5 78.5t28.5 78t61 43.5q39 5 57 -26.5t13 -69.5q-3 -15 -16.5 -43.5t-16.5 -44.5q-10 -64 19 -115q34 -56 101 -71t129.5 14t84.5 90q17 40 10 77.5t-24 67.5t-48 57t-62 46t-67 35q-109 49 -175 143.5t-40 204.5q10 42 45 90q-71 98 -45 211 q18 72 74.5 120t130.5 62q72 13 144 -2t120 -63q38 -38 52 -84q28 -88 -15 -172q-13 -29 -39 -51.5t-55 -22.5t-47 23t-10 49q4 22 21.5 57t21.5 51q11 36 0.5 73t-41.5 60q-36 24 -80.5 27t-82 -12t-68 -44t-38.5 -69t7 -86q22 -56 74.5 -93.5t121.5 -71.5t103 -64 q83 -75 104 -180t-41 -199q30 -50 41 -105t-2.5 -112.5t-54.5 -102.5q-64 -74 -174.5 -87t-194.5 36q-54 31 -88.5 83.5t-40.5 113.5zM154 592q22 -56 74.5 -94t121.5 -72t103 -64l12 -12q16 39 8 76t-24.5 66.5t-48 56t-61.5 45.5t-65 35q-61 26 -118 76q-24 -57 -2 -113z " />
<glyph unicode="&#xa8;" horiz-adv-x="509" d="M39 1182l4 12q7 30 27.5 46.5t45.5 15.5t47.5 -11t34.5 -34t5 -54l-4 -12q-6 -29 -29 -46.5t-51 -17.5q-38 0 -63 31.5t-17 69.5zM285 1182l4 12q7 30 27.5 46.5t45.5 15.5t47.5 -11t34.5 -34t5 -54l-5 -12q-6 -29 -28.5 -46.5t-50.5 -17.5q-38 0 -63 31.5t-17 69.5z" />
<glyph unicode="&#xa9;" horiz-adv-x="1120" d="M25 686q50 229 194 348q75 65 185.5 87.5t213.5 -1.5q208 -48 314 -276q76 -170 76 -387q0 -294 -136 -484q-78 -116 -208 -163q-133 -44 -287 -11q-242 62 -338 375q-73 258 -14 512zM133 668q-47 -234 10 -469q75 -287 260 -344q122 -30 222 10q96 39 161 149 q105 175 105 443q0 199 -60 354q-82 212 -241 254q-79 23 -164 2t-143 -80q-114 -114 -150 -319zM188 375.5q-15 121.5 17 232.5q21 74 59 138t101.5 111.5t138.5 53.5q104 7 173.5 -64.5t74.5 -178.5q3 -98 -50 -189q-60 -92 -131 -90q-22 1 -33 18t-8 39q3 20 13 41 t17.5 31.5t25.5 34.5q25 38 41.5 79.5t17 90.5t-26.5 84q-18 25 -40 33q-41 18 -83.5 8.5t-74.5 -39.5q-59 -54 -78 -176q-40 -229 10 -414q22 -77 72.5 -129t122.5 -41q44 8 74 43.5t45 83.5q12 46 12 92q1 8 0 25.5t0 32t6 24.5q11 20 35 22.5t39 -16.5q17 -23 6 -100 q-9 -64 -35 -117q-54 -110 -154 -143q-90 -27 -175.5 22.5t-137.5 137.5q-59 98 -74 219.5z" />
<glyph unicode="&#xaa;" horiz-adv-x="649" d="M4 758q-15 92 4.5 187.5t71.5 170.5q80 122 192 117q66 -3 121 -45l21 -19q8 51 35 62q28 11 59 -8q17 -12 18.5 -36t-2.5 -44q-2 -47 -7.5 -123.5t-9 -128.5t-2 -119t10.5 -123q1 -3 3.5 -15.5t3.5 -17t4.5 -15t6.5 -16t8 -13t11 -12t14 -7.5h2q82 0 82 334q0 23 16 26 t20 -20l1 -10q0 -1 0.5 -27.5t0.5 -49t-2 -59.5t-6 -66t-13 -62t-21.5 -55.5t-33 -37t-46.5 -14.5q-34 0 -60.5 14.5t-42 33.5t-27.5 51t-16.5 52t-10.5 52l-4 26l-5 -8q-12 -41 -26 -73.5t-37 -68.5t-56.5 -55.5t-74.5 -17.5q-82 4 -135.5 76.5t-67.5 163.5zM109 760 q4 -113 45 -160q21 -24 51.5 -30t58.5 10q52 34 94 145q25 80 35 139q-3 118 13 248q-21 33 -57.5 53t-74.5 19q-64 -3 -104 -70q-38 -60 -53 -168q-13 -102 -8 -186z" />
<glyph unicode="&#xab;" horiz-adv-x="741" d="M44.5 482q0.5 16 12.5 26q16 16 133.5 121t149.5 147q26 33 56 27t37 -36t-13 -65q-22 -35 -127.5 -111.5t-177.5 -117.5q77 -40 180 -107t125 -100q23 -32 13 -64.5t-37 -35.5t-56 27q-32 42 -146 141.5t-133 118.5l-6 6q-11 7 -10.5 23zM290.5 482q0.5 16 12.5 26 q16 16 133.5 121t149.5 147q26 33 56 27t37 -36t-13 -65q-22 -35 -128 -111t-178 -118q77 -41 180.5 -107.5t125.5 -99.5q23 -32 13 -64.5t-37 -35.5t-56 27q-32 42 -146 141.5t-133 118.5l-6 6q-11 7 -10.5 23z" />
<glyph unicode="&#xac;" horiz-adv-x="622" d="M30 470.5q-7 19.5 4.5 34.5t33.5 15q201 -4 354 17q35 4 50.5 -8.5t16.5 -39.5t-2 -57.5t-0.5 -71.5t17.5 -73q26 -57 -9 -69q-29 -10 -64 15q-17 12 -25 29q-7 14 -10.5 29.5t-5 26.5t0.5 29.5t3 25t5 26.5t4 21q-74 -9 -189 -1t-151 23q-26 9 -33 28.5z" />
<glyph unicode="&#xad;" horiz-adv-x="737" d="M100 460q-5 19 7 33t32 11q59 -8 176 1t156 7q47 -2 64 -24t-3.5 -43t-66.5 -21q-49 -4 -111 -6.5t-133 0t-92 12.5q-24 11 -29 30z" />
</font>
</defs>
</svg>
